<svg xmlns="http://www.w3.org/2000/svg" width="64" height="56" viewBox="0 0 64 56">
    <g fill="none" fill-rule="evenodd">
        <path fill="#FFF" d="M0 0h64v56H0z"/>
        <rect width="1" height="1" x="32" y="28" fill="#ECF3F0" rx=".28"/>
        <text fill="#4A4B4A" font-family="ProximaNova-Regular, Proxima Nova" font-size="12" letter-spacing=".2" transform="translate(0 36)">
            <tspan x="12.868" y="11">Extrato</tspan>
        </text>
        <path fill="#4A4B4A" d="M26.494 22a1.5 1.5 0 0 1 0 3 1.5 1.5 0 1 1 0-3zm13.305 7c.647 0 1.175-.532 1.175-1.187v-9.847c-.068.01-.13.034-.2.034h-16.6c-.622 0-1.175.839-1.175 1.5v8.313c0 .655.528 1.187 1.175 1.187h15.625zM24.996 13.25V17h15.779c.133 0 .207-.054.224-.164.024-.154-.083-.351-.374-.441-3.354-1.053-14.276-4.386-14.276-4.386a1.432 1.432 0 0 0-.306-.002c-.587.059-1.047.605-1.047 1.244zm16.99 3.737c-.005.038-.026.068-.036.105.009.036.023.069.023.108v10.613A2.183 2.183 0 0 1 39.799 30H24.174A2.183 2.183 0 0 1 22 27.813V19.5c0-1.053.742-2.211 1.786-2.45a.5.5 0 0 1 .21-.05v-3.75c0-1.163.838-2.126 1.949-2.238.217-.023.439-.011.644.027.05.013 10.978 3.348 14.334 4.4.853.268 1.148.99 1.064 1.548z"/>
    </g>
</svg>
