<svg xmlns="http://www.w3.org/2000/svg" width="64" height="56" viewBox="0 0 64 56">
    <g fill="none" fill-rule="evenodd">
        <path fill="#FFF" d="M0 0h64v56H0z"/>
        <rect width="1" height="1" x="32" y="28" fill="#ECF3F0" rx=".28"/>
        <text fill="#75ae50" font-family="ProximaNova-Regular, Proxima Nova" font-size="12" letter-spacing=".2" transform="translate(0 36)">
            <tspan x="16.284" y="11">Ajuda</tspan>
        </text>
        <path fill="#75ae50" d="M28.75 18a.75.75 0 1 1 0 1.5.75.75 0 0 1 0-1.5zM32 18a.75.75 0 1 1 0 1.5.75.75 0 0 1 0-1.5zm3.25 0a.75.75 0 1 1 0 1.5.75.75 0 0 1 0-1.5zM39 27.46V13.5a.5.5 0 0 0-.5-.5h-13a.5.5 0 0 0-.5.5v11a.5.5 0 0 0 .5.5h10.25c.114 0 .224.039.312.109L39 27.46zM38.5 12c.827 0 1.5.673 1.5 1.5v15a.499.499 0 0 1-.813.391L35.575 26H25.5c-.827 0-1.5-.673-1.5-1.5v-11c0-.827.673-1.5 1.5-1.5h13z"/>
    </g>
</svg>
