<svg xmlns="http://www.w3.org/2000/svg" width="96" height="96" viewBox="0 0 96 96">
    <g fill="none" fill-rule="evenodd">
        <circle cx="48" cy="48" r="47" stroke="#75AE50" stroke-width="2"/>
        <path stroke="#75AE50" stroke-linecap="round" stroke-width="2" d="M64 58v4c0 1.657-1.343 3-3 3H33c-1.657 0-3-1.343-3-3V34c0-1.657 1.343-3 3-3h28c1.657 0 3 1.343 3 3v4"/>
        <path stroke="#75AE50" stroke-linecap="round" stroke-linejoin="round" stroke-width="2" d="M58.548 48L62.011 52 68.637 44"/>
        <path fill="#75AE50" fill-rule="nonzero" d="M47.069 39c-.26 0-.465.08-.622.24-.129.135-.204.303-.225.508l-.007.127v1.178l-.085.099c-1.157.173-2.085.606-2.794 1.302-.704.69-1.056 1.528-1.056 2.51 0 .826.206 1.479.613 1.958.419.49.91.851 1.48 1.087.509.212 1.152.42 1.929.627l.341.089c.69.18 1.21.331 1.583.46.384.134.707.319.97.554.271.246.406.564.406.953 0 .645-.241 1.142-.724 1.488-.475.337-1.14.504-1.995.504-.624 0-1.22-.089-1.782-.266-.57-.18-1.142-.458-1.715-.833l-.195-.106c-.086-.045-.156-.08-.213-.103-.098-.039-.201-.058-.31-.058-.167 0-.318.084-.455.26-.143.183-.213.392-.213.632 0 .187.029.341.085.464.04.089.106.174.202.255l.105.081c.475.38 1.045.686 1.713.922.534.187 1.08.319 1.636.396l.42.048.09.1v1.141c0 .218.055.4.163.548l.07.084.083.074c.115.09.252.143.413.16l.125.007c.262 0 .468-.08.622-.24.13-.136.206-.304.227-.507l.007-.126V54.44l.085-.099c1.154-.173 2.069-.596 2.744-1.265.675-.667 1.01-1.484 1.01-2.458 0-.8-.195-1.43-.585-1.89-.394-.467-.872-.817-1.433-1.049-.5-.206-1.13-.409-1.883-.604l-.331-.084c-.685-.174-1.23-.33-1.635-.469-.415-.145-.758-.348-1.031-.614-.283-.276-.424-.634-.424-1.073 0-.63.246-1.132.734-1.494.482-.356 1.121-.534 1.912-.534.633 0 1.189.093 1.659.278.46.184.95.46 1.47.824.157.103.295.176.397.214.096.035.196.052.295.052.18 0 .335-.085.473-.263.142-.182.213-.39.213-.63 0-.33-.135-.596-.412-.802-.821-.676-1.787-1.109-2.9-1.3l-.308-.046-.087-.1v-1.158c0-.262-.078-.472-.234-.635-.156-.159-.363-.24-.621-.24z"/>
    </g>
</svg>
