<svg xmlns="http://www.w3.org/2000/svg" xmlns:xlink="http://www.w3.org/1999/xlink" width="24" height="24" viewBox="0 0 24 24">
    <defs>
        <path id="a" d="M12 24C5.373 24 0 18.627 0 12S5.373 0 12 0s12 5.373 12 12-5.373 12-12 12zm0-1c6.075 0 11-4.925 11-11S18.075 1 12 1 1 5.925 1 12s4.925 11 11 11zm1.414-11l2.793 2.793a.999.999 0 1 1-1.414 1.414L12 13.414l-2.793 2.793a.999.999 0 1 1-1.414-1.414L10.586 12 7.793 9.207a.999.999 0 1 1 1.414-1.414L12 10.586l2.793-2.793a.999.999 0 1 1 1.414 1.414L13.414 12z"/>
    </defs>
    <use fill="#FFF" fill-rule="nonzero" xlink:href="#a"/>
</svg>
