<svg xmlns="http://www.w3.org/2000/svg" width="24" height="24" viewBox="0 0 24 24">
    <g fill="#75AE50" fill-rule="evenodd">
        <path d="M19 19.954c0 .29-.116.549-.306.74a1.04 1.04 0 0 1-.74.306H6.046a1.04 1.04 0 0 1-.74-.306 1.04 1.04 0 0 1-.306-.74v-8.908c0-.29.116-.549.306-.74.191-.19.45-.306.74-.306h11.908c.29 0 .549.116.74.306.19.191.306.45.306.74v8.908zM8 7c0-1.106.447-2.103 1.172-2.828A3.984 3.984 0 0 1 12 3c1.106 0 2.103.447 2.828 1.172A3.985 3.985 0 0 1 16 7v2H8V7zm9.954 2H17V7A5 5 0 0 0 7 7v2h-.954C4.916 9 4 9.916 4 11.046v8.908C4 21.084 4.916 22 6.046 22h11.908c1.13 0 2.046-.916 2.046-2.046v-8.908C20 9.916 19.084 9 17.954 9z"/>
        <path d="M12.707 15.707A.993.993 0 0 1 12 16a.993.993 0 0 1-.707-.293A.994.994 0 0 1 11 15c0-.277.111-.524.293-.707A.993.993 0 0 1 12 14c.278 0 .525.111.707.293.182.183.293.43.293.707a.995.995 0 0 1-.293.707M12 13a2 2 0 0 0-.5 3.934V18.5a.5.5 0 0 0 1 0v-1.566A1.999 1.999 0 0 0 12 13"/>
    </g>
</svg>
