<svg xmlns="http://www.w3.org/2000/svg" width="24" height="24" viewBox="0 0 24 24">
    <path fill="#75AE50" fill-rule="evenodd" d="M14 5.29c.466.138.91.324 1.33.551l.913-.912a1 1 0 0 1 1.414 0l1.414 1.414a1 1 0 0 1 0 1.414l-.912.913c.227.42.413.864.551 1.33H20a1 1 0 0 1 1 1v2a1 1 0 0 1-1 1h-1.29c-.138.466-.324.91-.551 1.33l.912.913a1 1 0 0 1 0 1.414l-1.414 1.414a1 1 0 0 1-1.414 0l-.913-.912c-.42.227-.864.413-1.33.551V20a1 1 0 0 1-1 1h-2a1 1 0 0 1-1-1v-1.29a6.957 6.957 0 0 1-1.33-.551l-.913.912a1 1 0 0 1-1.414 0L4.93 17.657a1 1 0 0 1 0-1.414l.912-.913A6.957 6.957 0 0 1 5.29 14H4a1 1 0 0 1-1-1v-2a1 1 0 0 1 1-1h1.29c.138-.466.324-.91.551-1.33l-.912-.913a1 1 0 0 1 0-1.414L6.343 4.93a1 1 0 0 1 1.414 0l.913.912c.42-.227.864-.413 1.33-.551V4a1 1 0 0 1 1-1h2a1 1 0 0 1 1 1v1.29zm-.285.958L13 6.036V4h-2v2.036l-.715.212a5.957 5.957 0 0 0-1.139.473l-.656.355-1.44-1.44L5.636 7.05l1.44 1.44-.355.656a5.957 5.957 0 0 0-.473 1.14L6.036 11H4v2h2.036l.212.715c.118.395.276.777.473 1.139l.355.656-1.44 1.44 1.414 1.414 1.44-1.44.656.355c.362.197.744.355 1.14.473l.714.212V20h2v-2.036l.715-.212a5.957 5.957 0 0 0 1.139-.473l.656-.355 1.44 1.44 1.414-1.414-1.44-1.44.355-.656c.197-.362.355-.744.473-1.14l.212-.714H20v-2h-2.036l-.212-.715a5.957 5.957 0 0 0-.473-1.139l-.355-.656 1.44-1.44-1.414-1.414-1.44 1.44-.656-.355a5.957 5.957 0 0 0-1.14-.473zM12 16a4 4 0 1 1 0-8 4 4 0 0 1 0 8zm0-1a3 3 0 1 0 0-6 3 3 0 0 0 0 6z"/>
</svg>
