<svg xmlns="http://www.w3.org/2000/svg" width="56" height="56" viewBox="0 0 56 56">
    <g fill="none" fill-rule="evenodd">
        <path fill="#FFF" d="M-16-512h320v656H-16z"/>
        <path fill="#75AE50" d="M42 34.082a1 1 0 0 1 .993.883l.007.117a1 1 0 1 1-1-1zm-28 0a1 1 0 1 1 0 2 1 1 0 0 1 0-2zm13.65-12.186a.58.58 0 0 1 .438.172.58.58 0 0 1 .159.339l.007.105v.733c.797.103 1.485.39 2.06.865a.663.663 0 0 1 .285.556c0 .165-.05.312-.148.438-.1.127-.215.189-.35.189a.614.614 0 0 1-.207-.035 1.403 1.403 0 0 1-.266-.142 4.465 4.465 0 0 0-.918-.515 2.783 2.783 0 0 0-1.024-.172c-.49 0-.881.108-1.173.326-.292.217-.438.515-.438.894 0 .26.083.47.249.633.166.162.375.286.628.373.252.087.595.185 1.03.296.576.142 1.046.288 1.409.438.363.149.673.377.93.68.257.304.384.716.384 1.237 0 .632-.218 1.164-.657 1.599-.39.385-.918.643-1.552.773l-.242.043v.746c0 .182-.032.329-.142.443a.577.577 0 0 1-.438.172.574.574 0 0 1-.598-.51l-.006-.105v-.723a5.332 5.332 0 0 1-1.315-.283 3.72 3.72 0 0 1-1.101-.593.586.586 0 0 1-.213-.236.76.76 0 0 1-.06-.32c0-.165.05-.311.149-.438.098-.126.21-.19.337-.19.079 0 .152.015.219.043.067.027.156.073.267.136.362.237.72.41 1.07.52a3.66 3.66 0 0 0 1.109.166c.529 0 .937-.102 1.225-.307.288-.206.433-.501.433-.888a.714.714 0 0 0-.237-.557 1.763 1.763 0 0 0-.592-.338 14.287 14.287 0 0 0-.995-.29 10.78 10.78 0 0 1-1.445-.455 2.51 2.51 0 0 1-.96-.704c-.268-.316-.402-.742-.402-1.278 0-.64.228-1.185.686-1.634.407-.4.927-.666 1.558-.798l.243-.043v-.745a.61.61 0 0 1 .166-.444.58.58 0 0 1 .438-.172zM14 20.082a1 1 0 0 1 .993.883l.007.117a1 1 0 1 1-1-1z"/>
        <path fill="#7EB854" fill-rule="nonzero" d="M29.5 19h-16a1.5 1.5 0 0 0-1.5 1.5v15a1.5 1.5 0 0 0 1.5 1.5h29a1.5 1.5 0 0 0 1.5-1.5v-9a.5.5 0 1 1 1 0v9a2.5 2.5 0 0 1-2.5 2.5h-29a2.5 2.5 0 0 1-2.5-2.5v-15a2.5 2.5 0 0 1 2.5-2.5h16a.5.5 0 1 1 0 1z"/>
        <path fill="#80B75A" d="M28 50.98c-12.683 0-23-10.313-23-22.99C5 15.315 15.317 5 28 5s23 10.313 23 22.99c0 12.677-10.317 22.99-23 22.99M28 4C14.767 4 4 14.762 4 27.99s10.767 23.99 24 23.99S52 41.22 52 27.99C52 14.763 41.233 4 28 4"/>
        <path fill="#73AF4A" d="M40.347 23.897a17.77 17.77 0 0 1-1.087.733 6.313 6.313 0 0 1-.656.364c-.168-.074-.558-.294-1.017-.594-.726-.472-1.647-1.147-2.374-1.818a7.063 7.063 0 0 1-.895-.963c-.218-.291-.316-.543-.318-.651v-4.503l4.544-1.443h.11L43 16.46v4.536c.012.167-.156.558-.507.978-.516.637-1.36 1.353-2.146 1.923zm-1.529-9.874l-.346-.002-.08-.001-4.766 1.515a.881.881 0 0 0-.626.836v4.64l.001.017c.05.578.386 1.054.81 1.553.645.74 1.565 1.486 2.416 2.099.425.306.832.575 1.178.789.35.215.626.369.84.459h.001a.925.925 0 0 0 .714.001c.276-.115.68-.348 1.181-.675.748-.49 1.672-1.175 2.433-1.904.381-.366.72-.742.978-1.126.253-.385.443-.78.448-1.228v-4.627a.882.882 0 0 0-.615-.834l-4.567-1.512z"/>
    </g>
</svg>
