<svg xmlns="http://www.w3.org/2000/svg" width="24" height="24" viewBox="0 0 24 24">
    <path fill="#75AE50" fill-rule="evenodd" d="M17.683 17c.28 0 .508.224.508.5V21c-.003 1.103-.911 1.998-2.032 2H8.032c-1.121-.002-2.03-.897-2.032-2V3c.002-1.103.911-1.998 2.032-2h8.127c1.12.002 2.03.897 2.032 2v3.5c0 .276-.228.5-.508.5a.504.504 0 0 1-.508-.5V5H7.015v14h10.16v-1.5c0-.276.227-.5.508-.5zm-.807 4.706a.988.988 0 0 0 .299-.706v-1H7.015v1c0 .275.114.522.3.706.186.183.438.294.717.294h8.127c.279 0 .53-.111.717-.294zM7.315 2.294a.986.986 0 0 0-.3.706v1h10.16V3a.988.988 0 0 0-.3-.706A1.018 1.018 0 0 0 16.16 2H8.032c-.28 0-.53.111-.717.294zM19.968 10c1.121.002 2.03.897 2.032 2v1c-.002 1.103-.911 1.998-2.032 2H13.62a.514.514 0 0 1-.36-.146.499.499 0 0 1-.148-.354V12c.002-1.103.911-1.998 2.032-2h4.825zm1.016 3v-1a.986.986 0 0 0-.299-.706 1.017 1.017 0 0 0-.717-.294h-4.825c-.28 0-.53.111-.717.294a.986.986 0 0 0-.299.706v2h5.841c.28 0 .53-.111.717-.294a.986.986 0 0 0 .3-.706z"/>
</svg>
