<svg xmlns="http://www.w3.org/2000/svg" width="24" height="24" viewBox="0 0 24 24">
    <g fill="none" fill-rule="evenodd" transform="translate(2 2)">
        <circle cx="10" cy="10" r="9.467" stroke="#75AE50" stroke-width="1.065"/>
        <path fill="#75AE50" d="M9.936 11.58l.732-.312c-.204-.156-.324-.396-.324-.588 0-.528.468-.84.984-1.2.636-.444 1.344-.936 1.344-1.944 0-1.032-.888-1.86-2.352-1.86-1.14 0-2.028.48-2.604 1.224l.6.648c.444-.588 1.008-.984 1.908-.984.948 0 1.416.516 1.416 1.116 0 .612-.492.948-1.02 1.308-.552.396-1.152.816-1.152 1.62 0 .36.144.696.468.972zm.252 2.34c.36 0 .66-.3.66-.66 0-.36-.3-.66-.66-.66-.36 0-.66.3-.66.66 0 .36.3.66.66.66z"/>
    </g>
</svg>
