<svg xmlns="http://www.w3.org/2000/svg" width="128" height="128" viewBox="0 0 128 128">
    <g fill="none" fill-rule="evenodd">
        <path fill="#D6D6D6" d="M64 126c34.242 0 62-27.758 62-62 0-34.242-27.758-62-62-62C29.758 2 2 29.758 2 64c0 34.242 27.758 62 62 62zm0 2C28.654 128 0 99.346 0 64 0 28.654 28.654 0 64 0c35.346 0 64 28.654 64 64 0 35.346-28.654 64-64 64z"/>
        <g fill="#75AE50">
            <path d="M34.174 45.74v-5.682a2.439 2.439 0 0 1 2.435-2.435h55.188a2.439 2.439 0 0 1 2.435 2.435v5.681a.812.812 0 0 0 1.623 0v-5.681A4.058 4.058 0 0 0 91.797 36H36.61a4.057 4.057 0 0 0-4.058 4.058v5.681a.812.812 0 0 0 1.623 0zM94.232 82.26v5.682a2.439 2.439 0 0 1-2.435 2.435H36.61a2.439 2.439 0 0 1-2.435-2.435v-5.681a.812.812 0 0 0-1.623 0v5.681A4.058 4.058 0 0 0 36.609 92h55.188a4.057 4.057 0 0 0 4.058-4.058v-5.681a.812.812 0 0 0-1.623 0zM22.671 65.23a.812.812 0 0 1 .94.659c.045.259.1.514.161.767a.811.811 0 1 1-1.575.39 12.524 12.524 0 0 1-.185-.877.81.81 0 0 1 .66-.94zm.614-6.467a.81.81 0 0 1 .527 1.02c-.079.248-.15.5-.212.754h.001a.813.813 0 0 1-1.578-.384c.072-.291.152-.58.243-.863a.812.812 0 0 1 1.02-.527zm3.928-4.667a.811.811 0 0 1-.008 1.148c-.185.184-.365.374-.538.57a.812.812 0 1 1-1.217-1.074c.197-.224.402-.44.614-.65a.812.812 0 0 1 1.149.006zm9.301-1.87a.812.812 0 0 1 .189-1.612c.298.035.594.08.886.135a.81.81 0 1 1-.3 1.595 11.575 11.575 0 0 0-.775-.118zm8.305 6.068a.811.811 0 1 1 1.435-.76c.138.261.27.53.392.803a.812.812 0 0 1-1.484.66 11.49 11.49 0 0 0-.343-.703zM24.75 70.257a.812.812 0 0 1 1.14.145c.16.208.327.41.5.604a.812.812 0 1 1-1.213 1.078 12.939 12.939 0 0 1-.571-.69.81.81 0 0 1 .145-1.137zm11.787 4.705a.812.812 0 0 1 .195 1.612c-.295.036-.592.062-.892.077a.811.811 0 0 1-.085-1.621c.263-.014.524-.036.782-.068zm5.402-21.776c.246.169.487.346.72.532a.812.812 0 1 1-1.008 1.272 11.516 11.516 0 0 0-.631-.467.81.81 0 1 1 .919-1.337zm4.393 15.371c.396.209.549.7.34 1.097a13.1 13.1 0 0 1-.443.778.812.812 0 0 1-1.382-.852c.137-.223.267-.45.388-.682.21-.397.7-.55 1.097-.34zM48 63.591v.054c0 .3-.01.598-.031.894a.811.811 0 1 1-1.62-.11c.019-.26.027-.52.027-.784v-.048A.811.811 0 1 1 48 63.591zm-6.278 9.075A.813.813 0 0 1 42.647 74c-.245.17-.497.331-.754.485a.812.812 0 0 1-.83-1.395c.225-.134.445-.276.66-.424zM31.18 74.522a.811.811 0 1 1-.575 1.519c-.28-.106-.556-.222-.827-.347a.812.812 0 0 1 .678-1.475c.237.11.479.21.724.303zm1.32-22.527a.812.812 0 0 1-.54 1.013c-.251.077-.498.162-.741.255a.811.811 0 1 1-.58-1.516c.278-.106.56-.204.848-.291a.812.812 0 0 1 1.013.54zm4.328 11.499c.368.151.683.383.944.691.26.308.391.728.391 1.256 0 .642-.222 1.183-.668 1.624-.445.441-1.044.718-1.798.83v.758a.624.624 0 0 1-.168.451.59.59 0 0 1-.445.175.59.59 0 0 1-.445-.175.624.624 0 0 1-.169-.451v-.734a5.44 5.44 0 0 1-1.334-.288 3.8 3.8 0 0 1-1.118-.602.597.597 0 0 1-.217-.24.78.78 0 0 1-.06-.325.7.7 0 0 1 .15-.445c.1-.128.214-.192.343-.192.08 0 .154.014.222.041.068.029.158.075.271.14a4.5 4.5 0 0 0 1.088.529c.357.111.732.168 1.124.168.538 0 .952-.105 1.245-.313.293-.209.44-.51.44-.902a.728.728 0 0 0-.24-.566 1.762 1.762 0 0 0-.603-.342c-.24-.084-.576-.182-1.01-.295a10.923 10.923 0 0 1-1.467-.463 2.535 2.535 0 0 1-.974-.715c-.273-.32-.409-.753-.409-1.299 0-.65.232-1.202.697-1.66.465-.457 1.075-.741 1.829-.853v-.758c0-.184.056-.335.168-.451a.592.592 0 0 1 .445-.175c.184 0 .332.058.445.175a.624.624 0 0 1 .168.45v.746c.81.105 1.507.397 2.092.879a.67.67 0 0 1 .29.565c0 .168-.051.316-.15.444-.101.129-.22.193-.355.193l-.211-.036a1.423 1.423 0 0 1-.27-.144 4.59 4.59 0 0 0-.933-.524 2.814 2.814 0 0 0-1.04-.174c-.497 0-.894.11-1.19.33-.298.221-.445.524-.445.909 0 .264.083.479.252.643.168.164.38.291.637.379.257.088.606.188 1.046.3.586.144 1.063.294 1.432.446zm69.579.1c0 7.172-5.814 12.986-12.986 12.986-7.172 0-12.985-5.814-12.985-12.986 0-7.172 5.813-12.985 12.985-12.985s12.986 5.813 12.986 12.985zM93.42 74.957c3.14 0 5.976-1.27 8.034-3.329a11.317 11.317 0 0 0 3.329-8.034c0-3.14-1.27-5.976-3.329-8.034a11.317 11.317 0 0 0-8.034-3.328c-3.14 0-5.975 1.27-8.034 3.328a11.317 11.317 0 0 0-3.328 8.034c0 3.14 1.27 5.976 3.328 8.034a11.317 11.317 0 0 0 8.034 3.329zm1.842-11.463c.368.151.683.383.944.691.26.308.39.728.39 1.256 0 .642-.222 1.183-.667 1.624-.445.441-1.044.718-1.799.83v.758a.624.624 0 0 1-.168.451.59.59 0 0 1-.444.175.59.59 0 0 1-.445-.175.624.624 0 0 1-.169-.451v-.734a5.44 5.44 0 0 1-1.334-.288 3.8 3.8 0 0 1-1.119-.602.597.597 0 0 1-.216-.24.78.78 0 0 1-.061-.325.7.7 0 0 1 .15-.445c.1-.128.215-.192.343-.192.08 0 .155.014.223.041.068.029.158.075.27.14a4.5 4.5 0 0 0 1.09.529c.356.111.73.168 1.123.168.537 0 .952-.105 1.245-.313.292-.209.44-.51.44-.902a.728.728 0 0 0-.241-.566 1.762 1.762 0 0 0-.602-.342c-.24-.084-.576-.182-1.01-.295a10.923 10.923 0 0 1-1.467-.463 2.535 2.535 0 0 1-.974-.715c-.273-.32-.41-.753-.41-1.299 0-.65.233-1.202.698-1.66.465-.457 1.075-.741 1.829-.853v-.758c0-.184.056-.335.168-.451a.592.592 0 0 1 .444-.175c.185 0 .333.058.446.175a.624.624 0 0 1 .168.45v.746c.81.105 1.507.397 2.092.879a.67.67 0 0 1 .29.565c0 .168-.051.316-.151.444-.1.129-.218.193-.355.193l-.21-.036a1.423 1.423 0 0 1-.271-.144 4.59 4.59 0 0 0-.932-.524 2.814 2.814 0 0 0-1.04-.174c-.498 0-.895.11-1.19.33-.298.221-.446.524-.446.909 0 .264.084.479.253.643.168.164.38.291.637.379.256.088.605.188 1.046.3.586.144 1.063.294 1.432.446z"/>
            <g>
                <path d="M69.884 75.768a.812.812 0 0 0 1.623 0V51.42a.812.812 0 0 0-1.623 0v24.348zM56.899 75.768a.812.812 0 0 0 1.623 0V51.42a.812.812 0 0 0-1.623 0v24.348zM52.029 75.768a.812.812 0 0 0 1.623 0V51.42a.812.812 0 0 0-1.623 0v24.348zM74.754 75.768a.812.812 0 0 0 1.623 0V51.42a.812.812 0 0 0-1.623 0v24.348zM61.768 75.768a.812.812 0 0 0 1.623 0V51.42a.812.812 0 0 0-1.623 0v24.348z"/>
            </g>
        </g>
    </g>
</svg>
