<svg xmlns="http://www.w3.org/2000/svg" width="32" height="32" viewBox="0 0 32 32">
    <g fill="#AFAFAF" fill-rule="evenodd">
        <path fill-rule="nonzero" d="M22.75 16.502A6.748 6.748 0 0 1 16 23.25a6.752 6.752 0 0 1-6.75-6.747h-1.5c0 4.55 3.696 8.247 8.25 8.247a8.248 8.248 0 0 0 8.25-8.247h-1.5z"/>
        <path d="M15 23.5h2V28h-2z"/>
        <path d="M8 26.5h16V28H8z"/>
        <path fill-rule="nonzero" d="M12.5 8.991v7.518A3.495 3.495 0 0 0 16 20a3.5 3.5 0 0 0 3.5-3.491V8.99A3.495 3.495 0 0 0 16 5.5a3.5 3.5 0 0 0-3.5 3.491zm-1.5 0A5 5 0 0 1 16 4c2.761 0 5 2.234 5 4.991v7.518a5 5 0 0 1-5 4.991c-2.761 0-5-2.234-5-4.991V8.99z"/>
    </g>
</svg>
