<svg xmlns="http://www.w3.org/2000/svg" width="32" height="32" viewBox="0 0 32 32">
    <g fill="#AFAFAF" fill-rule="nonzero">
        <path d="M16 26.375L7.5 21.27V14A.75.75 0 1 0 6 14v7.694a.75.75 0 0 0 .364.642l9.25 5.557a.75.75 0 0 0 .772 0l9.25-5.557a.75.75 0 0 0 .364-.642V14a.75.75 0 1 0-1.5 0v7.27L16 26.374z"/>
        <path d="M16 14.897L7.134 9.605a.75.75 0 0 0-.768 1.288l9.25 5.521a.75.75 0 0 0 .768 0l9.25-5.52a.75.75 0 1 0-.768-1.289L16 14.897zm8.866-3.982a.75.75 0 0 0 .768-1.288l-9.25-5.521a.75.75 0 0 0-.768 0l-9.25 5.52a.75.75 0 1 0 .768 1.289L16 5.623l8.866 5.292z"/>
    </g>
</svg>
