<svg xmlns="http://www.w3.org/2000/svg" width="128" height="128" viewBox="0 0 128 128">
    <g fill="none" fill-rule="evenodd">
        <path fill="#D6D6D6" d="M64 126c34.242 0 62-27.758 62-62 0-34.242-27.758-62-62-62C29.758 2 2 29.758 2 64c0 34.242 27.758 62 62 62zm0 2C28.654 128 0 99.346 0 64 0 28.654 28.654 0 64 0c35.346 0 64 28.654 64 64 0 35.346-28.654 64-64 64z"/>
        <path fill="#75AE50" d="M90 39h7v-5a3.005 3.005 0 0 0-3-3h-4v8zm-51 0h49v-8h-9.899a4.985 4.985 0 0 0 1.364 2.536A4.978 4.978 0 0 0 83 35a1 1 0 1 1 0 2c-3.525 0-6.434-2.609-6.92-6H46.101a4.991 4.991 0 0 0 1.363 2.536A4.982 4.982 0 0 0 51 35a1 1 0 0 1 0 2c-3.526 0-6.434-2.609-6.92-6H42a3.005 3.005 0 0 0-3 3v5zm8.464-12.536A4.991 4.991 0 0 0 46.101 29h9.798a4.985 4.985 0 0 0-1.364-2.536A4.978 4.978 0 0 0 51 25a4.982 4.982 0 0 0-3.536 1.464zm32.001 0A4.985 4.985 0 0 0 78.101 29h9.798a4.985 4.985 0 0 0-1.364-2.536A4.978 4.978 0 0 0 83 25a4.978 4.978 0 0 0-3.535 1.464zM94 29a5 5 0 0 1 5 5v52a5 5 0 0 1-5 5H70a1 1 0 1 1 0-2h24a3.005 3.005 0 0 0 3-3V41h-7v23a1 1 0 1 1-2 0V41H39v24a1 1 0 0 1-2 0V34a5 5 0 0 1 5-5h2.08c.486-3.391 3.394-6 6.92-6s6.434 2.609 6.92 6h18.16c.486-3.391 3.395-6 6.92-6s6.434 2.609 6.92 6H94zM63.5 52a1.5 1.5 0 1 1 0-3 1.5 1.5 0 0 1 0 3zm-13 0a1.5 1.5 0 1 1-.001-2.999A1.5 1.5 0 0 1 50.5 52zm26 0a1.5 1.5 0 1 1 0-3 1.5 1.5 0 0 1 0 3zm-13 12a1.5 1.5 0 1 1 0-3 1.5 1.5 0 0 1 0 3zm-13 0a1.5 1.5 0 1 1-.001-2.999A1.5 1.5 0 0 1 50.5 64zm26 0a1.5 1.5 0 1 1 0-3 1.5 1.5 0 0 1 0 3zm-11.248 5.826c.467.498.748 1.174.748 1.909V79a1 1 0 1 1-2 0v-7.265c0-.22-.084-.41-.207-.541a.57.57 0 0 0-.418-.194H31.626a.57.57 0 0 0-.419.194.788.788 0 0 0-.207.54V79a1 1 0 1 1-2 0v-7.265c0-.735.281-1.411.748-1.91A2.573 2.573 0 0 1 31.626 69h31.749c.742 0 1.414.328 1.877.826zM65 95a1 1 0 0 1 1 1v7.266c0 .734-.281 1.411-.748 1.908a2.573 2.573 0 0 1-1.877.826h-31.75a2.573 2.573 0 0 1-1.877-.826 2.783 2.783 0 0 1-.748-1.908V96a1 1 0 0 1 2 0v7.266c0 .219.084.41.207.541a.569.569 0 0 0 .418.193h31.75a.569.569 0 0 0 .418-.193.79.79 0 0 0 .207-.541V96a1 1 0 0 1 1-1zm-27 1a1 1 0 0 1-2 0V79a1 1 0 0 1 2 0v17zm4.008 0a1 1 0 0 1-2 0V79a1 1 0 0 1 2 0v17zM46 96a1 1 0 0 1-2 0V79a1 1 0 0 1 2 0v17zm9 0a1 1 0 0 1-2 0V79a1 1 0 0 1 2 0v17zm4 0a1 1 0 1 1-2 0V79a1 1 0 1 1 2 0v17zm17.5-20a1.5 1.5 0 1 1 0-3 1.5 1.5 0 0 1 0 3z"/>
    </g>
</svg>
