<svg xmlns="http://www.w3.org/2000/svg" width="24" height="24" viewBox="0 0 24 24">
    <g fill="none" fill-rule="evenodd">
        <path fill="#AFAFAF" fill-rule="nonzero" d="M11 10.6a3.6 3.6 0 1 0 0-7.2 3.6 3.6 0 0 0 0 7.2zm0 1.4a5 5 0 1 1 0-10 5 5 0 0 1 0 10zM11 20.6c4.93 0 6.6-.604 6.6-1.6 0-2.152-2.62-4.6-6.6-4.6-3.98 0-6.6 2.448-6.6 4.6 0 .996 1.67 1.6 6.6 1.6zm0 1.4c-5.523 0-8-.79-8-3s2.477-6 8-6 8 3.79 8 6-2.477 3-8 3z"/>
        <circle cx="17.5" cy="16.5" r="4.5" fill="#AFAFAF"/>
        <path fill="#FFF" fill-rule="nonzero" d="M17.5 20.289a3.789 3.789 0 1 0 0-7.578 3.789 3.789 0 0 0 0 7.578zm0 1.711a5.5 5.5 0 1 1 0-11 5.5 5.5 0 0 1 0 11z"/>
    </g>
</svg>
