<svg xmlns="http://www.w3.org/2000/svg" width="24" height="24" viewBox="0 0 24 24">
    <path fill="#75AE50" fill-rule="evenodd" d="M7.429 3.86a.499.499 0 0 1-.646-.292.506.506 0 0 1 .288-.651A13.66 13.66 0 0 1 12.006 2c1.733 0 3.393.323 4.922.912.258.1.388.391.29.651a.498.498 0 0 1-.646.292 12.668 12.668 0 0 0-4.566-.846c-1.615 0-3.157.301-4.577.85zm-4.23 5.9a.508.508 0 0 1-.098-.707c2.027-2.712 5.257-4.466 8.89-4.466 3.644 0 6.883 1.765 8.91 4.492a.508.508 0 0 1-.1.706.497.497 0 0 1-.7-.1c-1.847-2.483-4.79-4.089-8.11-4.089-3.31 0-6.244 1.596-8.092 4.066a.497.497 0 0 1-.7.098zm15.123-.276c1.64 1.485 2.68 3.586 2.678 5.967.002.95-.358 1.773-.945 2.337-.586.566-1.385.874-2.237.874a3.298 3.298 0 0 1-1.498-.346 2.902 2.902 0 0 1-1.252-1.244 4.044 4.044 0 0 1-.422-1.39c-.096-.73-.402-1.357-.854-1.797-.454-.439-1.049-.703-1.79-.705-.74.002-1.342.271-1.798.714-.454.444-.757 1.072-.838 1.79-.027.234-.04.46-.04.68.002 1.164.352 2.119.92 2.898.57.777 1.365 1.376 2.255 1.771.253.113.367.41.256.666a.498.498 0 0 1-.66.258c-1.026-.457-1.966-1.155-2.655-2.095-.689-.94-1.117-2.124-1.115-3.498 0-.258.015-.523.045-.794.106-.934.504-1.782 1.137-2.4.63-.62 1.502-1.001 2.492-1a3.502 3.502 0 0 1 2.485.989c.631.615 1.03 1.459 1.151 2.392.057.434.169.774.312 1.043.144.27.318.47.514.624.387.307.88.435 1.355.434.616 0 1.158-.22 1.546-.593.387-.377.634-.907.636-1.608-.001-2.082-.896-3.899-2.346-5.216C16.204 8.92 14.197 8.12 12 8.12c-2.22 0-4.224.848-5.67 2.21-1.446 1.365-2.33 3.233-2.33 5.297 0 .402.033.796.097 1.18a.5.5 0 0 1-.986.169A8.102 8.102 0 0 1 3 15.627c0-2.36 1.018-4.499 2.649-6.034C7.279 8.056 9.527 7.11 12 7.11c2.437 0 4.68.887 6.32 2.374zM8.455 20.816a.508.508 0 0 1-.073.71.496.496 0 0 1-.703-.074 8.11 8.11 0 0 1-1.542-3.166 10.626 10.626 0 0 1-.292-2.548v-.086a5.936 5.936 0 0 1 1.855-4.26 6.375 6.375 0 0 1 4.422-1.757c1.723 0 3.29.668 4.428 1.754 1.137 1.084 1.848 2.597 1.848 4.266a.502.502 0 0 1-.5.505.503.503 0 0 1-.5-.505c0-1.377-.582-2.621-1.535-3.533a5.4 5.4 0 0 0-3.741-1.477 5.378 5.378 0 0 0-3.734 1.479c-.951.912-1.534 2.158-1.543 3.534v.08c0 .58.04 1.403.263 2.304.222.9.624 1.875 1.347 2.774zm7.08-1.483a.505.505 0 0 1-.291.966c-1.123-.344-2.067-.915-2.739-1.682a4.182 4.182 0 0 1-1.048-3.074.502.502 0 0 1 .53-.473.503.503 0 0 1 .468.536 3.16 3.16 0 0 0 .8 2.343c.524.6 1.3 1.085 2.28 1.384z"/>
</svg>
