<svg xmlns="http://www.w3.org/2000/svg" xmlns:xlink="http://www.w3.org/1999/xlink" width="24" height="24" viewBox="0 0 24 24">
    <defs>
        <path id="a" d="M17.527 9.438l-3.225-2.98 1.45-1.468 3.225 2.979-1.45 1.47zm-7.94 8.044L6.36 14.504l7.355-7.452 3.225 2.98-7.354 7.45zm-3.594-2.184l2.79 2.577-3.13.924-.477-.403.817-3.098zM19.87 7.66L16.03 4.114a.43.43 0 0 0-.598.013L5.456 14.234a.394.394 0 0 0-.104.182l-1.339 5.072a.401.401 0 0 0 .118.398c.064.06.144.096.229.109.062.01.126.006.187-.014l5.177-1.527a.425.425 0 0 0 .183-.108l9.976-10.108a.4.4 0 0 0-.014-.579z"/>
    </defs>
    <use fill="#75AE50" fill-rule="evenodd" xlink:href="#a"/>
</svg>
