<svg xmlns="http://www.w3.org/2000/svg" width="56" height="56" viewBox="0 0 56 56">
    <path fill="#AFAFAF" fill-rule="evenodd" d="M28 0c15.464 0 28 12.536 28 28S43.464 56 28 56 0 43.464 0 28 12.536 0 28 0zm0 1C20.788 1 14.008 3.809 8.908 8.908 3.808 14.008 1 20.788 1 28c0 7.212 2.809 13.992 7.908 19.092C14.008 52.192 20.788 55 28 55c7.212 0 13.992-2.809 19.092-7.908C52.192 41.992 55 35.212 55 28c0-7.212-2.809-13.992-7.908-19.092C41.992 3.808 35.212 1 28 1zm6.5 13a3.5 3.5 0 0 1 0 7 3.491 3.491 0 0 1-2.867-1.5l-.114-.173-10.83 6.738a3.48 3.48 0 0 1 .092 2.647l-.091.223 10.829 6.738A3.495 3.495 0 0 1 34.499 34a3.5 3.5 0 1 1-3.5 3.5c0-.233.026-.46.07-.68l.052-.217-10.968-6.824a3.49 3.49 0 0 1-2.653 1.22 3.5 3.5 0 0 1 0-7c.986.001 1.875.41 2.511 1.067l.142.155 10.968-6.824A3.483 3.483 0 0 1 31 17.5a3.5 3.5 0 0 1 3.5-3.5zm0 21c-.692 0-1.314.28-1.768.732A2.491 2.491 0 0 0 32 37.5c0 .692.28 1.314.732 1.768A2.49 2.49 0 0 0 34.5 40a2.49 2.49 0 0 0 1.768-.732A2.49 2.49 0 0 0 37 37.5a2.49 2.49 0 0 0-.732-1.768A2.49 2.49 0 0 0 34.5 35zm-17-10c-.692 0-1.314.28-1.768.732A2.49 2.49 0 0 0 15 27.5c0 .692.279 1.314.732 1.768A2.49 2.49 0 0 0 17.5 30a2.49 2.49 0 0 0 1.768-.732A2.49 2.49 0 0 0 20 27.5a2.49 2.49 0 0 0-.732-1.768A2.49 2.49 0 0 0 17.5 25zm17-10c-.692 0-1.314.28-1.768.732A2.491 2.491 0 0 0 32 17.5c0 .692.28 1.314.732 1.768A2.49 2.49 0 0 0 34.5 20a2.49 2.49 0 0 0 1.768-.732A2.49 2.49 0 0 0 37 17.5a2.49 2.49 0 0 0-.732-1.768A2.49 2.49 0 0 0 34.5 15z"/>
</svg>
