<svg xmlns="http://www.w3.org/2000/svg" xmlns:xlink="http://www.w3.org/1999/xlink" width="96" height="96" viewBox="0 0 96 96">
    <defs>
        <path id="a" d="M0 96h96V0H0z"/>
    </defs>
    <g fill="none" fill-rule="evenodd">
        <path fill="#73AF4A" d="M48 0C21.49 0 0 21.49 0 48s21.49 48 48 48 48-21.49 48-48S74.51 0 48 0m0 2c25.364 0 46 20.636 46 46S73.364 94 48 94 2 73.364 2 48 22.636 2 48 2"/>
        <path fill="#73AF4A" d="M48.048 49.718h-.06c-2.25-.02-4.254-1.104-4.991-2.697a1.001 1.001 0 0 1 1.817-.839c.405.877 1.748 1.523 3.193 1.536h.04c1.387 0 2.718-.644 3.106-1.507a1 1 0 0 1 1.825.821c-.716 1.587-2.738 2.686-4.93 2.686M43.924 41.067a1 1 0 0 1-1-1v-1.349a1 1 0 1 1 2 0v1.35a1 1 0 0 1-1 1M52.095 41.067a1 1 0 0 1-1-1v-1.349a1 1 0 1 1 2 0v1.35a1 1 0 0 1-1 1"/>
        <path fill="#73AF4A" d="M35.543 28.718c-1.402 0-2.543 1.086-2.543 2.421v41.048c0 1.335 1.141 2.421 2.543 2.421h24.914c1.402 0 2.543-1.086 2.543-2.42V31.138c0-1.335-1.141-2.42-2.543-2.42H35.543zm24.914 47.89H35.543c-2.505 0-4.543-1.984-4.543-4.42V31.138c0-2.438 2.038-4.42 4.543-4.42h24.914c2.505 0 4.543 1.982 4.543 4.42v41.048c0 2.437-2.038 4.421-4.543 4.421z"/>
        <path fill="#73AF4A" d="M57.06 83.282H38.94a3.797 3.797 0 0 1-3.793-3.793v-2.881a1 1 0 1 1 2 0v2.88c0 .989.805 1.794 1.793 1.794h18.12c.988 0 1.793-.805 1.793-1.793v-2.881a1 1 0 1 1 2 0v2.88a3.797 3.797 0 0 1-3.793 3.794"/>
        <path fill="#73AF4A" d="M41.965 83.282a1 1 0 0 1-1-1v-5.674a1 1 0 1 1 2 0v5.674a1 1 0 0 1-1 1"/>
        <mask id="b" fill="#fff">
            <use xlink:href="#a"/>
        </mask>
        <path fill="#73AF4A" d="M38.006 53h19.988V33.718H38.006V53zm20.988 2H37.006a1 1 0 0 1-1-1V32.718a1 1 0 0 1 1-1h21.988a1 1 0 0 1 1 1V54a1 1 0 0 1-1 1zM48 23.718h-5.055a1 1 0 0 1 0-2H48a1 1 0 1 1 0 2M53.055 23.718h-.968a1 1 0 1 1 0-2h.968a1 1 0 1 1 0 2M48 19.718h-5.055a1 1 0 0 1 0-2H48a1 1 0 1 1 0 2M53.055 19.718h-.968a1 1 0 1 1 0-2h.968a1 1 0 1 1 0 2" mask="url(#b)"/>
        <path fill="#73AF4A" d="M38.003 26.718h19.994v-12H38.003v12zm20.994 2H37.003a1 1 0 0 1-1-1v-14a1 1 0 0 1 1-1h21.994a1 1 0 0 1 1 1v14a1 1 0 0 1-1 1zM41.333 68.334a1.667 1.667 0 1 1-3.334 0 1.667 1.667 0 0 1 3.334 0M49.667 68.334a1.667 1.667 0 1 1-3.334 0 1.667 1.667 0 0 1 3.334 0M58 68.334a1.667 1.667 0 1 1-3.334 0 1.667 1.667 0 0 1 3.334 0M41.333 61.5a1.667 1.667 0 1 1-3.334 0 1.667 1.667 0 0 1 3.334 0M49.667 61.5a1.667 1.667 0 1 1-3.334 0 1.667 1.667 0 0 1 3.334 0M58 61.5a1.667 1.667 0 1 1-3.334 0 1.667 1.667 0 0 1 3.334 0M27.484 25.563a.997.997 0 0 1-.65-.24l-3.688-3.157a1 1 0 1 1 1.301-1.52l3.687 3.156a1 1 0 0 1-.65 1.76M31.484 24.5a1 1 0 0 1-1-1v-4a1 1 0 1 1 2 0v4a1 1 0 0 1-1 1M26.484 29.5h-4a1 1 0 1 1 0-2h4a1 1 0 1 1 0 2" mask="url(#b)"/>
    </g>
</svg>
