<svg xmlns="http://www.w3.org/2000/svg" xmlns:xlink="http://www.w3.org/1999/xlink" width="64" height="64" viewBox="0 0 64 64">
    <defs>
        <path id="a" d="M32 64C14.327 64 0 49.673 0 32 0 14.327 14.327 0 32 0c17.673 0 32 14.327 32 32 0 17.673-14.327 32-32 32zm0-1c17.12 0 31-13.88 31-31C63 14.88 49.12 1 32 1 14.88 1 1 14.88 1 32c0 17.12 13.88 31 31 31zm6.874-36.714A2.13 2.13 0 0 1 41 28.412v19.094a.5.5 0 0 1-.786.41l-5.227-3.638-14.86.008h-.005l-.067-.005v-.002A2.122 2.122 0 0 1 18 42.16V28.412a2.127 2.127 0 0 1 2.126-2.126h18.748zM40 46.549V28.412a1.135 1.135 0 0 0-1.126-1.126H20.126A1.128 1.128 0 0 0 19 28.412V42.16a1.127 1.127 0 0 0 1.125 1.126h.008l15.012-.008c.101 0 .202.031.286.089L40 46.549zM29.5 34.286a1 1 0 1 1 0 2 1 1 0 1 1 0-2zm5.5 0a1 1 0 1 1 0 2 1 1 0 1 1 0-2zm-11 0a1 1 0 1 1 0 2 1 1 0 1 1 0-2zm20.874-14A2.13 2.13 0 0 1 47 22.412V35.16a2.127 2.127 0 0 1-2.126 2.126H43v-1h1.874A1.128 1.128 0 0 0 46 35.16V22.412a1.135 1.135 0 0 0-1.126-1.126H34.466a.5.5 0 0 1-.327-.12L30 17.591v6.694h-1V16.5a.499.499 0 0 1 .827-.379l4.824 4.165h10.223z"/>
    </defs>
    <use fill="#75AE50" fill-rule="nonzero" xlink:href="#a"/>
</svg>
