<svg xmlns="http://www.w3.org/2000/svg" width="96" height="96" viewBox="0 0 96 96">
    <path fill="#AFAFAF" fill-rule="evenodd" d="M48 0c26.51 0 48 21.49 48 48S74.51 96 48 96 0 74.51 0 48 21.49 0 48 0zm0 94c25.364 0 46-20.636 46-46S73.364 2 48 2 2 22.636 2 48s20.636 46 46 46zm20.029-24.111a1 1 0 0 1 .448 1.341A5.004 5.004 0 0 1 64 74H32a5 5 0 0 1-5-5V43a5 5 0 0 1 5-5h24V26a7.975 7.975 0 0 0-2.343-5.657A7.97 7.97 0 0 0 48 18a7.969 7.969 0 0 0-5.657 2.343A7.97 7.97 0 0 0 40 26v6a3.006 3.006 0 0 1-3 3 3.006 3.006 0 0 1-3-3v-6c.001-7.732 6.268-14 14-14s13.999 6.268 14 14v12h2a4.996 4.996 0 0 1 4.329 2.498 1 1 0 0 1-1.73 1.002A3 3 0 0 0 64 40H32a3.005 3.005 0 0 0-3 3v26a3.005 3.005 0 0 0 3 3h32a3 3 0 0 0 2.687-1.664 1 1 0 0 1 1.342-.447zM48 16c5.523 0 9.999 4.477 10 10v12h2V26a11.959 11.959 0 0 0-3.515-8.485A11.956 11.956 0 0 0 48 14a11.956 11.956 0 0 0-8.485 3.515A11.955 11.955 0 0 0 36 26v6c0 .274.11.52.295.705a.988.988 0 0 0 1.41 0A.988.988 0 0 0 38 32v-6c.001-5.523 4.477-10 10-10zm0 46a1 1 0 0 1-1-1v-3.163c-1.442-.433-2.5-1.754-2.5-3.337a3.5 3.5 0 1 1 7 0 3.488 3.488 0 0 1-2.5 3.337V61a1 1 0 0 1-1 1zm-1.5-7.5A1.503 1.503 0 0 0 48 56a1.503 1.503 0 0 0 1.5-1.5A1.502 1.502 0 0 0 48 53a1.502 1.502 0 0 0-1.5 1.5zm25.074-5.87l6.13 10.9a2.984 2.984 0 0 1-.453 3.553 2.98 2.98 0 0 1-2.16.917H62.909a2.983 2.983 0 0 1-2.161-.916 3.025 3.025 0 0 1-.843-2.087c0-.486.123-.99.38-1.453l6.05-10.9a2.988 2.988 0 0 1 2.624-1.545 2.986 2.986 0 0 1 2.615 1.53zm4.234 13.068c.18-.187.287-.447.286-.7a.989.989 0 0 0-.131-.488l-6.133-10.9a.977.977 0 0 0-.871-.51.977.977 0 0 0-.874.514l-6.051 10.901a.98.98 0 0 0-.13.482c0 .255.107.514.287.701a.972.972 0 0 0 .718.302H75.09a.973.973 0 0 0 .717-.302zM69 53a1 1 0 0 1 1 1v2a1 1 0 1 1-2 0v-2a1 1 0 0 1 1-1zm0 5a1 1 0 1 1 0 2 1 1 0 0 1 0-2z"/>
</svg>
