<svg xmlns="http://www.w3.org/2000/svg" width="96" height="96" viewBox="0 0 96 96">
    <path fill="#AFAFAF" fill-rule="evenodd" d="M48 0c26.51 0 48 21.49 48 48S74.51 96 48 96 0 74.51 0 48 21.49 0 48 0zm0 2C22.636 2 2 22.636 2 48s20.636 46 46 46 46-20.636 46-46S73.364 2 48 2zm-7.733 16.997c11.874 0 21.499 9.626 21.5 21.5-.001 4.779-1.58 9.178-4.215 12.747l4.583 3.504c.707-.48 1.526-.752 2.36-.751.893-.001 1.8.285 2.563.869l8.547 6.537c1.088.83 1.663 2.095 1.662 3.365 0 .894-.285 1.8-.867 2.564-.83 1.09-2.093 1.667-3.362 1.665-.893 0-1.8-.285-2.562-.868l-8.548-6.537c-1.088-.832-1.663-2.096-1.661-3.366-.001-.682.168-1.372.506-2.001l-4.483-3.428c-3.937 4.408-9.647 7.2-16.023 7.2-11.875 0-21.5-9.625-21.5-21.5 0-11.874 9.625-21.5 21.5-21.5zm24.228 39c-.673.002-1.331.3-1.771.877-.31.407-.457.878-.457 1.352 0 .677.3 1.337.875 1.777l8.548 6.537c.407.31.875.456 1.348.457.673-.001 1.33-.3 1.77-.877.31-.407.458-.877.459-1.352-.002-.676-.301-1.336-.876-1.776l-8.548-6.537c-.407-.311-.876-.457-1.348-.458zm-24.228-37c-5.39 0-10.257 2.182-13.79 5.712-3.53 3.532-5.71 8.4-5.71 13.788s2.18 10.257 5.71 13.789c3.533 3.53 8.4 5.71 13.79 5.71 5.387 0 10.256-2.18 13.788-5.71 3.53-3.532 5.71-8.401 5.712-13.79-.001-5.386-2.182-10.255-5.712-13.787-3.532-3.53-8.401-5.711-13.788-5.712zm13.588 14.272c.528-.162 1.088.135 1.25.663.443 1.444.682 2.978.682 4.565 0 .552-.448 1-1 1s-1-.448-1-1c0-1.387-.208-2.72-.594-3.978-.162-.528.135-1.087.662-1.25zM40.266 24.976c5.552 0 10.428 2.918 13.168 7.301.293.468.151 1.085-.317 1.378-.469.293-1.086.151-1.378-.317-2.392-3.822-6.633-6.363-11.473-6.362-2.105 0-4.092.48-5.867 1.335-.497.24-1.095.032-1.335-.466-.24-.497-.03-1.095.466-1.335 2.037-.983 4.326-1.535 6.736-1.534z"/>
</svg>
