<svg xmlns="http://www.w3.org/2000/svg" width="96" height="96" viewBox="0 0 96 96">
    <path fill="#AFAFAF" fill-rule="evenodd" d="M48 0c26.51 0 48 21.49 48 48S74.51 96 48 96 0 74.51 0 48 21.49 0 48 0zm0 94c25.364 0 46-20.636 46-46S73.364 2 48 2 2 22.636 2 48s20.636 46 46 46zm27.605-30.597a4.229 4.229 0 0 1 .795 5.929 4.217 4.217 0 0 1-5.924.797l-8.548-6.537a4.228 4.228 0 0 1-1.155-5.367l-4.483-3.428c-3.937 4.408-9.647 7.2-16.023 7.2-11.875 0-21.5-9.625-21.5-21.5 0-11.874 9.625-21.5 21.5-21.5 11.874 0 21.499 9.626 21.5 21.5-.001 4.779-1.58 9.178-4.215 12.747l4.583 3.504c.707-.48 1.526-.752 2.36-.751.893-.001 1.8.285 2.563.869l8.547 6.537zm-.796 4.717a2.23 2.23 0 0 0-.418-3.128l-8.548-6.537a2.22 2.22 0 0 0-3.119.419c-.31.407-.457.878-.457 1.352 0 .677.3 1.337.875 1.777l8.548 6.537c.407.31.875.456 1.348.457a2.217 2.217 0 0 0 1.77-.877zm-34.542-8.123a19.434 19.434 0 0 0 13.788-5.711 19.44 19.44 0 0 0 5.712-13.79 19.439 19.439 0 0 0-5.712-13.787 19.439 19.439 0 0 0-13.788-5.712 19.438 19.438 0 0 0-13.79 5.712 19.434 19.434 0 0 0-5.71 13.788 19.435 19.435 0 0 0 5.71 13.789 19.433 19.433 0 0 0 13.79 5.71zm14.838-24.065c.443 1.444.682 2.978.682 4.565a1 1 0 0 1-2 0c0-1.387-.208-2.72-.594-3.978a1 1 0 0 1 1.912-.587zm-1.67-3.655a1 1 0 0 1-1.696 1.061c-2.392-3.822-6.633-6.363-11.473-6.362a13.46 13.46 0 0 0-5.867 1.335 1 1 0 1 1-.869-1.8 15.456 15.456 0 0 1 6.736-1.535 15.512 15.512 0 0 1 13.168 7.301z"/>
</svg>
