<svg xmlns="http://www.w3.org/2000/svg" width="64" height="64" viewBox="0 0 64 64">
    <path fill="#74AD50" fill-rule="evenodd" d="M32 0c17.673 0 32 14.327 32 32 0 17.673-14.327 32-32 32C14.327 64 0 49.673 0 32 0 14.327 14.327 0 32 0zm0 62c16.542 0 30-13.458 30-30S48.542 2 32 2 2 15.458 2 32s13.458 30 30 30zm0-49c10.457.004 18.996 8.543 19 19v9a3.006 3.006 0 0 1-3 3h-3.713l-7.293 4.558A3.504 3.504 0 0 1 33.5 52h-4a3.506 3.506 0 0 1-3.5-3.5 3.506 3.506 0 0 1 3.5-3.5h4a3.5 3.5 0 0 1 2.911 1.564l5.487-3.429A2.999 2.999 0 0 1 41 41v-9a3.006 3.006 0 0 1 3-3h4c.254.001.497.042.732.102a16.99 16.99 0 0 0-4.727-9.108C40.919 16.91 36.674 15 32 15s-8.919 1.91-12.005 4.994a16.99 16.99 0 0 0-4.727 9.108c.235-.06.478-.101.732-.102h4a3.006 3.006 0 0 1 3 3v9a3.006 3.006 0 0 1-3 3h-4a3.006 3.006 0 0 1-3-3v-9c.004-10.457 8.543-18.996 19-19zm17 28v-9c0-.274-.11-.52-.294-.705A.992.992 0 0 0 48 31h-1v3a1 1 0 1 1-2 0v-3h-1c-.274 0-.52.11-.706.295A.991.991 0 0 0 43 32v9c0 .273.11.52.294.705A.992.992 0 0 0 44 42h1v-2a1 1 0 1 1 2 0v2h1c.274 0 .52-.11.706-.295A.993.993 0 0 0 49 41zm-14.441 8.559c.274-.277.441-.647.441-1.059 0-.412-.167-.782-.441-1.059A1.492 1.492 0 0 0 33.5 47h-4c-.412 0-.782.166-1.059.441A1.496 1.496 0 0 0 28 48.5c0 .412.167.782.441 1.059.277.275.647.441 1.059.441h4c.412 0 .782-.166 1.059-.441zM15.294 31.295A.991.991 0 0 0 15 32v9c0 .273.11.52.294.705A.992.992 0 0 0 16 42h1v-2a1 1 0 1 1 2 0v2h1c.274 0 .52-.11.706-.295A.993.993 0 0 0 21 41v-9c0-.274-.11-.52-.294-.705A.992.992 0 0 0 20 31h-1v3a1 1 0 1 1-2 0v-3h-1c-.274 0-.52.11-.706.295z"/>
</svg>
