<svg xmlns="http://www.w3.org/2000/svg" width="24" height="24" viewBox="0 0 24 24">
    <path fill="#75AE50" fill-rule="evenodd" d="M12.446 13.472c-1.654 0-3-1.346-3-3s1.346-3 3-3 3 1.346 3 3-1.346 3-3 3m0-11.472c2.254 0 4.374.886 5.972 2.495a8.476 8.476 0 0 1 2.474 6.011c0 4.495-6.989 10.115-7.786 10.741l-.66.518-.659-.518C11.469 20.998 4 15.097 4 10.507 4 5.816 7.789 2 12.446 2zm0 1C8.341 3 5 6.367 5 10.507c0 4.108 7.33 9.895 7.404 9.953l.042.033.043-.033c2.561-2.011 7.403-6.68 7.403-9.954A7.483 7.483 0 0 0 17.708 5.2 7.366 7.366 0 0 0 12.446 3zm0 3.472a4 4 0 1 1 0 7.999 4 4 0 0 1 0-8z"/>
</svg>
