<svg xmlns="http://www.w3.org/2000/svg" width="96" height="96" viewBox="0 0 96 96">
    <path fill="#AFAFAF" fill-rule="evenodd" d="M48 0c26.51 0 48 21.49 48 48S74.51 96 48 96 0 74.51 0 48 21.49 0 48 0zm0 94c25.364 0 46-20.636 46-46S73.364 2 48 2 2 22.636 2 48s20.636 46 46 46zm4.34-69.458l19.032 34.137A4.89 4.89 0 0 1 72 61.065a4.957 4.957 0 0 1-1.4 3.434 4.925 4.925 0 0 1-3.567 1.5H28.967A4.953 4.953 0 0 1 24 61.065a4.888 4.888 0 0 1 .627-2.385L43.66 24.542A4.93 4.93 0 0 1 48 22a4.93 4.93 0 0 1 4.34 2.542zm16.823 38.566A2.96 2.96 0 0 0 70 61.065a2.878 2.878 0 0 0-.375-1.412L50.593 25.515c-.57-1.018-1.562-1.51-2.593-1.515-1.03.006-2.023.497-2.593 1.515L26.374 59.653c-.26.469-.373.944-.374 1.412a2.956 2.956 0 0 0 .837 2.043c.53.543 1.252.89 2.13.892h38.066a2.922 2.922 0 0 0 2.13-.892zM48 50a1 1 0 0 1-1-1V37a1 1 0 0 1 2 0v12a1 1 0 0 1-1 1zm0 2.5a1.5 1.5 0 1 1 .001 2.999A1.5 1.5 0 0 1 48 52.5z"/>
</svg>
