<svg xmlns="http://www.w3.org/2000/svg" width="56" height="56" viewBox="0 0 56 56">
    <path fill="#AFAFAF" fill-rule="evenodd" d="M28 0c15.464 0 28 12.536 28 28S43.464 56 28 56 0 43.464 0 28 12.536 0 28 0zm0 1C20.788 1 14.008 3.809 8.908 8.908 3.808 14.008 1 20.788 1 28c0 7.212 2.809 13.992 7.908 19.092C14.008 52.192 20.788 55 28 55c7.212 0 13.992-2.809 19.092-7.908C52.192 41.992 55 35.212 55 28c0-7.212-2.809-13.992-7.908-19.092C41.992 3.808 35.212 1 28 1zm-9.625 21A3.634 3.634 0 0 1 22 25.625a3.634 3.634 0 0 1-3.625 3.625H15v3.25a.5.5 0 0 1-1 0v-10a.503.503 0 0 1 .5-.5zm0 1H15v5.25h3.375c.722 0 1.376-.294 1.854-.771a2.616 2.616 0 0 0 0-3.707A2.615 2.615 0 0 0 18.375 23zm6.125-1h3a5.094 5.094 0 0 1 3.772 1.628c.933 1.002 1.478 2.376 1.478 3.872s-.545 2.87-1.478 3.872a5.086 5.086 0 0 1-3.507 1.622L27.5 33h-3a.503.503 0 0 1-.494-.422L24 32.5v-10a.503.503 0 0 1 .422-.494L24.5 22h3zm16.75 0a.5.5 0 0 1 0 1H36v4h4.5a.5.5 0 0 1 0 1H36v4.5a.5.5 0 0 1-1 0v-10a.503.503 0 0 1 .5-.5zM27.5 23H25v9h2.5a4.09 4.09 0 0 0 3.04-1.31c.755-.81 1.21-1.936 1.21-3.19s-.455-2.38-1.21-3.19A4.089 4.089 0 0 0 27.5 23z"/>
</svg>
