<svg xmlns="http://www.w3.org/2000/svg" width="128" height="128" viewBox="0 0 128 128">
    <g fill="none" fill-rule="evenodd">
        <path fill="#D6D6D6" d="M64 126c34.242 0 62-27.758 62-62 0-34.242-27.758-62-62-62C29.758 2 2 29.758 2 64c0 34.242 27.758 62 62 62zm0 2C28.654 128 0 99.346 0 64 0 28.654 28.654 0 64 0c35.346 0 64 28.654 64 64 0 35.346-28.654 64-64 64z"/>
        <path fill="#75AE50" d="M41 26v3h37v-3a3.005 3.005 0 0 0-3-3H44a3.005 3.005 0 0 0-3 3zm37.726 64.727A4.369 4.369 0 0 1 75.638 92H44a5 5 0 0 1-5-5V26a5 5 0 0 1 5-5h31a5 5 0 0 1 5 5v34a1 1 0 0 1-2 0V31H41v47h18a1 1 0 0 1 0 2H41v7a3.005 3.005 0 0 0 3 3h31.638c.66 0 1.247-.263 1.676-.689a1 1 0 1 1 1.412 1.416zM66 25a1 1 0 0 1 0 2H56a1 1 0 0 1 0-2h10zm-13 0a1 1 0 1 1 0 2 1 1 0 0 1 0-2zm7 60a1.002 1.002 0 0 0-1-1 1.002 1.002 0 0 0-1 1c.001.552.448.999 1 1a1.002 1.002 0 0 0 1-1zm-4 0a3 3 0 1 1 6 0 3 3 0 0 1-6 0zM27.253 64l8.517 8.283a1 1 0 1 1-1.394 1.434l-8.527-8.293-.01-.01A6.27 6.27 0 0 1 24 60.997a5.83 5.83 0 0 1 1.116-3.453 5.978 5.978 0 0 1 4.538-2.453l-3.815-3.814A6.273 6.273 0 0 1 24 46.86a5.824 5.824 0 0 1 1.116-3.452 5.977 5.977 0 0 1 4.547-2.454 5.986 5.986 0 0 1-1.705-4.187 5.988 5.988 0 0 1 2.471-4.857 5.825 5.825 0 0 1 3.453-1.116c.4 0 .797.04 1.19.117a1 1 0 1 1-.387 1.962 4.099 4.099 0 0 0-.803-.079 3.83 3.83 0 0 0-2.274.731 3.982 3.982 0 0 0-1.65 3.242 3.982 3.982 0 0 0 1.165 2.828l3.092 3.093c.186.186.293.444.293.707 0 .263-.107.521-.293.707a1.006 1.006 0 0 1-.707.293c-.263 0-.52-.107-.707-.293a3.984 3.984 0 0 0-2.829-1.165 3.978 3.978 0 0 0-3.24 1.651A3.819 3.819 0 0 0 26 46.86a4.28 4.28 0 0 0 1.253 3.004l6.962 6.961.006.008a.98.98 0 0 1 .286.695l.001.004a1 1 0 0 1-1.698.713l-.009-.006a3.985 3.985 0 0 0-2.826-1.165 3.983 3.983 0 0 0-3.243 1.651A3.822 3.822 0 0 0 26 60.997 4.269 4.269 0 0 0 27.253 64zm52.56 18.023a.999.999 0 1 1-.428 1.954c-3.03-.666-5.55-2.692-6.931-5.41-.592-1.171-1.847-1.887-3.183-1.888l-3.826-.002c-4.12-.006-7.443-3.426-7.444-7.59A2.076 2.076 0 0 1 60.063 67H79a1 1 0 1 1 0 2H60.063l-.036.019-.026.067a5.65 5.65 0 0 0 1.607 3.957c.995 1.014 2.347 1.634 3.837 1.634l3.826.001c2.039.002 3.999 1.09 4.966 2.983 1.12 2.203 3.158 3.832 5.577 4.362zm-3.576 20.106l4.164 4.164a.999.999 0 1 1-1.414 1.414l-4.694-4.694c-.055-.054-.084-.122-.123-.185-.713.104-1.43.172-2.148.172a14.701 14.701 0 0 1-10.414-4.293h-.001l-2.304-2.241a1 1 0 1 1 1.394-1.433l2.305 2.24.009.01C65.489 99.762 68.75 101 72.02 101c1.058 0 2.115-.13 3.145-.388a1 1 0 0 1 1.213.726.988.988 0 0 1-.142.79zm26.767-12.836a.999.999 0 1 1-1.414 1.414l-7.117-7.116a14.618 14.618 0 0 1-3.786 6.592l-1.525 1.524a1 1 0 1 1-1.414-1.414l1.525-1.524c2.477-2.478 3.715-5.741 3.716-9.013-.001-3.272-1.239-6.533-3.716-9.011l-6.971-6.8a1 1 0 1 1 1.396-1.431l6.98 6.807.009.009a14.702 14.702 0 0 1 4.302 10.426c0 .484-.025.968-.072 1.45l8.087 8.087zM71 43a1 1 0 0 1-1-1v-3.949l-.015-.03-.053-.021H49.068l-.053.021-.015.03V42a1 1 0 0 1-2 0v-3.949A2.061 2.061 0 0 1 49.068 36h20.864A2.061 2.061 0 0 1 72 38.051V42a1 1 0 0 1-1 1zM47.572 60.325A2.24 2.24 0 0 1 47 58.82V55a1 1 0 1 1 2 0v3.82a.218.218 0 0 0 .076.18h20.848l.021-.017.055-.162V55a1 1 0 1 1 2 0v3.82a2.24 2.24 0 0 1-.573 1.505 2.017 2.017 0 0 1-1.495.675H49.068a2.019 2.019 0 0 1-1.496-.675zM51 43a1 1 0 0 1 2 0v11a1 1 0 0 1-2 0V43zm3 0a1 1 0 0 1 2 0v11a1 1 0 0 1-2 0V43zm3 0a1 1 0 0 1 2 0v11a1 1 0 0 1-2 0V43zm6 0a1 1 0 0 1 2 0v11a1 1 0 0 1-2 0V43zm3 0a1 1 0 0 1 2 0v11a1 1 0 0 1-2 0V43z"/>
    </g>
</svg>
