<svg xmlns="http://www.w3.org/2000/svg" width="96" height="96" viewBox="0 0 96 96">
    <path fill="#75AE50" fill-rule="evenodd" d="M72 61.026a1 1 0 0 1 1 1V70a3.001 3.001 0 0 1-3 3H26a3.001 3.001 0 0 1-3-3V26a3 3 0 0 1 3-3h2.911a5.62 5.62 0 0 1 5.575-4.932A5.62 5.62 0 0 1 40.062 23h15.741a5.62 5.62 0 0 1 5.575-4.932A5.62 5.62 0 0 1 66.953 23H70a3 3 0 0 1 3 3v7a1.003 1.003 0 0 1-1 1H25v36c.001.552.448.999 1 1h44a1.002 1.002 0 0 0 1-1v-7.974a1 1 0 0 1 1-1zM25 26v6h46v-6a1.002 1.002 0 0 0-1-1H58.009c.183.471.455.897.807 1.251a3.61 3.61 0 0 0 2.562 1.061 1 1 0 0 1 0 2A5.62 5.62 0 0 1 55.916 25H31.117c.184.471.455.897.808 1.251a3.604 3.604 0 0 0 2.561 1.061 1 1 0 1 1 0 2A5.62 5.62 0 0 1 29.024 25H26a1.002 1.002 0 0 0-1 1zm6.925-4.871A3.605 3.605 0 0 0 30.934 23h7.105a3.613 3.613 0 0 0-3.553-2.932 3.604 3.604 0 0 0-2.561 1.061zm26.891 0A3.613 3.613 0 0 0 57.825 23h7.106a3.614 3.614 0 0 0-3.553-2.932 3.61 3.61 0 0 0-2.562 1.061zM48 0c26.51 0 48 21.49 48 48S74.51 96 48 96 0 74.51 0 48 21.49 0 48 0zm0 94c25.364 0 46-20.636 46-46S73.364 2 48 2 2 22.636 2 48s20.636 46 46 46zm24-56c5.523 0 10 4.477 10 10 0 5.524-4.477 10-10 10a10 10 0 0 1 0-20zm5.657 15.657A7.973 7.973 0 0 0 80 48a7.97 7.97 0 0 0-2.343-5.656A7.971 7.971 0 0 0 72 40a7.97 7.97 0 0 0-5.657 2.344A7.962 7.962 0 0 0 64 48c0 2.213.893 4.206 2.343 5.657A7.969 7.969 0 0 0 72 56a7.97 7.97 0 0 0 5.657-2.343zm-3.438-8.281a1 1 0 0 1 1.562 1.248l-4 5a.996.996 0 0 1-.726.374.994.994 0 0 1-.762-.29l-2-2a1 1 0 0 1 1.414-1.415l1.21 1.21 3.302-4.127zM46.56 61.72c-.179-.187-.267-.435-.267-.746V59.37a10.666 10.666 0 0 1-2.67-.571c-.855-.303-1.584-.718-2.185-1.245-.293-.218-.439-.528-.439-.931 0-.28.072-.517.219-.71.147-.195.327-.292.543-.292.216 0 .479.1.787.302 1.479 1.01 2.974 1.514 4.486 1.514 1.14 0 2.023-.233 2.647-.699.624-.465.936-1.125.936-1.979 0-.512-.165-.927-.496-1.245a3.565 3.565 0 0 0-1.25-.756c-.5-.187-1.19-.388-2.069-.606-1.156-.295-2.096-.59-2.822-.885a4.679 4.679 0 0 1-1.86-1.372c-.517-.622-.775-1.445-.775-2.469 0-1.257.45-2.323 1.353-3.201.902-.876 2.093-1.4 3.572-1.571v-1.63c0-.31.09-.56.267-.745.176-.186.412-.279.704-.279.293 0 .528.093.706.28.176.185.265.433.265.745v1.629a7.686 7.686 0 0 1 2.254.57c.718.304 1.354.71 1.909 1.222.308.249.462.56.462.931 0 .265-.077.497-.23.699-.156.202-.34.303-.556.303-.216 0-.478-.1-.786-.303-.664-.512-1.296-.892-1.896-1.14-.6-.248-1.31-.373-2.128-.373-1.063 0-1.911.249-2.543.745-.632.497-.947 1.173-.947 2.026 0 .573.176 1.04.53 1.396.355.358.794.633 1.318.827.526.194 1.241.4 2.15.617 1.126.28 2.036.562 2.73.849a4.63 4.63 0 0 1 1.78 1.304c.493.581.74 1.37.74 2.363 0 1.226-.436 2.258-1.306 3.097-.872.837-2.023 1.35-3.458 1.536v1.652c0 .31-.088.56-.265.746-.178.186-.413.279-.705.279-.293 0-.528-.093-.705-.28z"/>
</svg>
