<svg xmlns="http://www.w3.org/2000/svg" width="96" height="96" viewBox="0 0 96 96">
    <path fill="#AFAFAF" fill-rule="evenodd" d="M48 0c26.51 0 48 21.49 48 48S74.51 96 48 96 0 74.51 0 48 21.49 0 48 0zm0 2C22.636 2 2 22.636 2 48s20.636 46 46 46 46-20.636 46-46S73.364 2 48 2zm0 20c1.682-.006 3.403.855 4.34 2.542l19.032 34.137c.427.764.628 1.588.628 2.386 0 1.298-.52 2.524-1.4 3.434-.876.91-2.138 1.503-3.567 1.5H28.967c-1.429.003-2.69-.59-3.567-1.5-.88-.91-1.399-2.136-1.4-3.434 0-.798.201-1.622.627-2.386L43.66 24.542c.937-1.687 2.658-2.548 4.34-2.542zm0 2c-1.03.006-2.023.497-2.593 1.515L26.374 59.653c-.26.469-.373.944-.374 1.412 0 .757.31 1.499.837 2.043.53.543 1.252.89 2.13.892h38.066c.878-.002 1.6-.35 2.13-.892.527-.544.838-1.286.837-2.043 0-.468-.114-.943-.375-1.412L50.593 25.515c-.57-1.018-1.562-1.51-2.593-1.515zm0 28.5c.829 0 1.5.671 1.5 1.5s-.671 1.5-1.5 1.5-1.5-.671-1.5-1.5.671-1.5 1.5-1.5zM48 36c.552 0 1 .448 1 1v12c0 .552-.448 1-1 1s-1-.448-1-1V37c0-.552.448-1 1-1z"/>
</svg>
