<svg xmlns="http://www.w3.org/2000/svg" width="24" height="24" viewBox="0 0 24 24">
    <path fill="#75AE50" fill-rule="evenodd" d="M4.978 14h.495c.273 0 .494.224.494.5s-.221.5-.494.5h-.495A1.993 1.993 0 0 1 3 13V5a1.993 1.993 0 0 1 1.978-2h9.044A1.993 1.993 0 0 1 16 5v1.5c0 .276-.221.5-.494.5a.497.497 0 0 1-.495-.5V5a1.001 1.001 0 0 0-.989-1H4.978a1 1 0 0 0-.989 1v8a1 1 0 0 0 .99 1zM10 10a1 1 0 0 0-1 1v8a1 1 0 0 0 1 1h9a1 1 0 0 0 1-1v-8a1 1 0 0 0-1-1h-9zm0-1h9a2 2 0 0 1 2 2v8a2 2 0 0 1-2 2h-9a2 2 0 0 1-2-2v-8a2 2 0 0 1 2-2z"/>
</svg>
