<svg xmlns="http://www.w3.org/2000/svg" width="24" height="24" viewBox="0 0 24 24">
    <path fill="#75AE50" fill-rule="evenodd" d="M19.159 13.73a6.264 6.264 0 0 1-4.445 1.841c-.867 0-1.69-.175-2.441-.491a.5.5 0 0 0-.548.107l-1.29 1.289H8.835a.502.502 0 0 0-.5.5v1.31h-1.31a.503.503 0 0 0-.5.5v1.602L5.912 21H3v-2.912l5.813-5.813a.5.5 0 0 0 .107-.548 6.264 6.264 0 0 1-.491-2.441c0-1.738.703-3.306 1.84-4.445A6.264 6.264 0 0 1 14.715 3c1.737 0 3.306.703 4.445 1.841A6.264 6.264 0 0 1 21 9.286a6.265 6.265 0 0 1-1.841 4.444M14.714 2a7.286 7.286 0 0 0-6.84 9.8l-5.727 5.727a.503.503 0 0 0-.147.354V21.5a.504.504 0 0 0 .5.5h3.619c.132 0 .26-.053.354-.146l.905-.905a.504.504 0 0 0 .146-.354v-1.31h1.31a.503.503 0 0 0 .5-.5v-1.309h1.309c.131 0 .26-.053.353-.146l1.205-1.204A7.286 7.286 0 1 0 14.715 2m1.992 6.706A.993.993 0 0 1 16 9a.993.993 0 0 1-.707-.293A.994.994 0 0 1 15 8c0-.277.111-.524.293-.707A.993.993 0 0 1 16 7c.278 0 .525.111.707.293.182.183.293.43.293.707a.995.995 0 0 1-.293.707M16 6a2 2 0 1 0 0 4 2 2 0 0 0 0-4"/>
</svg>
