<svg xmlns="http://www.w3.org/2000/svg" width="24" height="24" viewBox="0 0 24 24">
    <path fill="#75AE50" fill-rule="evenodd" d="M19 4a2 2 0 0 1 2 2v13a2 2 0 0 1-2 2H6a2 2 0 0 1-2-2V6a2 2 0 0 1 2-2h1v-.5a.5.5 0 0 1 1 0V4h4v-.5a.5.5 0 0 1 1 0V4h4v-.5a.5.5 0 0 1 1 0V4h1zm1 15V6a.995.995 0 0 0-.293-.707A.993.993 0 0 0 19 5h-1v.5a.5.5 0 0 1-1 0V5h-4v.5a.5.5 0 0 1-1 0V5H8v.5a.5.5 0 0 1-1 0V5H6a.993.993 0 0 0-.707.293A.994.994 0 0 0 5 6v13c0 .277.111.524.293.707.183.182.43.293.707.293h13a.993.993 0 0 0 .707-.293A.995.995 0 0 0 20 19zM11 9a.5.5 0 0 1 .5.5v2a.5.5 0 0 1-.5.5H8.5a.5.5 0 0 1-.5-.5v-2a.5.5 0 0 1 .5-.5H11zm5.5 0a.5.5 0 0 1 .5.5v2a.5.5 0 0 1-.5.5H14a.5.5 0 0 1-.5-.5v-2A.5.5 0 0 1 14 9h2.5zM11 14a.5.5 0 0 1 .5.5v2a.5.5 0 0 1-.5.5H8.5a.5.5 0 0 1-.5-.5v-2a.5.5 0 0 1 .5-.5H11zm5.5 0a.5.5 0 0 1 .5.5v2a.5.5 0 0 1-.5.5H14a.5.5 0 0 1-.5-.5v-2a.5.5 0 0 1 .5-.5h2.5z"/>
</svg>
