<svg xmlns="http://www.w3.org/2000/svg" width="128" height="128" viewBox="0 0 128 128">
    <g fill="none" fill-rule="evenodd">
        <path fill="#D6D6D6" d="M64 126c34.242 0 62-27.758 62-62 0-34.242-27.758-62-62-62C29.758 2 2 29.758 2 64c0 34.242 27.758 62 62 62zm0 2C28.654 128 0 99.346 0 64 0 28.654 28.654 0 64 0c35.346 0 64 28.654 64 64 0 35.346-28.654 64-64 64z"/>
        <path fill="#75AE50" d="M84 64c2.165.001 4.143.75 5.601 1.998 1.456 1.244 2.4 3.023 2.4 5.002a1 1 0 0 1-2 0c-.002-1.334-.625-2.555-1.702-3.483C87.223 66.593 85.7 65.999 84 66c-1.7-.001-3.224.593-4.299 1.517-1.078.928-1.7 2.149-1.7 3.483a1 1 0 0 1-2 0c-.002-1.979.942-3.758 2.398-5.002C79.857 64.75 81.835 64.001 84 64a5 5 0 1 1 .001-10.001 5 5 0 0 1 0 10.001zm3-32a1 1 0 0 1 1 1v11a1 1 0 0 1-2 0V33a1 1 0 0 1 1-1zm3 0a1 1 0 0 1 1 1v11a1 1 0 0 1-2 0V33a1 1 0 0 1 1-1zm3 0a1 1 0 0 1 1 1v11a1 1 0 0 1-2 0V33a1 1 0 0 1 1-1zm6 0a1 1 0 0 1 1 1v11a1 1 0 0 1-2 0V33a1 1 0 0 1 1-1zm3 0a1 1 0 0 1 1 1v11a1 1 0 0 1-2 0V33a1 1 0 0 1 1-1zM26 97a1 1 0 0 1-1-1V85a1 1 0 1 1 2 0v11a1 1 0 0 1-1 1zm3 0a1 1 0 0 1-1-1V85a1 1 0 1 1 2 0v11a1 1 0 0 1-1 1zm3 0a1 1 0 0 1-1-1V85a1 1 0 1 1 2 0v11a1 1 0 0 1-1 1zm6 0a1 1 0 0 1-1-1V85a1 1 0 1 1 2 0v11a1 1 0 0 1-1 1zm3 0a1 1 0 0 1-1-1V85a1 1 0 1 1 2 0v11a1 1 0 0 1-1 1zm64.958-27.003L106 83.608a3.103 3.103 0 0 1-.311 1.525c-.27.57-.827 1.176-1.675 1.514-.565.23-1.242.353-2.054.353H54a1 1 0 1 1 0-2h10l-.004-13.654a9.024 9.024 0 0 1-1.184-.267c-1.184-.356-2.68-1.089-3.703-2.619-.678-1.015-1.106-2.358-1.103-4.023-.003-1.664.425-3.007 1.104-4.023.677-1.017 1.578-1.688 2.446-2.12.92-.457 1.8-.665 2.444-.764V44H26.65l-.098.015a2.052 2.052 0 0 0-.38.106c-.302.117-.61.31-.814.657-.136.237-.25.567-.253 1.104 0 2.765-.105 12.126-.105 12.13a.999.999 0 0 1-.967.987l-.016.001-.084.006a5.659 5.659 0 0 0-.345.04c-.298.042-.72.123-1.18.271-.929.3-1.974.857-2.64 1.851-.447.668-.765 1.55-.768 2.832v.004c.003 1.235.302 2.096.726 2.755.426.656 1.002 1.123 1.62 1.461 1.228.68 2.605.78 2.7.78h.001a1 1 0 0 1 .966 1.002l-.013 6a1 1 0 0 1-2-.004l.011-5.115a9.532 9.532 0 0 1-1.208-.303c-1.183-.383-2.668-1.13-3.693-2.638-.679-1-1.114-2.32-1.11-3.939V64c0-.022.004-.04.004-.062l.005-.067c.02-1.562.44-2.846 1.1-3.82.676-1.005 1.572-1.677 2.433-2.12a8.765 8.765 0 0 1 2.468-.816l.043-4.153c.026-2.683.052-5.715.052-7.08 0-.837.197-1.554.53-2.116.33-.564.777-.956 1.204-1.212.86-.51 1.624-.543 1.714-.553H75a1 1 0 0 1 0 2h-9v14.436a1.002 1.002 0 0 1-.998 1l-.016.001-.083.003a6.697 6.697 0 0 0-1.512.271c-.92.276-1.953.81-2.617 1.811-.444.672-.765 1.58-.768 2.914.003 1.294.305 2.185.726 2.852.425.663.992 1.118 1.6 1.443 1.208.654 2.573.71 2.663.705h.001a1 1 0 0 1 1 1L66 85h35.96c.61 0 1.025-.094 1.3-.206.273-.113.415-.237.515-.358.197-.229.233-.546.23-.663v-.032l-.005-.09-.039-12.743a9.029 9.029 0 0 1-1.18-.269c-1.182-.359-2.675-1.098-3.69-2.635-.675-1.019-1.1-2.367-1.097-4.038-.003-1.656.424-2.994 1.101-4.004.674-1.012 1.572-1.68 2.435-2.11a8.373 8.373 0 0 1 2.43-.76V54a1 1 0 1 1 2 0v4a1.002 1.002 0 0 1-.998.999V59h-.016l-.082.003a6.767 6.767 0 0 0-1.505.269c-.916.275-1.94.805-2.6 1.8-.443.667-.762 1.567-.765 2.894.002 1.303.304 2.203.726 2.874.423.67.986 1.126 1.591 1.452 1.202.656 2.557.712 2.646.708h.001a.998.998 0 0 1 1 .997zM48 95.877V81H23.082a4.051 4.051 0 0 0-2.88 1.209A4.128 4.128 0 0 0 19 85.122v10.756c0 1.135.46 2.163 1.202 2.913a4.043 4.043 0 0 0 2.88 1.209h20.836a4.042 4.042 0 0 0 2.88-1.21A4.122 4.122 0 0 0 48 95.879zM17 85.123c.003-3.368 2.724-6.118 6.082-6.122H50v16.878c-.003 3.368-2.725 6.117-6.082 6.122H23.082c-3.358-.004-6.079-2.754-6.082-6.122V85.122zm92-41.244V33.122a4.124 4.124 0 0 0-1.203-2.913 4.05 4.05 0 0 0-2.879-1.21H84.082a4.051 4.051 0 0 0-2.88 1.21A4.128 4.128 0 0 0 80 33.122V48h24.918a4.042 4.042 0 0 0 2.88-1.21A4.122 4.122 0 0 0 109 43.879zM104.918 27c3.357.005 6.08 2.754 6.082 6.122v10.756c-.003 3.368-2.725 6.117-6.082 6.122H78V33.122c.003-3.368 2.724-6.118 6.082-6.122h20.836zM81.001 59a3.005 3.005 0 0 0 3 3 3.005 3.005 0 0 0 3-3 3.005 3.005 0 0 0-3-3 3.005 3.005 0 0 0-3 3zm-42 0a3.005 3.005 0 0 0 3 3 3.005 3.005 0 0 0 3-3 3.005 3.005 0 0 0-3-3 3.005 3.005 0 0 0-3 3zm8 0a5 5 0 1 1-10-.001A5 5 0 0 1 47 59zm.6 6.998C49.057 67.242 50 69.02 50 71a1 1 0 0 1-2 0c-.001-1.334-.624-2.555-1.701-3.483-1.076-.924-2.598-1.518-4.3-1.517-1.7-.001-3.222.593-4.297 1.517C36.622 68.445 36 69.666 36 71a1 1 0 0 1-2 0c-.001-1.98.944-3.758 2.4-5.002C37.858 64.75 39.835 64.001 42 64c2.165.001 4.143.75 5.6 1.998z"/>
    </g>
</svg>
