<?xml version="1.0" encoding="UTF-8"?>
<svg width="68px" height="69px" viewBox="0 0 68 69" version="1.1" xmlns="http://www.w3.org/2000/svg" xmlns:xlink="http://www.w3.org/1999/xlink">
    <!-- Generator: Sketch 54.1 (76490) - https://sketchapp.com -->
    <title>Out / A / Icon / Large / Feedback / icn-callback</title>
    <desc>Created with Sketch.</desc>
    <g id="IBPJ---CADASTRO" stroke="none" stroke-width="1" fill="none" fill-rule="evenodd">
        <g id="Out-/-A-/-Icon-/-Large-/-Feedback-/-icn-callback" transform="translate(-14.000000, -14.000000)" fill="#1A1B1A">
            <path d="M80,63.7607 C80,65.0447 78.956,66.0887 77.672,66.0887 L76,66.0887 L76,61.3787 C76,60.8257 75.553,60.3787 75,60.3787 C74.447,60.3787 74,60.8257 74,61.3787 L74,66.0887 L72.328,66.0887 C71.044,66.0887 70,65.0447 70,63.7607 L70,46.4167 C70,45.1327 71.044,44.0887 72.328,44.0887 L74.052,44.0887 C74.029,44.1727 74,44.2547 74,44.3457 L74,49.6977 C74,50.2497 74.447,50.6977 75,50.6977 C75.553,50.6977 76,50.2497 76,49.6977 L76,44.3457 C76,44.2547 75.971,44.1727 75.948,44.0887 L77.672,44.0887 C78.873,44.0887 79.854,45.0057 79.976,46.1757 C79.985,46.4867 80,46.7957 80,47.1087 L80,59.5947 L80,63.7607 Z M54.25,77.1537 C54.25,78.7797 52.928,80.1027 51.302,80.1027 L42.698,80.1027 C41.072,80.1027 39.75,78.7797 39.75,77.1537 L39.75,77.0507 C39.75,75.4247 41.072,74.1027 42.698,74.1027 L51.302,74.1027 C52.928,74.1027 54.25,75.4247 54.25,77.0507 L54.25,77.1537 Z M18.328,44.0887 L20.052,44.0887 C20.029,44.1727 20,44.2547 20,44.3457 L20,49.6977 C20,50.2497 20.447,50.6977 21,50.6977 C21.553,50.6977 22,50.2497 22,49.6977 L22,44.3457 C22,44.2547 21.971,44.1727 21.948,44.0887 L23.672,44.0887 C24.956,44.0887 26,45.1327 26,46.4167 L26,63.7607 C26,65.0447 24.956,66.0887 23.672,66.0887 L22,66.0887 L22,61.3787 C22,60.8257 21.553,60.3787 21,60.3787 C20.447,60.3787 20,60.8257 20,61.3787 L20,66.0887 L18.328,66.0887 C17.044,66.0887 16,65.0447 16,63.7607 L16,59.5947 L16,47.1087 C16,46.7957 16.015,46.4867 16.024,46.1757 C16.146,45.0057 17.127,44.0887 18.328,44.0887 L18.328,44.0887 Z M81.976,46.1767 C81.466,28.3517 66.428,13.9997 48,13.9997 C29.572,13.9997 14.534,28.3517 14.024,46.1767 C14.02,46.2577 14,46.3347 14,46.4167 L14,47.1087 L14,59.5947 L14,63.7607 C14,66.1477 15.941,68.0887 18.328,68.0887 L23.672,68.0887 C26.059,68.0887 28,66.1477 28,63.7607 L28,46.4167 C28,44.0307 26.059,42.0887 23.672,42.0887 L18.328,42.0887 C17.608,42.0887 16.938,42.2817 16.341,42.5947 C18.598,27.5727 31.933,15.9997 48,15.9997 C64.067,15.9997 77.402,27.5727 79.659,42.5947 C79.062,42.2817 78.392,42.0887 77.672,42.0887 L72.328,42.0887 C69.941,42.0887 68,44.0307 68,46.4167 L68,63.7607 C68,64.6937 68.303,65.5517 68.807,66.2587 L68.651,66.3797 L55.465,74.3987 C54.585,73.0227 53.053,72.1027 51.302,72.1027 L42.698,72.1027 C39.97,72.1027 37.75,74.3227 37.75,77.0507 L37.75,77.1537 C37.75,79.8827 39.97,82.1027 42.698,82.1027 L51.302,82.1027 C54.03,82.1027 56.25,79.8827 56.25,77.1537 L56.25,77.0507 C56.25,76.7957 56.212,76.5517 56.175,76.3067 L69.74,68.0587 C69.773,68.0377 69.806,68.0167 69.836,67.9917 L70.352,67.5887 C70.947,67.8977 71.612,68.0887 72.328,68.0887 L77.672,68.0887 C80.059,68.0887 82,66.1477 82,63.7607 L82,59.5947 L82,47.1087 L82,46.4167 C82,46.3347 81.98,46.2577 81.976,46.1767 L81.976,46.1767 Z" id="Shape"></path>
        </g>
    </g>
</svg>