<svg xmlns="http://www.w3.org/2000/svg" width="24" height="24" viewBox="0 0 24 24">
    <path fill="#75AE50" fill-rule="evenodd" d="M20.5 16a.5.5 0 0 1 .5.5V19a2.004 2.004 0 0 1-2 2H5a2.004 2.004 0 0 1-2-2v-2.5a.5.5 0 0 1 1 0V19c0 .275.111.522.294.706A.994.994 0 0 0 5 20h14a.994.994 0 0 0 .706-.294A.993.993 0 0 0 20 19v-2.5a.5.5 0 0 1 .5-.5zM8 15.5a.5.5 0 0 1-1 0v-7a.5.5 0 0 1 1 0v7zm2 0a.5.5 0 0 1-1 0v-7a.5.5 0 0 1 1 0v7zm2 0a.5.5 0 0 1-1 0v-7a.5.5 0 0 1 1 0v7zm3 0a.5.5 0 0 1-1 0v-7a.5.5 0 0 1 1 0v7zm2 0a.5.5 0 0 1-1 0v-7a.5.5 0 0 1 1 0v7zM19 3a2.004 2.004 0 0 1 2 2v2.5a.5.5 0 0 1-1 0V5a.993.993 0 0 0-.294-.706A.993.993 0 0 0 19 4H5a.993.993 0 0 0-.706.294A.993.993 0 0 0 4 5v2.5a.5.5 0 0 1-1 0V5a2.004 2.004 0 0 1 2-2h14z"/>
</svg>
