<svg xmlns="http://www.w3.org/2000/svg" width="24" height="24" viewBox="0 0 24 24">
    <path fill="#DC213A" fill-rule="evenodd" d="M12 4a8 8 0 1 1 0 16 8 8 0 0 1 0-16zm4.95 12.95A6.976 6.976 0 0 0 19 12a6.976 6.976 0 0 0-2.05-4.95A6.976 6.976 0 0 0 12 5a6.976 6.976 0 0 0-4.95 2.05A6.976 6.976 0 0 0 5 12c0 1.934.783 3.681 2.05 4.95A6.976 6.976 0 0 0 12 19a6.976 6.976 0 0 0 4.95-2.05zm-2.096-7.804a.5.5 0 0 1 0 .707L12.707 12l2.147 2.146a.5.5 0 1 1-.707.707L12 12.707l-2.146 2.146a.5.5 0 1 1-.707-.707L11.293 12 9.147 9.853a.5.5 0 1 1 .707-.707L12 11.293l2.147-2.147a.5.5 0 0 1 .707 0z"/>
</svg>
