<?xml version="1.0" encoding="UTF-8"?>
<svg width="20px" height="20px" viewBox="0 0 20 20" version="1.1" xmlns="http://www.w3.org/2000/svg" xmlns:xlink="http://www.w3.org/1999/xlink">
    <!-- Generator: Sketch 55.2 (78181) - https://sketchapp.com -->
    <title>A / Icon / Small / Menu / icn-menu-ajuda</title>
    <desc>Created with Sketch.</desc>
    <g id="Ãrea-Logada" stroke="none" stroke-width="1" fill="none" fill-rule="evenodd">
        <g id="MB_1.3.0_Cartao_Nao_Contratado" transform="translate(-217.000000, -394.000000)" fill="#757575">
            <g id="A-/-Icon-/-Small-/-Menu-/-icn-menu-ajuda" transform="translate(215.000000, 392.000000)">
                <path d="M12.000025,2.000025 C17.523275,2.000275 21.999775,6.476775 22.000025,12.000025 C21.999775,17.523275 17.523275,21.999525 12.000025,22.000025 C6.476775,21.999525 2.000275,17.523275 2.000025,12.000025 C2.000275,6.476775 6.476775,2.000275 12.000025,2.000025 Z M18.364025,18.364025 C19.993525,16.733775 20.999775,14.486775 21.000025,12.000025 C20.999775,9.513025 19.993525,7.266025 18.364025,5.636025 C16.733775,4.006525 14.486775,3.000275 12.000025,3.000025 C9.513275,3.000275 7.266025,4.006525 5.636025,5.636025 C4.006525,7.266025 3.000275,9.513275 3.000025,12.000025 C3.000275,14.486775 4.006525,16.733775 5.636025,18.364025 C7.266025,19.993525 9.513275,20.999775 12.000025,21.000025 C14.486775,20.999775 16.733775,19.993525 18.364025,18.364025 Z M11.6876513,14 C11.2953995,13.6727642 11.1210654,13.2743902 11.1210654,12.847561 C11.1210654,11.8943089 11.8474576,11.3963415 12.5157385,10.9268293 C13.1549637,10.5 13.7506053,10.101626 13.7506053,9.37601626 C13.7506053,8.66463415 13.1840194,8.05284553 12.0363196,8.05284553 C10.9467312,8.05284553 10.2639225,8.52235772 9.72639225,9.2195122 L9,8.45121951 C9.69733656,7.56910569 10.7723971,7 12.1525424,7 C13.9249395,7 15,7.98170732 15,9.20528455 C15,10.4004065 14.1428571,10.9837398 13.3728814,11.5101626 C12.748184,11.9369919 12.1815981,12.3069106 12.1815981,12.9329268 C12.1815981,13.1605691 12.3268765,13.445122 12.5738499,13.6300813 L11.6876513,14 Z M12,17 C11.4545455,17 11,16.5454545 11,16 C11,15.4545455 11.4545455,15 12,15 C12.5454545,15 13,15.4545455 13,16 C13,16.5454545 12.5454545,17 12,17 Z" id="Shape"></path>
            </g>
        </g>
    </g>
</svg>