<svg xmlns="http://www.w3.org/2000/svg" width="128" height="128" viewBox="0 0 128 128">
    <g fill="none" fill-rule="evenodd">
        <path fill="#D6D6D6" d="M64 126c34.242 0 62-27.758 62-62 0-34.242-27.758-62-62-62C29.758 2 2 29.758 2 64c0 34.242 27.758 62 62 62zm0 2C28.654 128 0 99.346 0 64 0 28.654 28.654 0 64 0c35.346 0 64 28.654 64 64 0 35.346-28.654 64-64 64z"/>
        <path fill="#75AE50" d="M40 31h48v-6a3.005 3.005 0 0 0-3-3H43a3.005 3.005 0 0 0-3 3v6zm45-11a5 5 0 0 1 5 5v17a1 1 0 0 1-2 0v-9H40v9a1 1 0 0 1-2 0V25a5 5 0 0 1 5-5h42zm-13.5 6a1 1 0 0 1 0 2h-15a1 1 0 0 1 0-2h15zm-20-.5a1.5 1.5 0 1 1 .001 2.999A1.5 1.5 0 0 1 51.5 25.5zM85 106a3.005 3.005 0 0 0 3-3v-9H40v9a3.005 3.005 0 0 0 3 3h42zm4-21a1 1 0 0 1 1 1v17a5 5 0 0 1-5 5H43a5 5 0 0 1-5-5V86a1 1 0 0 1 2 0v6h48v-6a1 1 0 0 1 1-1zm-25 17a2.003 2.003 0 0 0 2-2 2.003 2.003 0 0 0-2-2 2.003 2.003 0 0 0-2 2 2.003 2.003 0 0 0 2 2zm0-6a4 4 0 1 1 0 8 4 4 0 0 1 0-8zm14-38a1 1 0 0 1-1-1v-5.651a.342.342 0 0 0-.103-.246.341.341 0 0 0-.244-.103H50.347a.341.341 0 0 0-.244.103.342.342 0 0 0-.103.246V57a1 1 0 0 1-2 0v-5.651A2.35 2.35 0 0 1 50.347 49h26.306A2.35 2.35 0 0 1 79 51.349V57a1 1 0 0 1-1 1zM48 76.651v-5.65a1 1 0 1 1 2 0v5.65c0 .096.037.178.103.246a.345.345 0 0 0 .244.103h26.306a.345.345 0 0 0 .244-.103.344.344 0 0 0 .103-.246v-5.65a1 1 0 1 1 2 0v5.65a2.35 2.35 0 0 1-2.347 2.35H50.347A2.35 2.35 0 0 1 48 76.65zM54 57a1 1 0 0 1 2 0v14a1 1 0 0 1-2 0V57zm3 0a1 1 0 0 1 2 0v14a1 1 0 0 1-2 0V57zm3 0a1 1 0 0 1 2 0v14a1 1 0 0 1-2 0V57zm8 0a1 1 0 0 1 2 0v14a1 1 0 0 1-2 0V57zm3 0a1 1 0 0 1 2 0v14a1 1 0 0 1-2 0V57zm14 0v-.5a1 1 0 0 1 2 0v.5a1 1 0 0 1-2 0zm0-4.688a1 1 0 0 1 2 0v1.047a1 1 0 0 1-2 0v-1.047zM108.349 51a1 1 0 0 1 0-2h1.047a1 1 0 1 1 0 2h-1.047zm-19.894-2a1 1 0 0 1 0 2h-1.047a1 1 0 0 1 0-2h1.047zm3.141 2a1 1 0 0 1 0-2h1.047a1 1 0 1 1 0 2h-1.047zm23.404.304a1 1 0 0 1 1 1v1.047a1 1 0 1 1-2 0v-1.047a1 1 0 0 1 1-1zM112.537 51a1 1 0 1 1 0-2h1.047a1 1 0 0 1 0 2h-1.047zm-8.376 0a1 1 0 0 1 0-2h1.047a1 1 0 0 1 0 2h-1.047zm-8.377 0a1 1 0 0 1 0-2h1.047a1 1 0 1 1 0 2h-1.047zm4.189 0a1 1 0 0 1 0-2h1.047a1 1 0 0 1 0 2h-1.047zM115 55.5a1 1 0 0 1 1 1v.5a1 1 0 0 1-2 0v-.5a1 1 0 0 1 1-1zm0 14.5a1 1 0 0 1 1 1v.5a1 1 0 0 1-2 0V71a1 1 0 0 1 1-1zm-27.584 7h1.047a1 1 0 1 1 0 2h-1.047a1 1 0 0 1 0-2zM85 75.696V74.65a1 1 0 1 1 2 0v1.047a1 1 0 0 1-2 0zM113.592 77a1 1 0 0 1 0 2h-1.047a1 1 0 0 1 0-2h1.047zm-20.94 0a1 1 0 0 1 0 2h-1.048a1 1 0 1 1 0-2h1.047zm4.187 0a1 1 0 0 1 0 2h-1.047a1 1 0 0 1 0-2h1.047zm4.188 0a1 1 0 0 1 0 2H99.98a1 1 0 0 1 0-2h1.047zm4.189 0a1 1 0 0 1 0 2h-1.047a1 1 0 1 1 0-2h1.047zm4.188 0a1 1 0 0 1 0 2h-1.047a1 1 0 1 1 0-2h1.047zM115 73.641a1 1 0 0 1 1 1v1.047a1 1 0 0 1-2 0v-1.047a1 1 0 0 1 1-1zM85 71.5V71a1 1 0 0 1 2 0v.5a1 1 0 0 1-2 0zM93 57v.5a1 1 0 0 1-2 0V57a1 1 0 0 1 2 0zm0 8.857v.928a1 1 0 0 1-2 0v-.928a1 1 0 1 1 2 0zm0-4.643v.93a1 1 0 0 1-2 0v-.93a1 1 0 0 1 2 0zM92 69.5a1 1 0 0 1 1 1v.5a1 1 0 0 1-2 0v-.5a1 1 0 0 1 1-1zm3-11a1 1 0 0 1-1-1V57a1 1 0 0 1 2 0v.5a1 1 0 0 1-1 1zm0 9.286a1 1 0 0 1-1-1v-.928a1 1 0 1 1 2 0v.928a1 1 0 0 1-1 1zm0-4.643a1 1 0 0 1-1-1v-.929a1 1 0 0 1 2 0v.93a1 1 0 0 1-1 1zM96 71a1 1 0 0 1-2 0v-.5a1 1 0 0 1 2 0v.5zm1-14a1 1 0 0 1 2 0v.5a1 1 0 0 1-2 0V57zm1 7.857a1 1 0 0 1 1 1v.928a1 1 0 0 1-2 0v-.928a1 1 0 0 1 1-1zm1-3.643v.93a1 1 0 0 1-2 0v-.93a1 1 0 0 1 2 0zm0 9.286v.5a1 1 0 0 1-2 0v-.5a1 1 0 0 1 2 0zm7-14.5a1 1 0 0 1 1 1v.5a1 1 0 0 1-2 0V57a1 1 0 0 1 1-1zm0 8.857a1 1 0 0 1 1 1v.928a1 1 0 0 1-2 0v-.928a1 1 0 0 1 1-1zm0-4.643a1 1 0 0 1 1 1v.93a1 1 0 0 1-2 0v-.93a1 1 0 0 1 1-1zm0 9.286a1 1 0 0 1 1 1v.5a1 1 0 0 1-2 0v-.5a1 1 0 0 1 1-1zm4-12.5v.5a1 1 0 0 1-2 0V57a1 1 0 0 1 2 0zm0 4.214v.93a1 1 0 0 1-2 0v-.93a1 1 0 0 1 2 0zm0 4.643v.928a1 1 0 0 1-2 0v-.928a1 1 0 1 1 2 0zm-1 3.643a1 1 0 0 1 1 1v.5a1 1 0 0 1-2 0v-.5a1 1 0 0 1 1-1zM12 58a1 1 0 0 1-1-1v-.5a1 1 0 0 1 2 0v.5a1 1 0 0 1-1 1zm13.972-7a1 1 0 0 1 0-2h1.047a1 1 0 1 1 0 2h-1.047zM12 53.312a1 1 0 0 1-1-1v-.963l.004-.145a1 1 0 0 1 1.996.123v.985a1 1 0 0 1-1 1zM15.502 51a1 1 0 0 1 0-2h1.047a1 1 0 1 1 0 2h-1.047zM42 51.349v.955a1 1 0 0 1-2 0v-.955l-.001-.024a1 1 0 0 1 1.996-.136l.005.16zM36.443 51a1 1 0 0 1 0-2h1.047a1 1 0 0 1 0 2h-1.047zm-15.706 0a1 1 0 0 1 0-2h1.047a1 1 0 0 1 0 2h-1.047zm10.47 0a1 1 0 0 1 0-2h1.047a1 1 0 0 1 0 2h-1.046zM42 56.5v.5a1 1 0 0 1-2 0v-.5a1 1 0 0 1 2 0zM42 71v.5a1 1 0 0 1-2 0V71a1 1 0 0 1 2 0zm-29 4.696v.955l.001.024a1 1 0 0 1-1.996.136l-.005-.16v-.955a1 1 0 0 1 2 0zM27.028 77a1 1 0 0 1 0 2H25.98a1 1 0 1 1 0-2h1.047zm5.235 0a1 1 0 0 1 0 2h-1.047a1 1 0 0 1 0-2h1.047zM41 74.688a1 1 0 0 1 1 1v.963l-.004.145A1 1 0 0 1 40 76.673v-.985a1 1 0 0 1 1-1zM21.793 77a1 1 0 0 1 0 2h-1.047a1 1 0 0 1 0-2h1.047zm-5.236 0a1 1 0 0 1 0 2H15.51a1 1 0 0 1 0-2h1.047zm21.941 1a1 1 0 0 1-1 1h-1.047a1 1 0 1 1 0-2h1.047a1 1 0 0 1 1 1zM12 72.5a1 1 0 0 1-1-1V71a1 1 0 0 1 2 0v.5a1 1 0 0 1-1 1zM18 56a1 1 0 0 1 1 1v.5a1 1 0 0 1-2 0V57a1 1 0 0 1 1-1zm0 8.857a1 1 0 0 1 1 1v.928a1 1 0 0 1-2 0v-.928a1 1 0 0 1 1-1zm0-4.643a1 1 0 0 1 1 1v.93a1 1 0 0 1-2 0v-.93a1 1 0 0 1 1-1zm0 9.286a1 1 0 0 1 1 1v.5a1 1 0 0 1-2 0v-.5a1 1 0 0 1 1-1zM22 57v.5a1 1 0 0 1-2 0V57a1 1 0 0 1 2 0zm0 4.214v.93a1 1 0 0 1-2 0v-.93a1 1 0 0 1 2 0zm0 4.643v.928a1 1 0 0 1-2 0v-.928a1 1 0 1 1 2 0zM21 69.5a1 1 0 0 1 1 1v.5a1 1 0 0 1-2 0v-.5a1 1 0 0 1 1-1zm3-11a1 1 0 0 1-1-1V57a1 1 0 0 1 2 0v.5a1 1 0 0 1-1 1zm0 9.286a1 1 0 0 1-1-1v-.928a1 1 0 1 1 2 0v.928a1 1 0 0 1-1 1zm0-4.643a1 1 0 0 1-1-1v-.929a1 1 0 0 1 2 0v.93a1 1 0 0 1-1 1zm1 7.357v.5a1 1 0 0 1-2 0v-.5a1 1 0 0 1 2 0zM33 57v.5a1 1 0 0 1-2 0V57a1 1 0 0 1 2 0zm0 4.214v.93a1 1 0 0 1-2 0v-.93a1 1 0 0 1 2 0zm0 4.643v.928a1 1 0 0 1-2 0v-.928a1 1 0 1 1 2 0zM32 69.5a1 1 0 0 1 1 1v.5a1 1 0 0 1-2 0v-.5a1 1 0 0 1 1-1zm3-11a1 1 0 0 1-1-1V57a1 1 0 0 1 2 0v.5a1 1 0 0 1-1 1zm0 9.286a1 1 0 0 1-1-1v-.928a1 1 0 1 1 2 0v.928a1 1 0 0 1-1 1zm0-4.643a1 1 0 0 1-1-1v-.929a1 1 0 0 1 2 0v.93a1 1 0 0 1-1 1zM36 71a1 1 0 0 1-2 0v-.5a1 1 0 0 1 2 0v.5z"/>
    </g>
</svg>
