<svg xmlns="http://www.w3.org/2000/svg" xmlns:xlink="http://www.w3.org/1999/xlink" width="24" height="24" viewBox="0 0 24 24">
    <defs>
        <path id="a" d="M17.541 8.002a.5.5 0 0 0-.54.456l-.885 10.625a1 1 0 0 1-.996.917H8.88a1 1 0 0 1-.996-.917L6.998 8.458a.5.5 0 0 0-.996.083l.885 10.625A2 2 0 0 0 8.88 21h6.24a2 2 0 0 0 1.993-1.834l.885-10.625a.5.5 0 0 0-.457-.54M19.5 6a.5.5 0 0 1 0 1h-15a.5.5 0 0 1 0-1H8V5a2 2 0 0 1 2-2h4a2 2 0 0 1 2 2v1h3.5zM9 5v1h6V5a.995.995 0 0 0-.293-.707A.993.993 0 0 0 14 4h-4a.993.993 0 0 0-.707.293A.994.994 0 0 0 9 5z"/>
    </defs>
    <g fill="none" fill-rule="evenodd">
        <mask id="b" fill="#fff">
            <use xlink:href="#a"/>
        </mask>
        <use fill="#75AE50" xlink:href="#a"/>
        <g fill="#75AE50" mask="url(#b)">
            <path d="M0 0h24v24H0z"/>
        </g>
    </g>
</svg>
