<svg xmlns="http://www.w3.org/2000/svg" xmlns:xlink="http://www.w3.org/1999/xlink" width="64" height="64" viewBox="0 0 64 64">
    <defs>
        <path id="a" d="M32 64C14.327 64 0 49.673 0 32 0 14.327 14.327 0 32 0c17.673 0 32 14.327 32 32 0 17.673-14.327 32-32 32zm0-1c17.12 0 31-13.88 31-31C63 14.88 49.12 1 32 1 14.88 1 1 14.88 1 32c0 17.12 13.88 31 31 31zm11.667-41A3.342 3.342 0 0 1 47 25.333V39.62a3.342 3.342 0 0 1-3.333 3.333H20.333A3.342 3.342 0 0 1 17 39.62V25.333A3.342 3.342 0 0 1 20.333 22h23.334zm2.38 17.619V25.333c0-.37-.092-.717-.246-1.03l-11.017 9.501a4.282 4.282 0 0 1-5.576.012l.002.002-11.084-9.363a2.36 2.36 0 0 0-.174.878V39.62c0 .654.268 1.247.7 1.681.434.433 1.027.7 1.681.7h23.334c.654 0 1.247-.267 1.68-.7.433-.434.7-1.027.7-1.681zM20.334 22.952c-.654 0-1.247.268-1.68.7h-.001l11.173 9.438.002.002a3.321 3.321 0 0 0 2.162.797c.775 0 1.549-.269 2.173-.807l11.058-9.535a2.355 2.355 0 0 0-1.553-.595H20.333z"/>
    </defs>
    <use fill="#75AE50" fill-rule="nonzero" xlink:href="#a"/>
</svg>
