<svg xmlns="http://www.w3.org/2000/svg" width="40" height="40" viewBox="0 0 40 40">
    <g fill="none" fill-rule="evenodd">
        <circle cx="20" cy="20" r="19.5" stroke="#75AE50"/>
        <path fill="#75AE50" d="M27 27H13c-.552 0-1-.448-1-1v-4.27c.294.17.636.27 1 .27h5v.25c0 .413.337.75.75.75h2.5a.75.75 0 0 0 .75-.75V22h5c.364 0 .706-.1 1-.27V26c0 .552-.448 1-1 1zm-8-5h2v-1h-2v1zm-7-6c0-.552.448-1 1-1h14c.552 0 1 .448 1 1v4c0 .552-.448 1-1 1h-5v-.25a.75.75 0 0 0-.75-.75h-2.5a.75.75 0 0 0-.75.75V21h-5c-.552 0-1-.448-1-1v-4zm7-3h2c.552 0 1 .448 1 1h-4c0-.552.448-1 1-1zm8 1h-4c0-1.103-.897-2-2-2h-2c-1.103 0-2 .897-2 2h-4c-1.103 0-2 .897-2 2v10c0 1.103.897 2 2 2h14c1.103 0 2-.897 2-2V16c0-1.103-.897-2-2-2z"/>
    </g>
</svg>
