<svg xmlns="http://www.w3.org/2000/svg" width="96" height="96" viewBox="0 0 96 96">
    <g fill="#73AF4A" fill-rule="evenodd">
        <path d="M48 0C21.49 0 0 21.49 0 48s21.49 48 48 48 48-21.49 48-48S74.51 0 48 0m0 2c25.364 0 46 20.636 46 46S73.364 94 48 94 2 73.364 2 48 22.636 2 48 2"/>
        <path d="M74 66H42a1 1 0 1 1 0-2h32c1.654 0 3-1.346 3-3V35c0-1.654-1.346-3-3-3H52a1 1 0 1 1 0-2h22c2.757 0 5 2.243 5 5v26c0 2.757-2.243 5-5 5"/>
        <path d="M61.476 55.863c-1.016.971-2.36 1.562-4.032 1.78v1.915c0 .361-.104.648-.311.861-.204.218-.481.327-.823.327-.341 0-.615-.109-.822-.327-.206-.213-.31-.5-.31-.86v-1.864a12.4 12.4 0 0 1-3.114-.66c-1-.352-1.85-.833-2.551-1.442-.342-.252-.513-.614-.513-1.082 0-.32.086-.594.256-.822.17-.222.383-.335.634-.335.253 0 .558.116.918.351 1.726 1.17 3.47 1.751 5.232 1.751 1.332 0 2.362-.27 3.089-.807.729-.539 1.093-1.304 1.093-2.295 0-.592-.193-1.072-.578-1.44-.39-.37-.874-.66-1.458-.88-.585-.213-1.39-.447-2.415-.699-1.35-.344-2.445-.684-3.291-1.026a5.478 5.478 0 0 1-2.172-1.59c-.602-.722-.903-1.672-.903-2.86 0-1.457.526-2.693 1.578-3.709 1.053-1.016 2.44-1.623 4.17-1.823V36.44c0-.358.1-.647.307-.86.207-.217.482-.325.824-.325.34 0 .616.108.825.324.204.214.307.503.307.861v1.888c.92.093 1.794.312 2.63.663.837.35 1.578.82 2.226 1.416.359.288.54.647.54 1.08 0 .305-.091.572-.268.81-.18.23-.398.35-.647.35-.255 0-.56-.12-.92-.35-.771-.597-1.51-1.036-2.212-1.324-.701-.287-1.528-.43-2.481-.43-1.242 0-2.23.287-2.967.86-.738.578-1.107 1.36-1.107 2.347 0 .668.207 1.205.62 1.621.415.413.927.732 1.539.957.61.223 1.447.464 2.508.715 1.313.324 2.374.652 3.183.985a5.384 5.384 0 0 1 2.077 1.51c.575.673.863 1.587.863 2.736 0 1.423-.508 2.616-1.524 3.59M32.728 49H13.59a1 1 0 1 1 0-2H32.73a1 1 0 1 1 0 2M41.5 37H22.362a1 1 0 1 1 0-2H41.5a1 1 0 1 1 0 2M32.728 61H22.362a1 1 0 1 1 0-2h10.366a1 1 0 1 1 0 2"/>
    </g>
</svg>
