<svg xmlns="http://www.w3.org/2000/svg" width="96" height="96" viewBox="0 0 96 96">
    <path fill="#AFAFAF" fill-rule="evenodd" d="M48 0c26.51 0 48 21.49 48 48S74.51 96 48 96 0 74.51 0 48 21.49 0 48 0zm0 94c25.364 0 46-20.636 46-46S73.364 2 48 2 2 22.636 2 48s20.636 46 46 46zm23-31.974a1 1 0 1 1 2 0V70a3.001 3.001 0 0 1-3 3H26a3 3 0 0 1-3-3V26a3 3 0 0 1 3-3h2.911a5.62 5.62 0 0 1 5.575-4.932A5.62 5.62 0 0 1 40.062 23h15.741a5.62 5.62 0 0 1 5.575-4.932A5.62 5.62 0 0 1 66.953 23H70a3 3 0 0 1 3 3v7a.993.993 0 0 1-.293.707A.991.991 0 0 1 72 34H25v36c.001.552.448.999 1 1h44a1.002 1.002 0 0 0 1-1v-7.974zM29.023 25H26a1.002 1.002 0 0 0-1 1v6h46v-6a1.002 1.002 0 0 0-1-1H58.009c.183.471.455.897.807 1.251a3.61 3.61 0 0 0 2.562 1.061 1 1 0 0 1 0 2A5.62 5.62 0 0 1 55.916 25H31.117c.184.471.455.897.808 1.251a3.604 3.604 0 0 0 2.561 1.061 1 1 0 1 1 0 2A5.621 5.621 0 0 1 29.023 25zm2.902-3.871A3.605 3.605 0 0 0 30.934 23h7.105a3.614 3.614 0 0 0-3.553-2.932 3.604 3.604 0 0 0-2.561 1.061zm26.891 0A3.613 3.613 0 0 0 57.825 23h7.106a3.614 3.614 0 0 0-3.553-2.932 3.61 3.61 0 0 0-2.562 1.061zM46.561 61.721c-.179-.187-.267-.435-.267-.746V59.37a10.666 10.666 0 0 1-2.67-.571c-.855-.303-1.584-.718-2.185-1.245-.293-.218-.439-.528-.439-.931 0-.28.072-.517.219-.71.147-.195.327-.292.543-.292.216 0 .479.1.787.302 1.479 1.01 2.974 1.514 4.486 1.514 1.14 0 2.023-.233 2.647-.699.624-.465.936-1.125.936-1.979 0-.512-.165-.927-.496-1.245a3.565 3.565 0 0 0-1.25-.756c-.5-.187-1.19-.388-2.069-.606-1.156-.295-2.096-.59-2.822-.885a4.679 4.679 0 0 1-1.86-1.372c-.517-.622-.775-1.445-.775-2.469 0-1.257.45-2.323 1.353-3.201.902-.876 2.093-1.4 3.572-1.571v-1.63c0-.31.09-.56.267-.745.176-.186.412-.279.704-.279.293 0 .528.093.706.28.176.185.265.433.265.745v1.629a7.686 7.686 0 0 1 2.254.57c.718.304 1.354.71 1.909 1.222.308.249.462.56.462.931 0 .265-.077.497-.23.699-.156.202-.34.303-.556.303-.216 0-.478-.1-.786-.303-.664-.512-1.296-.892-1.896-1.14-.6-.248-1.31-.373-2.128-.373-1.063 0-1.911.249-2.543.745-.632.497-.947 1.173-.947 2.026 0 .573.176 1.04.53 1.396.355.358.794.633 1.318.827.526.194 1.241.4 2.15.617 1.126.28 2.036.562 2.73.849a4.63 4.63 0 0 1 1.78 1.304c.493.581.74 1.37.74 2.363 0 1.226-.436 2.258-1.306 3.097-.872.837-2.023 1.35-3.458 1.536v1.652c0 .31-.088.56-.265.746-.178.186-.413.279-.705.279-.293 0-.528-.093-.705-.28zm34.144-10.192a2.984 2.984 0 0 1-.455 3.554 2.976 2.976 0 0 1-2.16.917H65.91a2.983 2.983 0 0 1-2.161-.916 3.02 3.02 0 0 1-.843-2.087c0-.486.122-.992.38-1.453l6.05-10.9a2.987 2.987 0 0 1 2.624-1.545 2.986 2.986 0 0 1 2.615 1.53l6.13 10.9zm-1.897 2.17c.18-.188.287-.448.286-.702a.989.989 0 0 0-.131-.487l-6.133-10.9a.977.977 0 0 0-.871-.51.978.978 0 0 0-.874.514l-6.052 10.902a.98.98 0 0 0-.128.481 1.02 1.02 0 0 0 .286.701.972.972 0 0 0 .718.302H78.09a.973.973 0 0 0 .717-.302zM72 45a1 1 0 0 1 1 1v2a1 1 0 1 1-2 0v-2a1 1 0 0 1 1-1zm0 5a1 1 0 1 1 0 2 1 1 0 0 1 0-2z"/>
</svg>
