<svg xmlns="http://www.w3.org/2000/svg" width="128" height="128" viewBox="0 0 128 128">
    <g fill="none" fill-rule="evenodd">
        <circle cx="64" cy="64" r="63" stroke="#D6D6D6" stroke-width="2"/>
        <path fill="#75AE50" d="M97 88.001a4.981 4.981 0 0 1-1.464 3.535A4.982 4.982 0 0 1 92.001 93H35.999a4.982 4.982 0 0 1-3.535-1.464A4.981 4.981 0 0 1 31 88.001V68.894A6.984 6.984 0 0 0 36 71h21v2a2 2 0 0 0 2 2h10a2 2 0 0 0 2-2v-2h21a6.984 6.984 0 0 0 5-2.106v19.107zM59 73h10v-6H59v6zM31 47.998a4.98 4.98 0 0 1 1.464-3.535A4.977 4.977 0 0 1 35.999 43H92.001c1.384 0 2.627.557 3.535 1.463A4.98 4.98 0 0 1 97 47.998V64a4.98 4.98 0 0 1-1.464 3.535A4.987 4.987 0 0 1 92 69H71v-2a2 2 0 0 0-2-2H59a2 2 0 0 0-2 2v2H36a4.987 4.987 0 0 1-3.536-1.465A4.98 4.98 0 0 1 31 64V47.998zM55 40a4.98 4.98 0 0 1 1.464-3.536A4.982 4.982 0 0 1 60 35h8c1.384 0 2.627.558 3.536 1.464A4.98 4.98 0 0 1 73 40v1H55v-1zm37.001 1H75v-1a7 7 0 0 0-7-7h-8a7 7 0 0 0-7 7v1H35.999A6.997 6.997 0 0 0 29 47.998v40.003A6.999 6.999 0 0 0 35.999 95h56.002A6.999 6.999 0 0 0 99 88.001V47.998A6.997 6.997 0 0 0 92.001 41z"/>
    </g>
</svg>
