<svg xmlns="http://www.w3.org/2000/svg" width="96" height="96" viewBox="0 0 96 96">
    <path fill="#AFAFAF" fill-rule="evenodd" d="M48 0c26.51 0 48 21.49 48 48S74.51 96 48 96 0 74.51 0 48 21.49 0 48 0zm0 94c25.364 0 46-20.636 46-46S73.364 2 48 2 2 22.636 2 48s20.636 46 46 46zm0-73c14.912 0 27 12.088 27 27S62.912 75 48 75 21 62.912 21 48s12.088-27 27-27zm0 52c13.785 0 25-11.215 25-25S61.785 23 48 23 23 34.215 23 48s11.215 25 25 25zm1-25h13a1 1 0 0 1 0 2H48a1.003 1.003 0 0 1-1-1V34a1 1 0 0 1 2 0v14z"/>
</svg>
