<svg xmlns="http://www.w3.org/2000/svg" width="32" height="32" viewBox="0 0 32 32">
    <g fill="#75AE50" fill-rule="evenodd">
        <path d="M25.009 4H6.99A2.997 2.997 0 0 0 4 7v13c0 1.664 1.34 3 2.99 3h12.573L28 28V7c0-1.664-1.34-3-2.991-3m0 1.5c.822 0 1.49.673 1.49 1.5v18.368l-6.172-3.659a1.498 1.498 0 0 0-.764-.209H6.99A1.497 1.497 0 0 1 5.5 20V7c0-.827.669-1.5 1.49-1.5H25.01"/>
        <path fill-rule="nonzero" d="M21.5 14a.5.5 0 1 0 0-1 .5.5 0 0 0 0 1zm0 1.5a2 2 0 1 1 0-4 2 2 0 0 1 0 4zM16 14a.5.5 0 1 0 0-1 .5.5 0 0 0 0 1zm0 1.5a2 2 0 1 1 0-4 2 2 0 0 1 0 4zM10.5 14a.5.5 0 1 0 0-1 .5.5 0 0 0 0 1zm0 1.5a2 2 0 1 1 0-4 2 2 0 0 1 0 4z"/>
    </g>
</svg>
