<svg xmlns="http://www.w3.org/2000/svg" width="24" height="24" viewBox="0 0 24 24">
    <path fill="#75AE50" fill-rule="evenodd" d="M12 4a8 8 0 1 1 0 16 8 8 0 0 1 0-16zm4.95 12.95A6.976 6.976 0 0 0 19 12a6.976 6.976 0 0 0-2.05-4.95A6.976 6.976 0 0 0 12 5a6.976 6.976 0 0 0-4.95 2.05A6.976 6.976 0 0 0 5 12c0 1.934.783 3.681 2.05 4.95A6.976 6.976 0 0 0 12 19a6.976 6.976 0 0 0 4.95-2.05zM15.425 9.1a.5.5 0 0 1 .1.7l-3.75 5a.5.5 0 0 1-.753.054l-1.875-1.875a.5.5 0 1 1 .707-.707l1.467 1.467 3.404-4.54a.5.5 0 0 1 .7-.099z"/>
</svg>
