<svg xmlns="http://www.w3.org/2000/svg" width="96" height="96" viewBox="0 0 96 96">
    <path fill="#75AE50" fill-rule="evenodd" d="M48 0c26.51 0 48 21.49 48 48S74.51 96 48 96 0 74.51 0 48 21.49 0 48 0zm0 94c25.364 0 46-20.636 46-46S73.364 2 48 2 2 22.636 2 48s20.636 46 46 46zm24.544-41c0 1.467-.678 2.761-1.711 3.66.396.693.646 1.483.645 2.34a4.82 4.82 0 0 1-1.39 3.371 5.302 5.302 0 0 1-2.018 1.267c.133.43.207.886.207 1.362a4.919 4.919 0 0 1-.431 1.989C67.006 68.888 65.09 70 63.086 70H44.219a9.811 9.811 0 0 1-6.132-2.151l-1.406-1.124a1 1 0 1 1 1.249-1.561l1.406 1.124A7.82 7.82 0 0 0 44.218 68h18.869c1.272 0 2.452-.716 2.928-1.814.187-.43.262-.82.262-1.186 0-.539-.165-1.042-.46-1.505a.999.999 0 0 1 .744-1.533 3.383 3.383 0 0 0 2.095-.987c.52-.537.82-1.217.822-1.975-.001-.714-.282-1.362-.77-1.904a1.002 1.002 0 0 1 .255-1.544c.97-.548 1.58-1.489 1.58-2.552 0-.758-.301-1.438-.82-1.975a3.386 3.386 0 0 0-2.095-.987 1 1 0 0 1-.744-1.533c.295-.463.459-.966.46-1.505a2.942 2.942 0 0 0-.262-1.185C66.606 44.716 65.426 44 64.154 44H57a1.003 1.003 0 0 1-1-1V30.769c-.008-1.948-.607-3.152-1.373-4.003-.77-.846-1.766-1.325-2.557-1.562-.516-.16-.967-.207-1.07-.204-.2.007-.372.067-.588.344-.207.277-.413.812-.412 1.656v6.459c0 .14-.028.273-.084.401l-2.268 5.179v-.001c-.986 2.442-2.91 4.48-5.454 5.388-2.058.726-3.832 2.333-5.03 3.731A8.155 8.155 0 0 1 30.985 51H27v16a1 1 0 0 1-2 0V49H15a1 1 0 0 1 0-2h11a1.003 1.003 0 0 1 1 1v1h3.985c1.793 0 3.49-.785 4.664-2.148 1.332-1.541 3.304-3.389 5.875-4.31 1.946-.69 3.488-2.295 4.28-4.276l.012-.03L48 33.25V27c0-1.156.273-2.121.803-2.844.523-.723 1.349-1.163 2.197-1.156.303.002.676.047 1.15.156.473.11 1.027.285 1.612.559 1.165.543 2.47 1.5 3.323 3.091.567 1.056.917 2.377.915 3.963V42h6.154c2.003 0 3.919 1.112 4.759 3.011.292.666.43 1.341.43 1.989 0 .476-.074.932-.206 1.362.769.276 1.466.7 2.018 1.267A4.816 4.816 0 0 1 72.544 53zM76 31a1 1 0 0 1 0 2h-2v2a1 1 0 0 1-2 0v-2h-2a1 1 0 0 1 0-2h2v-2a1 1 0 0 1 2 0v2h2zm-43-9a1 1 0 0 1 0-2h2v-2a1 1 0 0 1 2 0v2h2a1 1 0 0 1 0 2h-2v2a1 1 0 0 1-2 0v-2h-2zM20.5 51a1.5 1.5 0 1 1 .001 2.999A1.5 1.5 0 0 1 20.5 51z"/>
</svg>
