<svg xmlns="http://www.w3.org/2000/svg" width="96" height="96" viewBox="0 0 96 96">
    <path fill="#74AD50" fill-rule="evenodd" d="M48 0c26.51 0 48 21.49 48 48S74.51 96 48 96 0 74.51 0 48 21.49 0 48 0zm0 94c25.364 0 46-20.636 46-46S73.364 2 48 2 2 22.636 2 48s20.636 46 46 46zm20.028-24.112a1 1 0 0 1 .449 1.341A5.003 5.003 0 0 1 64 74H32a5 5 0 0 1-5-5V43a5 5 0 0 1 5-5h2v-8c0-7.732 6.268-14 14-14s14 6.268 14 14v8h2a4.995 4.995 0 0 1 4.329 2.498 1 1 0 1 1-1.73 1.002A3 3 0 0 0 64 40H32a3.005 3.005 0 0 0-3 3v26a3.005 3.005 0 0 0 3 3h32a3.001 3.001 0 0 0 2.687-1.663 1 1 0 0 1 1.341-.449zM21.963 27.146l3.688 3.156a1 1 0 0 1-1.301 1.52l-3.688-3.155a1.001 1.001 0 0 1 1.3-1.52zM29 31a1 1 0 0 1-1-1v-4a1 1 0 0 1 2 0v4a1 1 0 0 1-1 1zm-5 3a1 1 0 0 1 0 2h-4a1 1 0 0 1 0-2h4zm48 12c5.524 0 10 4.477 10 10 0 5.524-4.476 10-10 10-5.523 0-10-4.476-10-10 0-5.523 4.477-10 10-10zm5.657 15.657A7.969 7.969 0 0 0 80 56a7.966 7.966 0 0 0-2.343-5.656A7.97 7.97 0 0 0 72 48a7.967 7.967 0 0 0-5.656 2.344A7.967 7.967 0 0 0 64 56a7.97 7.97 0 0 0 2.344 5.657A7.966 7.966 0 0 0 72 64a7.969 7.969 0 0 0 5.657-2.343zM51.5 54.5a3.488 3.488 0 0 1-2.5 3.337V61a1 1 0 1 1-2 0v-3.163a3.49 3.49 0 0 1-2.5-3.336l1-.001h-1a3.5 3.5 0 1 1 7 0zM48 56a1.501 1.501 0 0 0 0-3 1.5 1.5 0 0 0 0 3zM36 30v8h2v-8c0-5.523 4.477-10 10-10s10 4.477 10 10v8h2v-8c0-3.317-1.342-6.311-3.515-8.485A11.955 11.955 0 0 0 48 18a11.955 11.955 0 0 0-8.485 3.515A11.955 11.955 0 0 0 36 30zm20 8v-8a7.97 7.97 0 0 0-2.343-5.657A7.97 7.97 0 0 0 48 22a7.97 7.97 0 0 0-5.657 2.343A7.97 7.97 0 0 0 40 30v8h16zm18.22 15.376a1 1 0 1 1 1.562 1.249l-4 5a.998.998 0 0 1-1.489.083l-2-2a1 1 0 1 1 1.414-1.416l1.21 1.21 3.302-4.127z"/>
</svg>
