<svg xmlns="http://www.w3.org/2000/svg" width="38" height="37" viewBox="0 0 38 37">
    <g fill="none" fill-rule="evenodd">
        <g>
            <circle cx="19" cy="18.5" r="18" stroke="#D6D6D6"/>
            <path fill="#75AE50" d="M22.911 23.552c-.725.686-1.685 1.103-2.88 1.257v1.352c0 .255-.074.458-.222.608-.145.154-.343.231-.588.231a.777.777 0 0 1-.587-.23c-.147-.151-.221-.354-.221-.609v-1.315a8.946 8.946 0 0 1-2.224-.467c-.715-.248-1.322-.588-1.823-1.018-.244-.177-.366-.433-.366-.764 0-.226.061-.419.183-.58a.557.557 0 0 1 .453-.237c.18 0 .398.082.655.248 1.233.826 2.48 1.237 3.738 1.237.951 0 1.687-.19 2.206-.57.52-.38.78-.92.78-1.62 0-.419-.137-.758-.412-1.018a3.044 3.044 0 0 0-1.042-.62c-.417-.151-.992-.316-1.725-.494-.963-.243-1.746-.483-2.35-.725a3.91 3.91 0 0 1-1.552-1.123c-.43-.51-.645-1.18-.645-2.019 0-1.029.376-1.902 1.127-2.619.753-.717 1.744-1.146 2.979-1.287V9.837c0-.253.072-.457.22-.608.147-.153.344-.229.588-.229.243 0 .44.076.59.229.145.15.218.355.218.608v1.333c.658.066 1.282.22 1.88.468a5.404 5.404 0 0 1 1.589 1c.256.203.386.457.386.762a.92.92 0 0 1-.192.572c-.128.163-.284.247-.462.247-.182 0-.4-.084-.657-.247-.55-.421-1.079-.731-1.58-.934-.5-.203-1.091-.304-1.772-.304-.887 0-1.593.203-2.12.607-.527.408-.79.96-.79 1.657 0 .472.148.851.443 1.145.296.292.662.517 1.099.676.436.157 1.034.327 1.791.505.938.228 1.696.46 2.274.695.578.234 1.073.59 1.484 1.066.41.475.616 1.12.616 1.932 0 1.005-.363 1.847-1.089 2.535"/>
        </g>
    </g>
</svg>
