<svg xmlns="http://www.w3.org/2000/svg" width="96" height="96" viewBox="0 0 96 96">
    <path fill="#75AE50" fill-rule="evenodd" d="M48 0c26.51 0 48 21.49 48 48S74.51 96 48 96 0 74.51 0 48 21.49 0 48 0zm0 2C22.595 2 2 22.595 2 48s20.595 46 46 46 46-20.595 46-46S73.405 2 48 2zm13 28a1 1 0 01.608.206l.1.087 17 17 .04.043.058.072.067.104.047.095.03.08.03.115.015.093L79 48l-.004.085-.017.121-.01.042-.034.106-.034.08-.06.106-.072.1-30.053 36.093-.095.086-.095.066-.066.038-.075.035-.114.04-.132.027-.094.009-.115-.002-.12-.016-.085-.02-.128-.046-.093-.047-.108-.07-.074-.063-.09-.096-30.003-36.037-.07-.097-.071-.13-.046-.123-.011-.04-.022-.114-.008-.08.002-.127.017-.124.021-.087.04-.108.028-.06.034-.062.051-.077a1 1 0 01.099-.115l-.08.09c.025-.032.052-.062.08-.09l17-17a1 1 0 01.576-.284L35 30h26zm.5 19H33.537L47.97 81.505 61.5 49zm14.365 0H63.667L51.468 78.305 75.865 49zM31.35 49H20.134l24.033 28.867L31.35 49zm8.902-17.001L35.414 32 20.413 47h11.014l8.825-15.001zm12.175 0h-9.855L33.747 47h27.505l-8.825-15.001zm8.158.001l-5.837-.001L63.573 47h12.013L60.585 32zm1.438-18.527a1 1 0 01.631 1.17l-.034.111-3.078 8.458a1 1 0 01-1.913-.573l.034-.111 3.078-8.458a1 1 0 011.282-.597zm-26.81.49l.046.107 3.078 8.458a1 1 0 01-1.833.79l-.046-.106-3.078-8.458a1 1 0 011.833-.791zM48 11a1 1 0 01.993.883L49 12v9a1 1 0 01-1.993.117L47 21v-9a1 1 0 011-1z"/>
</svg>
