<svg xmlns="http://www.w3.org/2000/svg" width="128" height="128" viewBox="0 0 128 128">
    <g fill="none" fill-rule="evenodd">
        <path fill="#D6D6D6" d="M64 126c34.242 0 62-27.758 62-62 0-34.242-27.758-62-62-62C29.758 2 2 29.758 2 64c0 34.242 27.758 62 62 62zm0 2C28.654 128 0 99.346 0 64 0 28.654 28.654 0 64 0c35.346 0 64 28.654 64 64 0 35.346-28.654 64-64 64z"/>
        <path fill="#75AE50" d="M96 81.511c0 .037-.01.071-.01.107.005.045.026.085.026.132V91a4.998 4.998 0 0 1-4.035 4.902c.003.035.019.064.019.098v5a5 5 0 0 1-5 5H37a5.001 5.001 0 0 1-5-5V68c0-.036.017-.066.02-.102-.01-.132-.02-.264-.02-.398a5.513 5.513 0 0 1 5.5-5.5 1 1 0 1 1 0 2c-.962 0-1.832.392-2.47 1.029A3.483 3.483 0 0 0 34 67.5c0 .962.392 1.832 1.03 2.471A3.482 3.482 0 0 0 37.5 71H87v-4a3.004 3.004 0 0 0-3-3H71a1 1 0 0 1 0-2h13a5 5 0 0 1 5 5v4.422c1.764.772 3 2.529 3 4.578v1.05c2.243.25 3.996 2.13 4 4.439v.022zM90 96h-6.015A6 6 0 0 1 78 90.016v-.032A6 6 0 0 1 83.985 84H90v-8a3.004 3.004 0 0 0-3-3H37.5a5.489 5.489 0 0 1-3.5-1.264V101a3.005 3.005 0 0 0 3 3h50a3.004 3.004 0 0 0 3-3v-5zm1.016-2a3.005 3.005 0 0 0 3-3v-5.768a4.47 4.47 0 0 1-2.504.768h-7.527a3.972 3.972 0 0 0-2.814 1.171A3.974 3.974 0 0 0 80 89.984v.032c0 1.094.447 2.086 1.17 2.813A3.972 3.972 0 0 0 83.986 94h7.03zM95 37c.549 0 .998.447 1 .996l.021 5a1.001 1.001 0 0 1-2 .008l-.012-2.778-5.393 5.089c.239.514.384 1.081.384 1.685a3.991 3.991 0 1 1-7.867.973c-.045.006-.086.027-.133.027h-6c-.047 0-.088-.021-.133-.027A3.992 3.992 0 0 1 71 51a3.956 3.956 0 0 1-1.703-.394l-4.725 6.629c.266.535.428 1.128.428 1.765a4 4 0 0 1-4 4 3.99 3.99 0 0 1-3.858-3h-6.284A3.99 3.99 0 0 1 47 63a3.964 3.964 0 0 1-1.761-.425l-4.003 4.352a1 1 0 0 1-1.472-1.354l3.953-4.296A3.98 3.98 0 0 1 43 59a4 4 0 0 1 4-4 3.99 3.99 0 0 1 3.858 3h6.284A3.99 3.99 0 0 1 61 55c.824 0 1.59.25 2.227.678l4.528-6.355A3.966 3.966 0 0 1 67 47a3.992 3.992 0 1 1 7.867-.973c.045-.006.086-.027.133-.027h6c.047 0 .088.021.133.027A3.991 3.991 0 0 1 85 43c.877 0 1.682.291 2.34.769L92.394 39H90a1 1 0 1 1 0-2h5zM71 49a2.003 2.003 0 0 0 2-2 2.003 2.003 0 0 0-2-2 2.003 2.003 0 0 0-2 2 2.003 2.003 0 0 0 2 2zm14 0a2.003 2.003 0 0 0 2-2 2.003 2.003 0 0 0-2-2 2.003 2.003 0 0 0-2 2 2.003 2.003 0 0 0 2 2zM61 61a2.003 2.003 0 0 0 2-2 2.003 2.003 0 0 0-2-2 2.003 2.003 0 0 0-2 2 2.003 2.003 0 0 0 2 2zm-14 0a2.003 2.003 0 0 0 2-2 2.003 2.003 0 0 0-2-2 2.003 2.003 0 0 0-2 2 2.003 2.003 0 0 0 2 2zm46.268 18.732c.455.455.732 1.073.732 1.757v.022c0 .684-.277 1.301-.732 1.757-.344.343-.78.585-1.268.682v-4.901c.488.098.924.34 1.268.683zM84 88.5a1.5 1.5 0 1 1 0 3 1.5 1.5 0 0 1 0-3zM24 51a1 1 0 1 1 0 2h-3v3a1 1 0 1 1-2 0v-3h-3a1 1 0 1 1 0-2h3v-3a1 1 0 1 1 2 0v3h3zm88 15a1 1 0 1 1 0 2h-3v3a1 1 0 1 1-2 0v-3h-3a1 1 0 1 1 0-2h3v-3a1 1 0 1 1 2 0v3h3zM41 54a1 1 0 0 1-1-1V41a1.003 1.003 0 0 1 1-1h7a1.002 1.002 0 0 1 1 1v9a1 1 0 1 1-2 0v-8h-5v11a1 1 0 0 1-1 1zm16-2a1 1 0 0 1-1-1V28a1.003 1.003 0 0 1 1-1h7a1.002 1.002 0 0 1 1 1v14a1 1 0 1 1-2 0V29h-5v22a1 1 0 0 1-1 1zm16-12a1 1 0 0 1-1-1V24a1.003 1.003 0 0 1 1-1h7a1.002 1.002 0 0 1 1 1v17a1 1 0 1 1-2 0V25h-5v14a1 1 0 0 1-1 1z"/>
    </g>
</svg>
