<svg xmlns="http://www.w3.org/2000/svg" xmlns:xlink="http://www.w3.org/1999/xlink" width="198" height="120" viewBox="0 0 198 120">
    <defs>
        <path id="a" d="M.79.172h42.514v34.074H.79z"/>
        <path id="c" d="M.425.98h36v4.04h-36z"/>
        <path id="e" d="M0 .75h46.974v30.697H0z"/>
        <path id="g" d="M0 120h197.304V.98H0z"/>
    </defs>
    <g fill="none" fill-rule="evenodd">
        <g transform="translate(154 38.02)">
            <mask id="b" fill="#fff">
                <use xlink:href="#a"/>
            </mask>
            <path fill="#72AE4B" d="M1.79 34.246a1 1 0 0 1-1-1V4.549A4.382 4.382 0 0 1 5.167.172h37.137a1 1 0 0 1 1 1V29.87a1 1 0 0 1-1 1H5.166a1 1 0 0 1 0-2h36.139V2.172H5.165A2.38 2.38 0 0 0 2.79 4.549v28.697a1 1 0 0 1-1 1" mask="url(#b)"/>
        </g>
        <path fill="#72AE4B" d="M158.167 69.11a2.38 2.38 0 0 0-1.376 2.156c0 .953.564 1.777 1.376 2.155V69.11zm1 6.532a4.38 4.38 0 0 1-4.376-4.376 4.382 4.382 0 0 1 4.376-4.377 1 1 0 0 1 1 1v6.753a1 1 0 0 1-1 1z"/>
        <path fill="#72AE4B" d="M170.14 85.77H133a1 1 0 0 1 0-2h37.138a2.379 2.379 0 0 0 2.376-2.376 2.378 2.378 0 0 0-2.376-2.376h-3.376a1 1 0 0 1-1-1v-9.285a1 1 0 0 1 2 0v8.285h2.376a4.38 4.38 0 0 1 4.376 4.376 4.38 4.38 0 0 1-4.376 4.376"/>
        <path fill="#72AE4B" d="M173.515 82.394a1 1 0 0 1-1-1v-7.752a1 1 0 1 1 2 0v7.752a1 1 0 0 1-1 1M155.79 57.073h-22.788a1 1 0 0 1 0-2h22.788a1 1 0 0 1 0 2M115.425 33.02a1 1 0 0 1-1-1v-28a1 1 0 0 1 2 0v28a1 1 0 0 1-1 1M81.425 33.02a1 1 0 0 1-1-1v-30a1 1 0 0 1 2 0v30a1 1 0 0 1-1 1"/>
        <g transform="translate(80 -.98)">
            <mask id="d" fill="#fff">
                <use xlink:href="#c"/>
            </mask>
            <path fill="#72AE4B" d="M35.425 5.02c-1.381 0-2.098-.775-2.622-1.341-.448-.485-.667-.699-1.153-.699s-.705.214-1.154.699c-.524.566-1.241 1.341-2.623 1.341-1.381 0-2.098-.775-2.622-1.341-.45-.485-.668-.699-1.154-.699-.486 0-.706.214-1.154.699-.524.566-1.242 1.341-2.623 1.341-1.381 0-2.098-.775-2.622-1.341-.448-.485-.667-.699-1.153-.699-.487 0-.706.214-1.155.699-.524.566-1.24 1.341-2.622 1.341-1.381 0-2.098-.775-2.622-1.341-.45-.485-.668-.699-1.155-.699-.488 0-.708.214-1.158.7-.524.566-1.242 1.34-2.625 1.34-1.382 0-2.1-.774-2.625-1.34-.45-.486-.67-.7-1.158-.7a1 1 0 0 1 0-2c1.382 0 2.1.774 2.625 1.34.45.486.669.7 1.158.7.489 0 .709-.214 1.158-.7C6.89 1.754 7.609.98 8.99.98s2.099.775 2.623 1.341c.449.485.668.699 1.154.699.487 0 .706-.214 1.155-.699.523-.566 1.24-1.341 2.622-1.341 1.38 0 2.098.775 2.62 1.341.45.485.669.699 1.155.699.487 0 .706-.214 1.155-.699.524-.566 1.24-1.341 2.622-1.341 1.38 0 2.098.775 2.622 1.341.449.485.668.699 1.154.699.487 0 .706-.214 1.155-.699.524-.566 1.24-1.341 2.622-1.341 1.38 0 2.098.775 2.62 1.341.45.485.669.699 1.155.699a1 1 0 0 1 0 2" mask="url(#d)"/>
        </g>
        <path fill="#72AE4B" d="M109.425 13.02h-22a1 1 0 0 1 0-2h22a1 1 0 0 1 0 2M109.425 19.02h-22a1 1 0 0 1 0-2h22a1 1 0 0 1 0 2M99.425 25.02h-12a1 1 0 0 1 0-2h12a1 1 0 0 1 0 2M152.251 74.805c-.561.557-1.319.906-2.27 1.048v.957a.786.786 0 0 1-.213.57.745.745 0 0 1-.563.22.745.745 0 0 1-.562-.22.786.786 0 0 1-.213-.57v-.926a6.908 6.908 0 0 1-1.686-.365 4.833 4.833 0 0 1-1.412-.76.762.762 0 0 1-.274-.304.981.981 0 0 1-.076-.41c0-.213.063-.4.19-.562.126-.162.27-.243.433-.243a.74.74 0 0 1 .28.053c.087.035.2.094.343.175.465.304.923.526 1.374.669a4.73 4.73 0 0 0 1.42.212c.68 0 1.204-.131 1.573-.395.37-.263.554-.643.554-1.14a.92.92 0 0 0-.303-.714 2.232 2.232 0 0 0-.76-.433c-.304-.106-.73-.23-1.276-.372-.76-.192-1.377-.387-1.852-.585a3.192 3.192 0 0 1-1.232-.904c-.345-.404-.517-.951-.517-1.641 0-.82.294-1.52.881-2.096.589-.577 1.358-.937 2.31-1.078v-.958c0-.233.071-.423.213-.57a.746.746 0 0 1 .561-.22c.233 0 .421.074.563.22a.782.782 0 0 1 .213.57v.942c1.023.132 1.904.5 2.644 1.109a.853.853 0 0 1 .364.714.883.883 0 0 1-.19.562c-.126.163-.275.243-.448.243a.793.793 0 0 1-.266-.045 1.715 1.715 0 0 1-.343-.183 5.76 5.76 0 0 0-1.177-.66c-.368-.147-.808-.221-1.314-.221-.627 0-1.13.14-1.504.418-.375.279-.561.66-.561 1.147 0 .334.106.605.319.813.213.207.48.367.805.479.323.11.764.238 1.322.379.738.182 1.34.37 1.808.562.466.193.863.484 1.192.874.328.39.494.919.494 1.588 0 .81-.281 1.494-.844 2.05M43.02 78.174H26.28a1 1 0 0 1 0-2h16.74a1 1 0 0 1 0 2M57.368 78.174h-7.174a1 1 0 0 1 0-2h7.174a1 1 0 0 1 0 2"/>
        <path fill="#72AE4B" d="M21.569 56.65c-.551 0-1 .45-1 1v24.698c0 .552.449 1 1 1h40.974c.55 0 1-.448 1-1V57.65c0-.551-.45-1-1-1H21.569zm40.974 28.698H21.569c-1.654 0-3-1.345-3-3V57.65c0-1.654 1.346-3 3-3h40.974c1.654 0 3 1.346 3 3v24.697c0 1.655-1.346 3-3 3z"/>
        <g transform="translate(0 37.02)">
            <mask id="f" fill="#fff">
                <use xlink:href="#e"/>
            </mask>
            <path fill="#72AE4B" d="M13.365 31.447H2.689a2.691 2.691 0 0 1-2.69-2.688V3.44A2.691 2.691 0 0 1 2.69.75h41.597a2.691 2.691 0 0 1 2.688 2.688v9.174a1 1 0 1 1-2 0V3.438a.689.689 0 0 0-.688-.688H2.689a.689.689 0 0 0-.69.688V28.76a.69.69 0 0 0 .69.688h10.676a1 1 0 0 1 0 2" mask="url(#f)"/>
        </g>
        <path fill="#72AE4B" d="M31.258 68.804h-5.174a1 1 0 0 1-1-1V65.02a1 1 0 0 1 1-1h5.174a1 1 0 0 1 1 1v2.783a1 1 0 0 1-1 1M172.735 52.925c-.345-.405-.517-.952-.517-1.64 0-.82.294-1.52.882-2.097.587-.578 1.357-.937 2.31-1.079v-.957c0-.233.07-.423.212-.57a.746.746 0 0 1 .562-.22c.233 0 .42.074.562.22a.786.786 0 0 1 .213.57v.942c1.023.131 1.903.501 2.643 1.11a.85.85 0 0 1 .364.713c0 .213-.063.4-.189.562-.127.162-.276.243-.448.243a.775.775 0 0 1-.266-.046 1.752 1.752 0 0 1-.342-.182 5.744 5.744 0 0 0-1.178-.66c-.37-.147-.808-.22-1.313-.22-.629 0-1.13.138-1.505.417-.374.278-.562.661-.562 1.147 0 .334.106.605.32.812.211.208.48.368.804.48.324.111.765.237 1.322.38.74.181 1.342.37 1.808.561.466.193.863.484 1.193.874.33.39.494.92.494 1.587 0 .811-.282 1.494-.844 2.052-.562.557-1.319.906-2.27 1.047v.958a.79.79 0 0 1-.213.57.752.752 0 0 1-.563.22.749.749 0 0 1-.562-.22.786.786 0 0 1-.212-.57v-.927a6.86 6.86 0 0 1-1.687-.365 4.785 4.785 0 0 1-1.413-.759.752.752 0 0 1-.273-.304.981.981 0 0 1-.076-.41c0-.213.063-.4.19-.562.126-.162.27-.243.432-.243.101 0 .195.018.282.053.086.035.2.094.341.175.466.303.925.526 1.375.668.451.142.924.213 1.42.213.68 0 1.203-.132 1.573-.396.37-.262.555-.643.555-1.139a.918.918 0 0 0-.304-.714 2.216 2.216 0 0 0-.76-.433c-.303-.106-.729-.23-1.276-.372M45.35 46.789H1.46a1 1 0 0 1 0-2h43.89a1 1 0 0 1 0 2M140.425 38.02a1 1 0 0 1-1-1v-8a1 1 0 0 1 2 0v8a1 1 0 0 1-1 1"/>
        <path fill="#72AE4B" d="M144.425 34.02h-8a1 1 0 0 1 0-2h8a1 1 0 0 1 0 2M59.425 29.02a1 1 0 0 1-1-1v-8a1 1 0 0 1 2 0v8a1 1 0 0 1-1 1"/>
        <path fill="#72AE4B" d="M63.425 25.02h-8a1 1 0 0 1 0-2h8a1 1 0 0 1 0 2"/>
        <g transform="translate(0 -.98)">
            <path fill="#72AE4B" d="M98.91 67.483h-.089c-3.306-.03-6.24-1.595-7.302-3.893a1 1 0 1 1 1.815-.838c.733 1.585 2.997 2.708 5.505 2.731h.071c2.415 0 4.667-1.125 5.374-2.69a1 1 0 0 1 1.823.822c-1.03 2.285-3.982 3.868-7.197 3.868M92.455 53.947a1 1 0 0 1-1-1v-2.11a1 1 0 0 1 2 0v2.11a1 1 0 0 1-1 1M105.241 53.947a1 1 0 0 1-1-1v-2.11a1 1 0 0 1 2 0v2.11a1 1 0 0 1-1 1"/>
            <path fill="#72AE4B" d="M79.342 34.624c-2.505 0-4.544 1.953-4.544 4.352v64.23c0 2.398 2.04 4.352 4.544 4.352h38.983c2.506 0 4.544-1.954 4.544-4.353V38.978c0-2.4-2.038-4.352-4.544-4.352H79.342zm38.983 74.934H79.342c-3.608 0-6.544-2.85-6.544-6.353V38.978c0-3.502 2.936-6.352 6.544-6.352h38.983c3.608 0 6.544 2.85 6.544 6.352v64.228c0 3.502-2.936 6.353-6.544 6.353z"/>
            <path fill="#72AE4B" d="M113.012 120H84.657a5.377 5.377 0 0 1-5.371-5.371v-4.507a1 1 0 0 1 2 0v4.507a3.375 3.375 0 0 0 3.37 3.371h28.356a3.374 3.374 0 0 0 3.37-3.371v-4.507a1 1 0 0 1 2 0v4.507a5.376 5.376 0 0 1-5.37 5.371"/>
            <path fill="#72AE4B" d="M88.391 120a1 1 0 0 1-1-1v-8.878a1 1 0 0 1 2 0V119a1 1 0 0 1-1 1"/>
            <mask id="h" fill="#fff">
                <use xlink:href="#g"/>
            </mask>
            <path fill="#72AE4B" d="M82.631 73.748h32.405V42.449H82.631v31.299zm33.406 2H81.631a1 1 0 0 1-1-1v-33.3a1 1 0 0 1 1-1h34.406a1 1 0 0 1 1 1v33.3a1 1 0 0 1-1 1zM88.402 97.175a2.607 2.607 0 1 1-5.214 0 2.607 2.607 0 0 1 5.214 0M101.442 97.175a2.607 2.607 0 1 1-5.216 0 2.608 2.608 0 0 1 5.216 0M114.481 97.175a2.607 2.607 0 1 1-5.216 0 2.608 2.608 0 0 1 5.216 0M88.402 86.483a2.608 2.608 0 1 1-5.215 0 2.608 2.608 0 0 1 5.215 0M101.442 86.483a2.608 2.608 0 1 1-5.216 0 2.608 2.608 0 0 1 5.216 0M114.481 86.483a2.608 2.608 0 1 1-5.216 0 2.608 2.608 0 0 1 5.216 0" mask="url(#h)"/>
        </g>
    </g>
</svg>
