<?xml version="1.0" encoding="UTF-8"?>
<svg width="128px" height="128px" viewBox="0 0 128 128" version="1.1" xmlns="http://www.w3.org/2000/svg" xmlns:xlink="http://www.w3.org/1999/xlink">
    <!-- Generator: Sketch 58 (84663) - https://sketch.com -->
    <title>Artboard</title>
    <desc>Created with Sketch.</desc>
    <g id="Artboard" stroke="none" stroke-width="1" fill="none" fill-rule="evenodd">
        <g id="icon_conta_que_rende">
            <g id="icon_conta_que_rende_mb">
                <path d="M45.7491943,47.8938887 C53.336229,47.8938887 59.4855275,54.0431872 59.4855275,61.630222 C59.4855275,68.833784 53.9371936,74.7312498 46.8824418,75.3093205 L46.8885945,75.3375086 L46.8938887,75.3665552 L46.8938887,84.8709531 C47.1056572,84.5962264 47.331162,84.3272232 47.5852842,84.0708117 C49.047059,82.6159051 50.8694125,81.8936029 52.4250522,81.5112749 C53.8934932,81.1525142 55.1489972,81.0959212 55.7392075,81.0905045 L55.9251066,81.0903845 C56.0258031,81.0912636 56.0853272,81.0934615 56.097232,81.0934615 C56.6901837,81.1186447 57.1675213,81.5959823 57.1927046,82.1900787 C57.1927046,82.2049598 57.1961386,82.2931012 57.1961386,82.4442009 C57.1961386,82.9810626 57.1560743,84.3008953 56.7748911,85.8611138 C56.3925632,87.4167535 55.670261,89.2391071 54.2153543,90.7008819 C52.7535795,92.1557885 50.931226,92.8780907 49.3755863,93.2604186 C48.5208811,93.4690074 47.7394363,93.5744889 47.1188832,93.6283162 L46.8938887,93.6461806 L46.8947476,95.887837 C46.896722,95.9153191 46.8977263,95.9430698 46.8977263,95.971055 L46.8977263,99.5659167 C46.8977263,101.462509 45.3602348,103 43.4636429,103 L36.5069838,103 C35.8747865,103 35.3622893,102.487503 35.3622893,101.855306 C35.3622893,101.223108 35.8747865,100.710611 36.5069838,100.710611 L43.4636429,100.710611 C44.0958402,100.710611 44.6083374,100.198114 44.6083374,99.5659167 L44.608,97.186 L44.6044999,97.1157495 L44.6044999,93.6461806 C43.9531687,93.5992482 43.0843456,93.495081 42.1228023,93.2604186 C40.5671626,92.8780907 38.744809,92.1557885 37.2830342,90.7008819 C35.8281276,89.2391071 35.1058254,87.4167535 34.7234975,85.8611138 C34.3647368,84.3926728 34.3081437,83.1371688 34.3027271,82.5469585 L34.3026071,82.3610594 C34.3034862,82.260363 34.305684,82.2008389 34.305684,82.188934 C34.3308673,81.5959823 34.8082049,81.1186447 35.4011566,81.0934615 C35.4130614,81.0934615 35.4725855,81.0912636 35.573282,81.0903845 L35.759181,81.0905045 C36.3493914,81.0959212 37.6048954,81.1525142 39.0733363,81.5112749 C40.6289761,81.8936029 42.4513296,82.6159051 43.9131044,84.0708117 C44.0825192,84.2417527 44.2392151,84.41829 44.3876015,84.5987278 L44.6044999,84.8720978 L44.6044999,75.3665552 C44.6044999,75.3459507 44.6148021,75.3287803 44.6159468,75.3093205 C37.561195,74.7312498 32.0128611,68.833784 32.0128611,61.630222 C32.0128611,54.0431872 38.1621596,47.8938887 45.7491943,47.8938887 Z M76.6559441,25 C84.2429788,25.0011447 90.3922773,31.1504432 90.3922773,38.7363332 C90.3922773,45.8273684 85.0174626,51.6526963 78.1200478,52.3852516 L77.8006385,52.4154317 L77.8006385,61.9782091 C78.0135517,61.7034824 78.2379118,61.4344792 78.4931786,61.1780677 C79.9538087,59.7220163 81.7761623,59.0008588 83.331802,58.6173862 C84.800243,58.2597029 86.055747,58.2031732 86.6459573,58.1968059 L86.8318564,58.196505 C86.9325528,58.1974207 86.9920769,58.1998017 87.0039818,58.2007174 C87.5980782,58.224756 88.0754158,58.7032383 88.0994543,59.29619 C88.1001412,59.3051186 88.1012401,59.3408331 88.1020093,59.4006136 L88.1028884,59.5514569 C88.1028884,60.0883186 88.0628241,61.4081512 87.6827856,62.9672251 C87.2993129,64.5240095 86.5770107,66.346363 85.1221041,67.8069931 C83.661474,69.2618998 81.8391205,69.984202 80.2834807,70.3676746 C79.4287756,70.5752458 78.6473308,70.6815187 78.0259737,70.7347305 L77.8006385,70.7522919 L77.8006385,84.8720978 C78.0135517,84.5973711 78.2379118,84.3283679 78.4931786,84.0719564 C79.9538087,82.6159051 81.7761623,81.8947476 83.331802,81.5112749 C84.800243,81.1535916 86.055747,81.0970619 86.6459573,81.0906947 L86.8318564,81.0903937 C86.9325528,81.0913094 86.9920769,81.0936904 87.0039818,81.0946061 C87.5980782,81.1186447 88.0754158,81.597127 88.0994543,82.1900787 C88.1001412,82.1990073 88.1012401,82.2347218 88.1020093,82.2945023 L88.1028884,82.4453456 C88.1028884,82.9822073 88.0628241,84.30204 87.6827856,85.8611138 C87.2993129,87.4178982 86.5770107,89.2402518 85.1221041,90.7008819 C83.661474,92.1557885 81.8391205,92.8780907 80.2834807,93.2615633 C79.4287756,93.4691346 78.6473308,93.5754074 78.0259737,93.6286192 L77.8006385,93.6461806 L77.8020068,95.8139641 C77.8090552,95.8653203 77.812697,95.9177624 77.812697,95.971055 L77.812697,99.5659167 C77.812697,101.462509 76.2752055,103 74.3786137,103 L67.4219545,103 C66.7897572,103 66.2772601,102.487503 66.2772601,101.855306 C66.2772601,101.223108 66.7897572,100.710611 67.4219545,100.710611 L74.3786137,100.710611 C75.010811,100.710611 75.5233081,100.198114 75.5233081,99.5659167 L75.5225063,98.4217378 C75.520805,98.4096564 75.5192921,98.397514 75.5179706,98.3853136 L75.5112496,98.2604439 L75.5112496,93.6461806 C74.8599185,93.6003929 73.9910954,93.495081 73.0295521,93.2615633 C71.4739124,92.8780907 69.6515588,92.1557885 68.1909287,90.7008819 C66.7348774,89.2402518 66.0137199,87.4178982 65.6302473,85.8622585 C65.2502087,84.30204 65.2101444,82.9822073 65.2089997,82.4453456 C65.2089997,82.2931012 65.2124338,82.2049598 65.2135785,82.1900787 C65.2387618,81.5959823 65.7149546,81.1186447 66.3090511,81.0946061 C66.3209559,81.0936904 66.38048,81.0913094 66.4811765,81.0903937 L66.6670755,81.0906947 C67.2572858,81.0970619 68.5127898,81.1535916 69.9812308,81.5112749 C71.5368705,81.8947476 73.3592241,82.6159051 74.8198542,84.0719564 C74.9900321,84.2428974 75.1464737,84.4194347 75.2946056,84.5995333 L75.5112496,84.8720978 L75.5112496,70.7522919 C74.8599185,70.7065041 73.9910954,70.6011923 73.0295521,70.3676746 C71.4739124,69.984202 69.6515588,69.2618998 68.1909287,67.8069931 C66.7348774,66.346363 66.0137199,64.5240095 65.6302473,62.9683698 C65.2502087,61.4081512 65.2101444,60.0883186 65.2089997,59.5514569 C65.2089997,59.3992125 65.2124338,59.311071 65.2135785,59.29619 C65.2387618,58.7020936 65.7149546,58.224756 66.3090511,58.2007174 C66.3209559,58.1998017 66.38048,58.1974207 66.4811765,58.196505 L66.6670755,58.1968059 C67.2572858,58.2031732 68.5127898,58.2597029 69.9812308,58.6173862 C71.5368705,59.0008588 73.3592241,59.7220163 74.8198542,61.1780677 C74.9900321,61.3490087 75.1464737,61.525546 75.2946056,61.7056446 L75.5112496,61.9782091 L75.5112496,52.4154317 C68.4622213,51.8316376 62.9207555,45.9364612 62.9196108,38.7363332 C62.9207555,31.1504432 69.070054,25.0011447 76.6559441,25 Z M85.7665671,83.4263487 C85.2411523,83.4732812 84.5818083,83.5625674 83.8755319,83.7354162 C82.5682908,84.0524966 81.1420016,84.6534612 80.1117766,85.6905543 C79.0746834,86.7207793 78.4737188,88.1470686 78.1566385,89.4543096 C77.9837896,90.1605861 77.8945034,90.8199301 77.8487157,91.3453448 C78.3741304,91.299557 79.0334744,91.2102709 79.7397509,91.037422 C81.0458472,90.7203417 82.4732812,90.1182324 83.5035062,89.0822839 C84.5405993,88.0509142 85.1415639,86.624625 85.4586443,85.3185286 C85.6314931,84.6122522 85.7207793,83.9529082 85.7665671,83.4263487 Z M67.5464657,83.4263487 C67.5922535,83.9529082 67.6815397,84.6122522 67.8543885,85.3185286 C68.1714689,86.624625 68.7724335,88.0509142 69.8095266,89.0822839 C70.8397516,90.1193771 72.2660409,90.7203417 73.5732819,91.037422 C74.2795584,91.2102709 74.9389024,91.2984124 75.4643172,91.3453448 C75.4185294,90.8199301 75.3292432,90.1605861 75.1563944,89.4543096 C74.839314,88.1470686 74.2383494,86.7207793 73.2012563,85.6905543 C72.1710313,84.6534612 70.7435973,84.0524966 69.4375009,83.7354162 C68.7312245,83.5625674 68.0718805,83.4732812 67.5464657,83.4263487 Z M54.8586726,83.4263487 C54.3344026,83.4732812 53.6750586,83.5614227 52.9687821,83.7354162 C51.661541,84.0513519 50.2352518,84.6534612 49.2050268,85.6905543 C48.1679336,86.7207793 47.5658244,88.1470686 47.2498887,89.4543096 C47.0758951,90.1605861 46.9877537,90.8199301 46.9419659,91.3442001 C47.4662359,91.2984124 48.1255799,91.2102709 48.8318564,91.0362773 C50.1390974,90.719197 51.5653867,90.1182324 52.5956117,89.0811392 C53.6327049,88.0509142 54.2348141,86.624625 54.5507498,85.3173839 C54.7247434,84.6111075 54.8128848,83.9517635 54.8586726,83.4263487 Z M36.639716,83.4263487 C36.6855037,83.9517635 36.7736452,84.6111075 36.9476388,85.3173839 C37.2635744,86.624625 37.8656837,88.0509142 38.9027769,89.0811392 C39.9330019,90.1182324 41.3592911,90.719197 42.6665322,91.0362773 C43.3728086,91.2102709 44.0321526,91.2984124 44.5564227,91.3442001 C44.5106349,90.8199301 44.4224934,90.1605861 44.2484999,89.4543096 C43.9325642,88.1470686 43.3304549,86.7207793 42.2933618,85.6905543 C41.2631368,84.6534612 39.8368475,84.0513519 38.5296065,83.7354162 C37.82333,83.5614227 37.163986,83.4732812 36.639716,83.4263487 Z M45.7491943,50.1832776 C42.5841142,50.1832776 39.7303909,51.463046 37.6550599,53.5360876 C35.5820183,55.6114186 34.3022499,58.4651418 34.3022499,61.630222 C34.3022499,64.7953021 35.5820183,67.6490253 37.6550599,69.7243563 C39.7303909,71.7973979 42.5841142,73.0771663 45.7491943,73.0771663 C48.9142744,73.0771663 51.7679976,71.7973979 53.8433286,69.7243563 C55.9163703,67.6490253 57.1961386,64.7953021 57.1961386,61.630222 C57.1961386,58.4651418 55.9163703,55.6114186 53.8433286,53.5360876 C51.7679976,51.463046 48.9142744,50.1832776 45.7491943,50.1832776 Z M45.8939981,54.7397338 C46.149265,54.735155 46.4205576,54.8335987 46.602564,55.0270521 C46.7580517,55.1873093 46.8427908,55.4000317 46.8653933,55.6148739 L46.8715672,55.7436308 L46.8715672,56.3697787 C47.247027,56.4338816 47.6144739,56.5266018 47.9647504,56.6731227 C48.3310526,56.8260539 48.667318,57.0244065 48.9712023,57.2646642 L49.1930075,57.4526596 L49.1941522,57.4515149 L49.2033097,57.4595278 L49.213612,57.4686853 C49.4631554,57.6724409 49.6245573,57.9883766 49.6176891,58.3134698 C49.6195206,58.500284 49.5708025,58.6892959 49.4773954,58.8517876 L49.3990525,58.968235 C49.2593998,59.1605437 49.0098564,59.3104987 48.7511554,59.3047752 C48.546942,59.3011122 48.3705674,59.2359104 48.1962442,59.1390601 L48.0654835,59.0609553 L48.0528918,59.0529424 L48.0403002,59.0426402 C47.6682745,58.7564666 47.3214321,58.5515663 47.0054964,58.4222158 C46.7078759,58.3008782 46.3392843,58.2333412 45.8939981,58.2333412 C45.3216509,58.2333412 44.9164291,58.3638364 44.6302555,58.5870518 C44.347516,58.8171354 44.227323,59.0609553 44.2204549,59.4661771 C44.223889,59.7248781 44.2879918,59.8725437 44.418487,60.0076176 C44.5521873,60.1404021 44.7115288,60.2512086 44.9047166,60.3400369 L45.0560818,60.4025372 C45.3023546,60.4928045 45.6419785,60.5931638 46.0684656,60.69929 L46.2889177,60.7528137 C46.9723003,60.9210838 47.5297665,61.0927879 47.9693291,61.2736496 C48.4386539,61.4659583 48.8473098,61.7635789 49.1792712,62.1539197 C49.5478628,62.5854695 49.7161329,63.1578167 49.7139204,63.8068584 C49.7195669,64.6264596 49.4059207,65.3647876 48.8152583,65.9233984 C48.3614506,66.3578736 47.7909688,66.6476367 47.1351672,66.8135907 L46.8853035,66.8700607 L46.8853035,67.5168131 C46.8887376,67.7743693 46.8017408,68.0410831 46.6163003,68.2322471 C46.4342939,68.4279899 46.1630013,68.5252889 45.9077345,68.5219426 C45.6524676,68.5252889 45.381175,68.4279899 45.2003133,68.2333918 C45.0438717,68.0731346 44.9581786,67.8596173 44.9359472,67.6451726 L44.9301654,67.5168131 L44.9301654,66.9135591 C44.4791558,66.8517456 44.0361591,66.7590254 43.6114774,66.6102151 C43.1631388,66.4528196 42.7624957,66.242959 42.4128605,65.9812956 L42.2092267,65.8180866 L42.208082,65.8192312 L42.2035033,65.8135078 L42.1828988,65.7986267 C41.9276319,65.5960158 41.7765322,65.2697779 41.7845451,64.9469741 C41.7822557,64.7134564 41.8520821,64.4742153 41.9963136,64.2853407 C42.1336769,64.0941767 42.3855097,63.9499452 42.6384872,63.9556687 C42.8417849,63.9593317 43.0179763,64.0245335 43.1922629,64.1213838 L43.3230144,64.1994886 L43.3275932,64.2029227 C44.1586414,64.763823 44.9633616,65.0271027 45.7703711,65.0271027 C46.396519,65.0282474 46.8303582,64.8988969 47.1050848,64.6939966 C47.374088,64.4856622 47.4908469,64.2555786 47.4988597,63.8492121 C47.494281,63.6317202 47.4427697,63.5183954 47.3271556,63.403926 C47.1749112,63.2585498 46.9780238,63.1372122 46.7239016,63.0433472 C46.4884216,62.9560234 46.1612726,62.8577666 45.7496632,62.752181 L45.5368535,62.6987942 C44.8363005,62.5213666 44.2628086,62.3439389 43.8072202,62.1596431 C43.3161463,61.9627557 42.8891752,61.6479647 42.5434775,61.23473 C42.1645837,60.7837204 41.9883007,60.1907687 41.9905901,59.5222672 C41.9860113,58.6832061 42.3088152,57.9254184 42.9166479,57.3439136 C43.3847007,56.8911234 43.9766632,56.5920896 44.6571613,56.4275174 L44.9164291,56.3720681 L44.9164291,55.7436308 C44.9141397,55.4872193 44.9988471,55.2193608 45.1854323,55.0270521 C45.3674387,54.8335987 45.6375866,54.735155 45.8939981,54.7397338 Z M85.7665671,60.53246 C85.2411523,60.5793925 84.5818083,60.6686786 83.8755319,60.8415275 C82.5682908,61.1586078 81.1420016,61.7595724 80.1117766,62.7966656 C79.0746834,63.8268906 78.4737188,65.2531798 78.1566385,66.5604209 C77.9837896,67.2666974 77.8945034,67.9260414 77.8487157,68.4514561 C78.3741304,68.4056683 79.0334744,68.3163822 79.7397509,68.1435333 C81.0458472,67.8264529 82.4732812,67.2243437 83.5035062,66.1883952 C84.5405993,65.1581702 85.1415639,63.7307362 85.4586443,62.4246399 C85.6314931,61.7183634 85.7207793,61.0590194 85.7665671,60.53246 Z M67.5464657,60.53246 C67.5922535,61.0590194 67.6815397,61.7183634 67.8543885,62.4246399 C68.1714689,63.7307362 68.7724335,65.1581702 69.8095266,66.1883952 C70.8397516,67.2254884 72.2660409,67.8264529 73.5732819,68.1435333 C74.2795584,68.3163822 74.9389024,68.4045236 75.4643172,68.4514561 C75.4185294,67.9260414 75.3292432,67.2666974 75.1563944,66.5604209 C74.839314,65.2531798 74.2383494,63.8268906 73.2012563,62.7966656 C72.1710313,61.7595724 70.7435973,61.1586078 69.4375009,60.8415275 C68.7312245,60.6686786 68.0718805,60.5793925 67.5464657,60.53246 Z M99.5498328,49.0385832 C100.139579,49.0385832 100.625622,49.4853091 100.687806,50.0586073 L100.694527,50.1832776 L100.694527,52.4726665 L102.983916,52.4726665 C103.615787,52.4726665 104.128611,52.9854896 104.128611,53.6173609 C104.128611,54.2071075 103.681885,54.6931498 103.108586,54.7553344 L102.983916,54.7620553 L100.694527,54.7620553 L100.694527,57.0514442 C100.694527,57.6833155 100.181704,58.1961386 99.5498328,58.1961386 C98.9600862,58.1961386 98.4740439,57.7494127 98.4118593,57.1761145 L98.4051384,57.0514442 L98.4051384,54.7620553 L96.1157495,54.7620553 C95.4838781,54.7620553 94.971055,54.2492322 94.971055,53.6173609 C94.971055,53.0276143 95.4177809,52.541572 95.9910792,52.4793874 L96.1157495,52.4726665 L98.4051384,52.4726665 L98.4051384,50.1832776 C98.4051384,49.5514063 98.9179615,49.0385832 99.5498328,49.0385832 Z M76.6559441,27.2893889 C73.4920086,27.2905336 70.6371407,28.5691573 68.5618097,30.6421989 C66.4887681,32.7175299 65.2101444,35.5723978 65.2089997,38.7363332 C65.2101444,41.9014133 66.4887681,44.7562813 68.5618097,46.8316123 C70.6371407,48.9046539 73.4920086,50.1832776 76.6559441,50.1832776 C79.8210242,50.1832776 82.6758921,48.9046539 84.7512231,46.8316123 C86.8242647,44.7562813 88.1028884,41.9014133 88.1028884,38.7363332 C88.1028884,35.5723978 86.8242647,32.7175299 84.7512231,30.6421989 C82.6758921,28.5691573 79.8210242,27.2905336 76.6559441,27.2893889 Z M76.8009768,31.8451849 C77.0562437,31.8418386 77.3275363,31.9391377 77.5095427,32.1337357 C77.6650304,32.2939929 77.7505645,32.5067153 77.7727694,32.7215575 L77.7785459,32.8503144 L77.7785459,33.4764623 C78.1540057,33.5405652 78.5214526,33.6321407 78.8717291,33.7798063 C79.2380313,33.9327375 79.5742967,34.1310902 79.8781811,34.3713478 L80.0999862,34.5593432 L80.1011309,34.5581985 L80.1102885,34.5662114 L80.1217354,34.575369 C80.3701341,34.7779799 80.531536,35.0950602 80.5258125,35.4190088 C80.5276441,35.6067386 80.4781933,35.7959337 80.3844931,35.958462 L80.3060312,36.0749187 C80.1663785,36.2672273 79.9168351,36.4171823 79.6581342,36.4114588 C79.4548364,36.4077958 79.2779125,36.342594 79.1033328,36.2457437 L78.9724622,36.1676389 L78.9598706,36.1584814 L78.9472789,36.1493238 C78.5752532,35.8631502 78.2284108,35.6582499 77.9124751,35.5288994 C77.6148546,35.4075618 77.246263,35.3400248 76.8009768,35.3400248 C76.2286296,35.3400248 75.8234078,35.47052 75.5372342,35.6937354 C75.2544947,35.9226743 75.1343017,36.1676389 75.1274336,36.5728607 C75.1308677,36.8315617 75.1949706,36.9792273 75.3266104,37.1143012 C75.459395,37.2470858 75.6185533,37.3578922 75.8117044,37.4467205 L75.9630605,37.5092208 C76.2093334,37.5994881 76.5489572,37.6998475 76.9754443,37.8059737 L77.1958964,37.8594973 C77.8804237,38.0277674 78.4367452,38.1994715 78.8763079,38.3803333 C79.3456326,38.5726419 79.7542885,38.8702625 80.0862499,39.2594586 C80.4559862,39.6910084 80.6231116,40.2645003 80.6220163,40.9135421 C80.6265457,41.7331433 80.3128994,42.4714712 79.722237,43.0300821 C79.2694468,43.4645572 78.6981736,43.7543203 78.0421836,43.9202743 L77.7922822,43.9767444 L77.7922822,44.6234967 C77.7957163,44.881053 77.7098642,45.1477668 77.523279,45.3389307 C77.3412726,45.5346735 77.06998,45.6319725 76.8147132,45.6273937 C76.5594463,45.6319725 76.2881537,45.5346735 76.107292,45.3389307 C75.9508504,45.1796274 75.8651573,44.9662691 75.8429259,44.7518509 L75.8371441,44.6234967 L75.8371441,44.0202428 C75.3861345,43.9584293 74.9431378,43.865709 74.5184561,43.7168987 C74.0701175,43.5585493 73.6694744,43.3493246 73.3198392,43.0878997 L73.1162055,42.9247702 L73.1150608,42.9259149 L73.110482,42.9201914 L73.0898775,42.9053104 C72.8346106,42.7026995 72.683511,42.3764615 72.6915238,42.0536577 C72.6892344,41.82014 72.7590608,41.5808989 72.9032923,41.3920243 C73.0406556,41.2008604 73.2924884,41.0566289 73.5454659,41.0623523 C73.7496794,41.0660154 73.9260539,41.1304845 74.1003771,41.2276279 L74.2311378,41.3061722 L74.2345719,41.3084616 C75.0656201,41.8705066 75.8703403,42.1337863 76.6773498,42.1337863 C77.3034977,42.134931 77.7373369,42.0044358 78.0120636,41.8006802 C78.2810668,41.5923459 78.3978256,41.3622623 78.4058384,40.9547511 C78.4012597,40.7372591 78.3497484,40.6250791 78.235279,40.5106096 C78.0818899,40.3652334 77.8850025,40.2438958 77.6308803,40.1500309 C77.3954003,40.062707 77.0682513,39.9644502 76.6566419,39.8588647 L76.4438322,39.8054778 C75.7432792,39.6280502 75.1697873,39.4506226 74.7141989,39.2663268 C74.223125,39.0682946 73.796154,38.7546483 73.4504562,38.3414137 C73.0715624,37.890404 72.8964241,37.2974523 72.8975688,36.6289508 C72.89299,35.7898898 73.2157939,35.032102 73.8236266,34.4505973 C74.2916795,33.997807 74.8836419,33.6987733 75.56414,33.5342011 L75.8234078,33.4787517 L75.8234078,32.8503144 C75.8211184,32.5939029 75.9058258,32.3260444 76.092411,32.1337357 C76.2744174,31.9391377 76.54571,31.8418386 76.8009768,31.8451849 Z M28.5787777,34.1575555 C29.2106491,34.1575555 29.7234722,34.6703786 29.7234722,35.3022499 L29.7234722,35.3022499 L29.7234722,37.5916388 L32.0128611,37.5916388 C32.6447324,37.5916388 33.1575555,38.1044619 33.1575555,38.7363332 C33.1575555,39.3682046 32.6447324,39.8810277 32.0128611,39.8810277 L32.0128611,39.8810277 L29.7234722,39.8810277 L29.7234722,42.1704165 C29.7234722,42.8022879 29.2106491,43.315111 28.5787777,43.315111 C27.9469064,43.315111 27.4340833,42.8022879 27.4340833,42.1704165 L27.4340833,42.1704165 L27.4340833,39.8810277 L25.1446944,39.8810277 C24.5128231,39.8810277 24,39.3682046 24,38.7363332 C24,38.1044619 24.5128231,37.5916388 25.1446944,37.5916388 L25.1446944,37.5916388 L27.4340833,37.5916388 L27.4340833,35.3022499 C27.4340833,34.6703786 27.9469064,34.1575555 28.5787777,34.1575555 Z" id="Combined-Shape" fill="#75AE50"></path>
                <path d="M64,0 C99.3466667,0 128,28.6533333 128,64 C128,99.3466667 99.3466667,128 64,128 C28.6533333,128 0,99.3466667 0,64 C0,28.6533333 28.6533333,0 64,0 Z M64,2.66666667 C30.1813333,2.66666667 2.66666667,30.1813333 2.66666667,64 C2.66666667,97.8186667 30.1813333,125.333333 64,125.333333 C97.8186667,125.333333 125.333333,97.8186667 125.333333,64 C125.333333,30.1813333 97.8186667,2.66666667 64,2.66666667 Z" id="Shape" fill="#D6D6D6"></path>
            </g>
        </g>
    </g>
</svg>