<svg xmlns="http://www.w3.org/2000/svg" width="96" height="96" viewBox="0 0 96 96">
    <path fill="#75AE50" fill-rule="evenodd" d="M48 0c26.51 0 48 21.49 48 48S74.51 96 48 96 0 74.51 0 48 21.49 0 48 0zm0 94c25.364 0 46-20.636 46-46S73.364 2 48 2 2 22.636 2 48s20.636 46 46 46zm23.903-38.959c1.739.205 3.094 1.665 3.097 3.459 0 .113-.023.221-.034.332.01.057.034.108.034.168v10a3.001 3.001 0 0 1-3 3v3a5 5 0 0 1-5 5H28a5 5 0 0 1-5-5V48a5.01 5.01 0 0 1 5-5 1 1 0 1 1 0 2c-.824 0-1.57.335-2.118.882a2.985 2.985 0 0 0 0 4.236A2.985 2.985 0 0 0 28 51h39v-3a3.005 3.005 0 0 0-3-3H51a1 1 0 1 1 0-2h13a5 5 0 0 1 5 5v3.422a5.002 5.002 0 0 1 2.903 3.619zM70 75v-3h-6a6.014 6.014 0 0 1-6-6 6.014 6.014 0 0 1 6-6h6v-4a3.005 3.005 0 0 0-3-3H28a4.97 4.97 0 0 1-3-1.028V75a3.005 3.005 0 0 0 3 3h39a3.005 3.005 0 0 0 3-3zm2-5a1.002 1.002 0 0 0 1-1v-7.353a3.466 3.466 0 0 1-1.5.353H64a3.978 3.978 0 0 0-2.824 1.176 3.98 3.98 0 0 0 0 5.648A3.978 3.978 0 0 0 64 70h8zm3.191-47.963a.99.99 0 0 1 .817.959l.013 3.008a1 1 0 1 1-2 .008l-.003-.699-6.153 5.845c.079.269.135.547.135.842a3.001 3.001 0 0 1-3 3 2.992 2.992 0 0 1-2.816-2h-5.368A2.992 2.992 0 0 1 54 35a2.94 2.94 0 0 1-.853-.139l-5.202 5.592c.033.178.055.359.055.547a3.001 3.001 0 0 1-3 3 2.992 2.992 0 0 1-2.816-2h-3.368A2.992 2.992 0 0 1 36 44a2.96 2.96 0 0 1-1.281-.298l-3.938 4.923a1 1 0 0 1-1.562-1.25l4-5c.025-.031.061-.047.089-.074A2.974 2.974 0 0 1 33 41a3.001 3.001 0 0 1 3-3 2.99 2.99 0 0 1 2.816 2h3.368A2.99 2.99 0 0 1 45 38a2.97 2.97 0 0 1 1.87.672l4.645-4.992A3.001 3.001 0 0 1 54 29a2.99 2.99 0 0 1 2.816 2h5.368A2.99 2.99 0 0 1 65 29c.625 0 1.205.192 1.686.52l5.81-5.52H72a1 1 0 1 1 0-2h3.008l.009.002c.06.001.116.023.174.035zM65 33a1.002 1.002 0 0 0 1-1 1.002 1.002 0 0 0-1-1 1.002 1.002 0 0 0-1 1c.001.552.448.999 1 1zm-11 0a1.002 1.002 0 0 0 1-1 1.002 1.002 0 0 0-1-1 1.002 1.002 0 0 0-1 1c.001.552.448.999 1 1zm-9 9a1.002 1.002 0 0 0 1-1 1.002 1.002 0 0 0-1-1 1.002 1.002 0 0 0-1 1c.001.552.448.999 1 1zm-9 0a1.002 1.002 0 0 0 1-1 1.002 1.002 0 0 0-1-1 1.002 1.002 0 0 0-1 1c.001.552.448.999 1 1zm37 16.5c0-.412-.167-.782-.441-1.059a1.523 1.523 0 0 0-.559-.348v2.814c.209-.075.4-.191.559-.348.274-.277.441-.647.441-1.059zm-9 6a1.5 1.5 0 1 1 0 3 1.5 1.5 0 0 1 0-3zm-36.5-36a1 1 0 1 1 0-2H30V24a1 1 0 1 1 2 0v2.5h2.5a1 1 0 1 1 0 2H32V31a1 1 0 1 1-2 0v-2.5h-2.5zm22-12a1 1 0 1 1 0-2H52V12a1 1 0 1 1 2 0v2.5h2.5a1 1 0 1 1 0 2H54V19a1 1 0 1 1-2 0v-2.5h-2.5z"/>
</svg>
