<svg xmlns="http://www.w3.org/2000/svg" width="56" height="56" viewBox="0 0 56 56">
    <path fill="#75AE50" fill-rule="evenodd" d="M28 4c13.255 0 24 10.745 24 24S41.255 52 28 52 4 41.255 4 28 14.745 4 28 4zm0 1.92C15.806 5.92 5.92 15.806 5.92 28c0 12.194 9.886 22.08 22.08 22.08 12.194 0 22.08-9.886 22.08-22.08 0-12.194-9.886-22.08-22.08-22.08zm.272 9.844c.328 0 .592.104.792.311.196.206.295.483.295.827v1.812c.883.09 1.722.3 2.526.637a7.251 7.251 0 0 1 2.136 1.359c.344.277.518.621.518 1.037 0 .293-.087.549-.257.776-.173.222-.382.336-.621.336-.245 0-.538-.114-.883-.336-.74-.572-1.45-.993-2.124-1.27-.673-.275-1.467-.412-2.382-.412-1.192 0-2.14.275-2.848.825-.709.555-1.063 1.306-1.063 2.253 0 .642.199 1.157.596 1.556.398.397.89.703 1.477.92.586.213 1.389.445 2.408.686 1.26.31 2.279.626 3.055.945a5.169 5.169 0 0 1 1.994 1.45c.552.646.829 1.523.829 2.626 0 1.366-.488 2.512-1.463 3.447-.976.932-2.266 1.5-3.871 1.709v1.838c0 .347-.1.622-.299.827-.196.209-.461.313-.79.313-.327 0-.59-.104-.789-.313-.198-.205-.298-.48-.298-.827v-1.789a11.905 11.905 0 0 1-2.989-.634c-.96-.337-1.776-.799-2.449-1.383-.328-.242-.492-.59-.492-1.04 0-.307.082-.57.245-.788.165-.213.368-.322.609-.322.243 0 .536.111.881.337 1.657 1.122 3.332 1.681 5.023 1.681 1.279 0 2.268-.26 2.965-.775.7-.517 1.05-1.252 1.05-2.203 0-.568-.186-1.029-.555-1.383-.374-.354-.84-.634-1.4-.844-.561-.205-1.334-.43-2.318-.671-1.295-.33-2.347-.657-3.16-.985a5.259 5.259 0 0 1-2.085-1.527c-.578-.693-.867-1.605-.867-2.745 0-1.399.505-2.585 1.515-3.56 1.011-.976 2.344-1.559 4.003-1.75v-1.813c0-.344.097-.621.295-.827.199-.207.463-.31.791-.31z"/>
</svg>
