<svg xmlns="http://www.w3.org/2000/svg" width="128" height="128" viewBox="0 0 128 128">
    <g fill="none" fill-rule="evenodd">
        <path fill="#D6D6D6" d="M64 126c34.242 0 62-27.758 62-62 0-34.242-27.758-62-62-62C29.758 2 2 29.758 2 64c0 34.242 27.758 62 62 62zm0 2C28.654 128 0 99.346 0 64 0 28.654 28.654 0 64 0c35.346 0 64 28.654 64 64 0 35.346-28.654 64-64 64z"/>
        <path fill="#75AE50" d="M71 62h13a5 5 0 0 1 4.995 4.783L89 67v4.422a5 5 0 0 1 2.994 4.343L92 76v1.05c2.173.242 3.886 2.014 3.994 4.224l.006.215v.022c0 .037-.01.071-.01.107l.014.065.012.067V91a4.998 4.998 0 0 1-4.035 4.902l.01.05L92 96v5a5 5 0 0 1-4.783 4.995L87 106H37a5.001 5.001 0 0 1-4.996-4.783L32 101V68c0-.036.017-.066.02-.102-.01-.132-.02-.264-.02-.398a5.513 5.513 0 0 1 5.5-5.5 1 1 0 1 1 0 2c-.962 0-1.832.392-2.47 1.029A3.483 3.483 0 0 0 34 67.5c0 .962.392 1.832 1.03 2.471a3.486 3.486 0 0 0 2.25 1.022l.22.007H87v-4a3.004 3.004 0 0 0-2.824-2.995L84 64H71a1 1 0 0 1-.117-1.993L71 62h13zm-37 9.736V101a3.005 3.005 0 0 0 2.823 2.995L37 104h50a3.004 3.004 0 0 0 2.994-2.824L90 101v-5h-6.015a6 6 0 0 1-5.981-5.76L78 90.016v-.032a6 6 0 0 1 5.76-5.98l.225-.004H90v-8a3.004 3.004 0 0 0-2.824-2.995L87 73H37.5a5.489 5.489 0 0 1-3.5-1.264zm60.016 13.496a4.47 4.47 0 0 1-2.504.768h-7.527a3.972 3.972 0 0 0-2.814 1.171A3.974 3.974 0 0 0 80 89.984v.032c0 1.094.447 2.086 1.17 2.813A3.972 3.972 0 0 0 83.986 94h7.03a3.005 3.005 0 0 0 3-3zM84 88.5a1.5 1.5 0 1 1 0 3 1.5 1.5 0 0 1 0-3zm8-9.451c.488.098.924.34 1.268.683.455.455.732 1.073.732 1.757v.022c0 .684-.277 1.301-.732 1.757-.344.343-.78.585-1.268.682v-4.901zM108 62a1 1 0 0 1 .993.883L109 63v3h3a1 1 0 0 1 .117 1.993L112 68h-3v3a1 1 0 0 1-1.993.117L107 71v-3h-3a1 1 0 0 1-.117-1.993L104 66h3v-3a1 1 0 0 1 1-1zM95 37c.51 0 .933.385.993.88l.007.116.021 5a1.001 1.001 0 0 1-1.993.125l-.007-.117-.012-2.778-5.393 5.089c.239.514.384 1.081.384 1.685a3.991 3.991 0 1 1-7.867.973l-.066.016L81 48h-6c-.047 0-.088-.021-.133-.027A3.992 3.992 0 0 1 71 51a3.91 3.91 0 0 1-1.478-.295l-.225-.099-4.725 6.629c.266.535.428 1.128.428 1.765a4 4 0 0 1-4 4 3.988 3.988 0 0 1-3.804-2.81l-.054-.19h-6.284A3.99 3.99 0 0 1 47 63c-.556 0-1.08-.124-1.558-.331l-.203-.094-4.003 4.352a1 1 0 0 1-1.551-1.256l.079-.098 3.953-4.296A3.98 3.98 0 0 1 43 59a4 4 0 0 1 4-4 3.988 3.988 0 0 1 3.804 2.81l.054.19h6.284A3.99 3.99 0 0 1 61 55c.732 0 1.42.198 2.01.542l.217.136 4.528-6.355A3.966 3.966 0 0 1 67 47a3.992 3.992 0 1 1 7.867-.973l.066-.016L75 46h6c.047 0 .088.021.133.027A3.991 3.991 0 0 1 85 43c.79 0 1.52.236 2.138.631l.202.138L92.394 39H90a1 1 0 0 1-.117-1.993L90 37h5zM61 57a2.003 2.003 0 0 0-1.994 1.85L59 59l.006.15A2.003 2.003 0 0 0 61 61a2.003 2.003 0 0 0 2-2 2.003 2.003 0 0 0-2-2zm-14 0a2.003 2.003 0 0 0-2 2 2.003 2.003 0 0 0 2 2 2.003 2.003 0 0 0 2-2 2.003 2.003 0 0 0-2-2zM20 47a1 1 0 0 1 .993.883L21 48v3h3a1 1 0 0 1 .117 1.993L24 53h-3v3a1 1 0 0 1-1.993.117L19 56v-3h-3a1 1 0 0 1-.117-1.993L16 51h3v-3a1 1 0 0 1 1-1zm28-7a1.002 1.002 0 0 1 .991.87L49 41v9a1 1 0 0 1-1.993.117L47 50v-8h-5v11a1 1 0 0 1-1.993.117L40 53V41a1.003 1.003 0 0 1 .869-.991L41 40h7zm9-13h7a1.002 1.002 0 0 1 .991.87L65 28v14a1 1 0 0 1-1.993.117L63 42V29h-5v22a1 1 0 0 1-1.993.117L56 51V28a1.003 1.003 0 0 1 .869-.991L57 27h7zm14 18a2.003 2.003 0 0 0-2 2 2.003 2.003 0 0 0 2 2 2.003 2.003 0 0 0 2-2 2.003 2.003 0 0 0-2-2zm14 0a2.003 2.003 0 0 0-2 2 2.003 2.003 0 0 0 2 2 2.003 2.003 0 0 0 2-2 2.003 2.003 0 0 0-2-2zm-5-22a1.002 1.002 0 0 1 1 1v17a1 1 0 1 1-2 0V25h-5v14a1 1 0 1 1-2 0V24a1.003 1.003 0 0 1 1-1z"/>
    </g>
</svg>
