<svg xmlns="http://www.w3.org/2000/svg" width="128" height="128" viewBox="0 0 128 128">
    <g fill="none" fill-rule="evenodd">
        <path fill="#D6D6D6" d="M64 126c34.242 0 62-27.758 62-62 0-34.242-27.758-62-62-62C29.758 2 2 29.758 2 64c0 34.242 27.758 62 62 62zm0 2C28.654 128 0 99.346 0 64 0 28.654 28.654 0 64 0c35.346 0 64 28.654 64 64 0 35.346-28.654 64-64 64z"/>
        <path fill="#75AE50" d="M71.492 94a8.462 8.462 0 0 1-4.226-1.132 8.494 8.494 0 0 1-3.134-11.604 8.494 8.494 0 0 1 11.603-3.133 8.499 8.499 0 0 1 3.302 11.295l-.17.31-.155.26A8.499 8.499 0 0 1 71.492 94zM82.5 96h-36c-.686 0-1.306.279-1.764.736A2.487 2.487 0 0 0 44 98.5c0 .687.28 1.307.736 1.765.412.41.955.677 1.56.726l.204.009h36c.687 0 1.307-.278 1.765-.735a2.489 2.489 0 0 0 0-3.53A2.486 2.486 0 0 0 82.5 96zm-28.22-9.315a6.337 6.337 0 0 0 8.257 4.482.999.999 0 1 1 .662 1.886 8.337 8.337 0 0 1-9.912-3.585 8.323 8.323 0 0 1-.95-2.308 1 1 0 0 1 1.943-.475zM71.507 79A6.498 6.498 0 0 0 65 85.493a6.493 6.493 0 0 0 3.262 5.641 6.498 6.498 0 0 0 8.872-2.396A6.5 6.5 0 0 0 71.507 79zm2.21 2.068c.14 0 .275.043.39.109a.77.77 0 0 1 .334.37l.032.099v.004l.02.172a.802.802 0 0 1-.067.315l-.047.095-.002.002-.195.341c.196.167.38.347.537.552.175.229.315.476.42.736l.07.198h.002l.002.005.006.017a.964.964 0 0 1 .058.305c0 .11-.024.218-.065.317l-.047.095a.825.825 0 0 1-.402.356.699.699 0 0 1-.27.056.611.611 0 0 1-.307-.083.886.886 0 0 1-.307-.32l-.055-.1-.005-.012-.006-.013a3.197 3.197 0 0 0-.411-.737 2.015 2.015 0 0 0-.603-.497 1.622 1.622 0 0 0-.63-.226l-.106-.005-.131.009c-.237.04-.378.133-.52.366a.565.565 0 0 0-.074.199l-.004.056.015.103c.042.152.118.298.24.446.117.138.283.313.499.521l.135.129a8.8 8.8 0 0 1 .863.929c.227.293.379.632.447 1.002.018.091.026.184.026.276 0 .33-.106.66-.29.98-.266.472-.677.81-1.18.973l-.17.048c-.197.049-.4.073-.604.073a2.75 2.75 0 0 1-.726-.11l-.183-.054-.207.358a.806.806 0 0 1-.362.343l-.097.036-.204.03a.783.783 0 0 1-.388-.109.77.77 0 0 1-.333-.37l-.032-.099-.001-.002v-.001l-.021-.174c0-.112.025-.22.069-.318l.049-.095-.002.002.187-.325a4.98 4.98 0 0 1-.674-.631 3.246 3.246 0 0 1-.51-.794l-.085-.211-.002.001-.001-.008-.01-.02a.92.92 0 0 1-.058-.295.849.849 0 0 1 .12-.426.855.855 0 0 1 .298-.31l.098-.051a.667.667 0 0 1 .264-.055.617.617 0 0 1 .308.082.88.88 0 0 1 .308.323l.055.098c.314.638.708 1.076 1.195 1.357.28.161.52.241.716.261l.094.005.096-.006a.586.586 0 0 0 .435-.26l.06-.091.06-.196-.013-.091a1.178 1.178 0 0 0-.233-.415 8.744 8.744 0 0 0-.608-.631 9.797 9.797 0 0 1-.884-.954 2.36 2.36 0 0 1-.466-1.051 1.65 1.65 0 0 1-.025-.281c0-.345.108-.687.3-1.019a2.156 2.156 0 0 1 1.387-1.048c.203-.052.412-.078.623-.078.249 0 .5.046.754.119l.19.059.2-.35a.81.81 0 0 1 .361-.34l.097-.036.204-.03zm-14.6-11.37a8.34 8.34 0 0 1 7.23 4.172 1 1 0 0 1-1.732 1 6.339 6.339 0 0 0-11.833 3.175 6.31 6.31 0 0 0 .85 3.163 6.314 6.314 0 0 0 3.849 2.954 1 1 0 0 1-.518 1.932 8.318 8.318 0 0 1-5.063-3.887 8.34 8.34 0 0 1 7.217-12.51zm-2.112 4.344l.103.015h.004l.162.058a.826.826 0 0 1 .32.282l.001.003.22.325c.237-.104.479-.191.732-.241a3.147 3.147 0 0 1 1.055-.033v-.001h.005l.019.002a.823.823 0 0 1 .62.363.83.83 0 0 1 .145.518l-.068.266a.618.618 0 0 1-.21.24c-.168.11-.343.136-.536.142h-.013l-.014-.001a3.23 3.23 0 0 0-.843.048 2.003 2.003 0 0 0-.71.323c-.271.184-.44.374-.531.56l-.049.122c-.068.23-.046.398.102.628.067.097.13.15.195.182l.099.032c.155.029.32.025.507-.022.209-.052.498-.146.861-.284a8.817 8.817 0 0 1 1.213-.37 2.315 2.315 0 0 1 1.097.037l.259.098c.297.145.547.384.755.69.341.495.455 1.079.326 1.66a2.511 2.511 0 0 1-.199.576 3.006 3.006 0 0 1-.546.746l.232.342a.783.783 0 0 1 .139.579l-.062.196a.785.785 0 0 1-.268.302.75.75 0 0 1-.58.122h-.005v-.001l-.166-.057a.817.817 0 0 1-.319-.286l.002.002-.211-.31a4.96 4.96 0 0 1-.863.329 3.163 3.163 0 0 1-1.163.095v.002l-.008-.002h-.022a.896.896 0 0 1-.291-.077.827.827 0 0 1-.33-.295.822.822 0 0 1-.151-.513v-.003l.065-.26a.61.61 0 0 1 .209-.24c.171-.111.348-.136.537-.142.712-.002 1.278-.165 1.743-.48.314-.212.503-.423.594-.612l.037-.088c.067-.213.05-.37-.099-.6l-.149-.14-.089-.027a1.167 1.167 0 0 0-.473.027c-.2.05-.481.14-.835.27a9.737 9.737 0 0 1-1.245.377 2.328 2.328 0 0 1-1.148-.041l-.265-.101c-.308-.15-.569-.398-.783-.715a2.158 2.158 0 0 1-.336-1.706 2.56 2.56 0 0 1 .204-.594c.136-.28.338-.532.573-.771l-.227-.333a.789.789 0 0 1-.138-.577l.063-.196a.776.776 0 0 1 .268-.302.755.755 0 0 1 .582-.123zM25 72a1 1 0 0 1 .993.883L26 73v3h3a1 1 0 0 1 .117 1.993L29 78h-3v3a1 1 0 0 1-1.993.117L24 81v-3h-3a1 1 0 0 1-.117-1.993L21 76h3v-3a1 1 0 0 1 1-1zm53-36a1 1 0 0 1 .993.883L79 37v7.257c0 4.472-1.706 8.569-4.494 11.661a1 1 0 0 1-1.486-1.339 15.567 15.567 0 0 0 2.764-4.363c-.021-.012-.046-.014-.066-.028-1.26-.845-2.563-1.153-4.017-1.157-1.981-.005-4.212.622-6.549 1.29-2.339.662-4.787 1.363-7.299 1.367-1.837.002-3.718-.394-5.503-1.472a.999.999 0 1 1 1.031-1.713c1.444.866 2.909 1.182 4.472 1.185 2.128.003 4.42-.624 6.752-1.291 2.335-.659 4.708-1.361 7.096-1.366 1.608-.004 3.236.347 4.751 1.261.307-1.127.496-2.301.539-3.513l.009-.522V37a1 1 0 0 1 1-1zm25 10a1 1 0 0 1 .993.883L104 47v3h3a1 1 0 0 1 .117 1.993L107 52h-3v3a1 1 0 0 1-1.993.117L102 55v-3h-3a1 1 0 0 1-.117-1.993L99 50h3v-3a1 1 0 0 1 1-1zM81.5 27h-35c-.686 0-1.306.279-1.764.736A2.487 2.487 0 0 0 44 29.5c0 .687.28 1.307.736 1.765.412.41.955.677 1.56.726L46.5 32h35c.687 0 1.307-.278 1.765-.735a2.489 2.489 0 0 0 0-3.53A2.486 2.486 0 0 0 81.5 27zM71.492 94H81V82.558c.004-8.522-6.086-15.705-14.12-17.41a1.002 1.002 0 0 1-.792-.977c0-.47.33-.88.792-.978 7.92-1.68 13.952-8.687 14.116-17.05l.004-.358V34H48v4a1 1 0 0 1-1.994.116L46 38v-4l.01-.05c-2.248-.25-4.006-2.136-4.01-4.45a4.511 4.511 0 0 1 4.288-4.495L46.5 25h35a4.51 4.51 0 0 1 4.5 4.5c-.003 1.973-1.284 3.632-3.052 4.239.015.056.033.112.043.17L83 34v11.786c-.004 8.316-5.19 15.464-12.49 18.386 7.186 2.875 12.32 9.844 12.486 17.991l.004.396v11.494c2.244.255 3.996 2.138 4 4.448a4.51 4.51 0 0 1-4.289 4.494L82.5 103h-36a4.51 4.51 0 0 1-4.5-4.5c.003-2.238 1.648-4.075 3.79-4.42l.21-.028V82.558c.004-8.317 5.189-15.465 12.49-18.387C51.19 61.249 46.005 54.1 46 45.785a1 1 0 1 1 2 0c-.004 8.52 6.086 15.704 14.12 17.408.46.098.792.508.792.978s-.332.88-.793.978c-7.92 1.68-13.951 8.685-14.116 17.05l-.003.359V94h23.492z"/>
    </g>
</svg>
