<svg xmlns="http://www.w3.org/2000/svg" width="128" height="128" viewBox="0 0 128 128">
    <g fill="none" fill-rule="evenodd">
        <path fill="#D6D6D6" d="M64 126c34.242 0 62-27.758 62-62 0-34.242-27.758-62-62-62C29.758 2 2 29.758 2 64c0 34.242 27.758 62 62 62zm0 2C28.654 128 0 99.346 0 64 0 28.654 28.654 0 64 0c35.346 0 64 28.654 64 64 0 35.346-28.654 64-64 64z"/>
        <path fill="#75AE50" d="M64.044 95.67l.095.082 2.305 2.241.01.01c2.477 2.476 5.737 3.715 9.008 3.716 1.057 0 2.115-.129 3.146-.388a.27.27 0 0 1 .056-.007h.112c.049-.005.095-.01.144-.007.072.005.138.02.207.04.061.017.12.035.177.064.05.026.093.058.139.092l.066.04.063.046 4.693 4.694a.999.999 0 0 1-1.32 1.497l-.094-.083-4.329-4.329c-1.01.211-2.034.341-3.06.341a14.701 14.701 0 0 1-10.112-4.002l-.3-.29-2.305-2.242a1 1 0 0 1 1.299-1.515zm22.282-32.74a.999.999 0 0 1 1.414-.018l6.98 6.807.008.009a14.704 14.704 0 0 1 4.303 10.426c0 .383-.026.765-.055 1.147l8.076 8.075a.999.999 0 1 1-1.415 1.414l-7.06-7.06a14.609 14.609 0 0 1-3.849 6.851l-1.524 1.524a.999.999 0 1 1-1.414-1.414l1.524-1.524c2.478-2.478 3.716-5.74 3.717-9.013-.002-3.272-1.24-6.533-3.716-9.011l-6.971-6.799a1 1 0 0 1-.018-1.414zM78.604 21a5 5 0 0 1 4.996 4.783l.004.217v34a1 1 0 0 1-1.993.117L81.604 60V31h-37v47h18a1 1 0 0 1 .117 1.993l-.117.007h-18v7a3.005 3.005 0 0 0 2.824 2.995l.176.005h31.638c.661 0 1.246-.263 1.677-.69a1 1 0 1 1 1.411 1.418 4.37 4.37 0 0 1-2.849 1.266l-.239.006H47.604a5 5 0 0 1-4.995-4.783L42.604 87V26a5 5 0 0 1 4.783-4.995l.217-.005h31zm-16 61a3 3 0 1 1 0 6 3 3 0 0 1 0-6zm0 2a1.002 1.002 0 0 0-1 1c.001.552.448.999 1 1a1.002 1.002 0 0 0 1-1 1.002 1.002 0 0 0-1-1zm19-17a1 1 0 0 1 .117 1.993l-.117.007H62.517l-.043.02-.02.043c0 1.496.611 2.853 1.601 3.844a5.426 5.426 0 0 0 3.566 1.593l.28.007 3.824.001c2.031.001 3.99 1.058 4.961 2.92a8.262 8.262 0 0 0 5.578 4.261 1 1 0 1 1-.42 1.955 10.26 10.26 0 0 1-6.933-5.294c-.553-1.074-1.71-1.766-2.974-1.836l-.212-.006-3.825-.001c-4.102-.004-7.442-3.343-7.446-7.444a2.065 2.065 0 0 1 1.91-2.057l.153-.006h19.087zM37.882 30.475c.399 0 .798.04 1.189.117a1 1 0 1 1-.386 1.962 4.187 4.187 0 0 0-.803-.079 3.826 3.826 0 0 0-2.273.731 3.983 3.983 0 0 0-1.651 3.243c0 .951.33 1.893.992 2.644l.173.183 3.093 3.093.012.018c.086.09.157.193.205.308.049.12.075.248.075.377v.004a1.004 1.004 0 0 1-.87.992l-.13.008a.996.996 0 0 1-.69-.28c-.003-.006-.01-.008-.016-.013a3.985 3.985 0 0 0-2.826-1.165 3.978 3.978 0 0 0-3.244 1.651A3.819 3.819 0 0 0 30 46.541c-.001 1.007.376 2.03 1.084 2.825l.17.18 6.962 6.96.086.099c.132.173.207.389.207.608 0 .263-.107.521-.293.707a1.008 1.008 0 0 1-.707.293c-.264 0-.522-.107-.707-.293a3.984 3.984 0 0 0-2.83-1.165 3.983 3.983 0 0 0-3.24 1.651A3.819 3.819 0 0 0 30 60.678c-.001 1.008.376 2.03 1.084 2.825l.17.18 8.517 8.282a1 1 0 0 1-1.3 1.516l-.095-.082-8.526-8.293-.01-.01A6.274 6.274 0 0 1 28 60.678a5.826 5.826 0 0 1 1.116-3.452 5.973 5.973 0 0 1 4.28-2.434l.258-.019-3.814-3.814A6.274 6.274 0 0 1 28 46.541a5.824 5.824 0 0 1 1.116-3.452 5.978 5.978 0 0 1 4.548-2.454 5.979 5.979 0 0 1-1.706-4.186 5.985 5.985 0 0 1 2.472-4.858 5.824 5.824 0 0 1 3.452-1.116zm31.723 24.526a1 1 0 0 1 .993.883l.007.117v4.245l-.133.232-.182.314-6.871 3.968h-.63l-6.871-3.968-.134-.233-.18-.313v-4.245a1 1 0 0 1 1.994-.117l.007.117v3.456l5.5 3.175 5.5-3.175V56a1 1 0 0 1 1-1zm-6.28-7.392l6.658 3.844.5.289v1.318l-7.159 4.133h-.63l-7.158-4.133v-1.318l7.158-4.133h.63zm-.316 2.128L58.394 52.4l4.615 2.665 4.614-2.665-4.614-2.664zm11.485-3.704l.095.082 2.719 2.69a1 1 0 0 1-1.312 1.505l-.094-.083-2.72-2.69a.999.999 0 0 1 1.312-1.504zm-10.829-10.83l.095.083 8.093 8.093a1 1 0 0 1-1.32 1.497l-.094-.083-8.093-8.093a.999.999 0 0 1 1.32-1.497zm6.302 0l.094.083 7.234 7.226a1 1 0 1 1-1.32 1.498l-.094-.083-7.234-7.226a1 1 0 0 1 1.32-1.498zM78.604 23h-31a3.005 3.005 0 0 0-2.994 2.824l-.006.176v3h37v-3a3.005 3.005 0 0 0-3-3zm-9 2a1 1 0 0 1 .117 1.993l-.117.007h-10a1 1 0 0 1-.117-1.993l.117-.007h10zm-13 0a1 1 0 1 1 0 2 1 1 0 0 1 0-2z"/>
    </g>
</svg>
