<svg xmlns="http://www.w3.org/2000/svg" width="24" height="24" viewBox="0 0 24 24">
    <path fill="#75AE50" fill-rule="evenodd" d="M7.993 8.993a4.003 4.003 0 0 1 8.005 0 4.003 4.003 0 0 1-8.005 0m4.828 4.919c2.366-.395 4.178-2.447 4.178-4.92C16.999 6.24 14.754 4 11.995 4 9.236 4 6.992 6.24 6.992 8.993c0 2.47 1.81 4.522 4.175 4.918-3.342.394-5.983 3.134-6.166 6.563a.5.5 0 0 0 .999.053c.17-3.178 2.803-5.667 5.995-5.667 3.156 0 5.793 2.481 6.005 5.65a.5.5 0 0 0 .999-.067c-.229-3.41-2.874-6.137-6.178-6.531"/>
</svg>
