<svg xmlns="http://www.w3.org/2000/svg" width="96" height="96" viewBox="0 0 96 96">
    <path fill="#75AE50" fill-rule="evenodd" d="M48 0c26.51 0 48 21.49 48 48S74.51 96 48 96 0 74.51 0 48 21.49 0 48 0zm0 94c25.364 0 46-20.636 46-46S73.364 2 48 2 2 22.636 2 48s20.636 46 46 46zm15-17.146c.007.048.01.097.01.146v3.14a3 3 0 0 1-3 3h-6.077a1 1 0 1 1 0-2h6.078a1 1 0 0 0 1-1v-.994A1.01 1.01 0 0 1 61 79v-4.031a13.197 13.197 0 0 1-2.168-.336c-1.359-.335-2.951-.966-4.227-2.237-1.272-1.276-1.902-2.868-2.237-4.227A13.07 13.07 0 0 1 52 65.184c0-.133.003-.21.004-.223a1 1 0 0 1 .957-.957c.013-.001.091-.004.223-.004a13.07 13.07 0 0 1 2.985.368c1.359.335 2.951.965 4.227 2.237.223.224.419.459.604.699V54.969a13.197 13.197 0 0 1-2.168-.336c-1.359-.335-2.951-.966-4.227-2.237-1.272-1.276-1.902-2.868-2.237-4.227A13.07 13.07 0 0 1 52 45.184c0-.133.003-.21.004-.223a1 1 0 0 1 .957-.957c.013-.001.091-.004.223-.004a13.07 13.07 0 0 1 2.985.368c1.359.335 2.951.965 4.227 2.237.223.224.419.459.604.699V38.95c-6.158-.51-10.999-5.66-11-11.95.001-6.627 5.373-11.999 12-12 6.628.001 12 5.373 12 12 0 6.29-4.841 11.44-11 11.95v8.354c.186-.24.382-.475.605-.699 1.276-1.272 2.868-1.902 4.227-2.237A13.07 13.07 0 0 1 70.817 44c.132 0 .21.003.223.004a1 1 0 0 1 .957.957 12.98 12.98 0 0 1-.364 3.207c-.335 1.36-.966 2.952-2.237 4.228-1.276 1.271-2.868 1.902-4.227 2.237-.84.204-1.599.296-2.169.336v12.335c.186-.24.382-.475.605-.699 1.276-1.272 2.868-1.902 4.227-2.237A13.07 13.07 0 0 1 70.817 64c.132 0 .21.003.223.004a1 1 0 0 1 .957.957 12.98 12.98 0 0 1-.364 3.207c-.335 1.36-.966 2.952-2.237 4.228-1.276 1.271-2.868 1.902-4.227 2.237-.84.204-1.599.296-2.169.336v1.885zm-27 .064c.002.027.003.054.003.082v3.14a3 3 0 0 1-3 3h-6.077a1 1 0 1 1 0-2h6.077a1 1 0 0 0 1-1v-2.058A1.012 1.012 0 0 1 34 78v-3.031a13.213 13.213 0 0 1-2.168-.337c-1.359-.334-2.951-.965-4.228-2.236-1.271-1.277-1.902-2.869-2.236-4.228A12.952 12.952 0 0 1 25 65.183c0-.132.003-.21.003-.223.022-.518.439-.935.957-.957.013 0 .091-.003.223-.003.469 0 1.622.035 2.985.368 1.359.334 2.951.965 4.228 2.236.222.224.419.459.604.7V59c0-.018.009-.033.01-.05C27.847 58.445 23 53.293 23 47c0-6.628 5.372-12 12-12s12 5.372 12 12c0 6.293-4.847 11.445-11.01 11.95.001.017.01.032.01.05v8.303c.185-.24.382-.475.604-.699 1.277-1.271 2.869-1.902 4.228-2.236A12.952 12.952 0 0 1 43.817 64c.132 0 .21.003.223.003.518.022.935.439.957.958 0 .013.003.09.003.222 0 .469-.035 1.622-.368 2.985-.334 1.359-.965 2.951-2.236 4.228-1.277 1.271-2.869 1.902-4.228 2.236-.84.205-1.599.296-2.168.337v1.949zm29.019-28.899c-.906.9-1.431 2.146-1.708 3.288a11.044 11.044 0 0 0-.269 1.652c.459-.04 1.035-.118 1.652-.269 1.141-.277 2.388-.803 3.288-1.708.906-.9 1.431-2.147 1.708-3.288.151-.617.229-1.193.269-1.653a11.19 11.19 0 0 0-1.652.27c-1.142.277-2.388.802-3.288 1.708zm0 20c-.906.9-1.431 2.146-1.708 3.288a11.044 11.044 0 0 0-.269 1.652c.459-.04 1.035-.118 1.652-.269 1.141-.277 2.388-.803 3.288-1.708.906-.901 1.431-2.147 1.708-3.288.151-.617.229-1.193.269-1.653a11.19 11.19 0 0 0-1.652.27c-1.142.277-2.388.802-3.288 1.708zm-9 2.963c.9.906 2.146 1.431 3.288 1.708.617.151 1.193.228 1.652.269a11.044 11.044 0 0 0-.269-1.652c-.277-1.142-.802-2.388-1.708-3.288-.9-.906-2.147-1.431-3.288-1.708a11.19 11.19 0 0 0-1.652-.27c.04.46.118 1.036.269 1.653.277 1.141.802 2.387 1.708 3.288zm0-20c.9.906 2.146 1.431 3.288 1.708.617.151 1.193.228 1.652.269a11.044 11.044 0 0 0-.269-1.652c-.277-1.142-.802-2.388-1.708-3.288-.9-.906-2.147-1.431-3.288-1.708a11.19 11.19 0 0 0-1.652-.27c.04.46.118 1.036.269 1.653.277 1.141.802 2.388 1.708 3.288zM52 27a9.97 9.97 0 0 0 2.929 7.072A9.963 9.963 0 0 0 62 37a9.964 9.964 0 0 0 7.072-2.928A9.964 9.964 0 0 0 72 27a9.963 9.963 0 0 0-2.928-7.071A9.97 9.97 0 0 0 62 17a9.968 9.968 0 0 0-7.071 2.929A9.968 9.968 0 0 0 52 27zm10.758 5.768a.834.834 0 0 1-.62.252.83.83 0 0 1-.617-.252.878.878 0 0 1-.236-.625v-.527a5.894 5.894 0 0 1-1.152-.265 3.808 3.808 0 0 1-1.225-.692l-.001.001-.004-.005-.018-.013.004-.004a.916.916 0 0 1-.352-.74.943.943 0 0 1 .185-.578.703.703 0 0 1 .56-.288c.224.004.409.091.6.213l.003.002.002.001c.724.49 1.427.72 2.132.72.547.001.926-.113 1.166-.291.235-.182.337-.383.344-.739-.004-.19-.05-.288-.15-.388a1.515 1.515 0 0 0-.527-.315c-.24-.089-.59-.191-1.037-.301h-.002c-.61-.155-1.111-.31-1.51-.471a2.794 2.794 0 0 1-1.103-.808c-.331-.394-.484-.912-.483-1.496a2.565 2.565 0 0 1 .809-1.903c.46-.445 1.057-.72 1.747-.849v-.549a.888.888 0 0 1 .235-.626.842.842 0 0 1 .619-.252.842.842 0 0 1 .619.252.884.884 0 0 1 .235.626v.547c.328.056.649.136.955.265.4.167.759.396 1.073.681v-.001l.009.007.01.008-.001.001a.945.945 0 0 1 .162 1.309v.001a.713.713 0 0 1-.566.293c-.222-.004-.408-.092-.6-.213l-.01-.008-.011-.008a4.004 4.004 0 0 0-.904-.542c-.26-.106-.582-.165-.971-.165-.5 0-.854.114-1.104.309-.247.2-.352.414-.358.768.003.226.059.355.174.473.145.145.326.26.556.345.25.092.613.196 1.077.306l.003.001c.595.146 1.08.296 1.465.454.41.168.767.428 1.057.768.323.377.469.878.468 1.445a2.476 2.476 0 0 1-.786 1.849c-.445.427-1.021.694-1.686.827v.565a.878.878 0 0 1-.235.625zM35 57a9.963 9.963 0 0 0 7.071-2.929A9.963 9.963 0 0 0 45 47a9.963 9.963 0 0 0-2.929-7.071A9.963 9.963 0 0 0 35 37a9.963 9.963 0 0 0-7.071 2.929A9.963 9.963 0 0 0 25 47a9.963 9.963 0 0 0 2.929 7.071A9.963 9.963 0 0 0 35 57zm3.019 11.019c-.906.9-1.432 2.146-1.708 3.288a10.925 10.925 0 0 0-.269 1.651c.458-.04 1.034-.117 1.651-.269 1.142-.277 2.388-.802 3.288-1.708.906-.9 1.432-2.146 1.708-3.288.152-.617.229-1.193.269-1.652-.458.041-1.034.118-1.651.27-1.142.276-2.388.802-3.288 1.708zm-9 2.962c.9.906 2.146 1.431 3.288 1.708.617.152 1.193.229 1.651.269a10.925 10.925 0 0 0-.269-1.651c-.276-1.142-.802-2.388-1.708-3.288-.9-.906-2.146-1.432-3.288-1.708a11.069 11.069 0 0 0-1.651-.27c.04.459.117 1.035.269 1.652.276 1.142.802 2.388 1.708 3.288zm7.92-24.292c.41.167.767.428 1.057.769.322.377.47.877.468 1.444a2.472 2.472 0 0 1-.785 1.849c-.447.427-1.022.694-1.687.827v.564a.883.883 0 0 1-.234.625.84.84 0 0 1-.62.253.838.838 0 0 1-.617-.252.882.882 0 0 1-.236-.626v-.527a5.894 5.894 0 0 1-1.152-.265 3.79 3.79 0 0 1-1.226-.692v.002l-.005-.005-.018-.014.005-.003a.916.916 0 0 1-.352-.74.943.943 0 0 1 .184-.579.703.703 0 0 1 .561-.288c.223.005.408.093.599.214l.004.003h.002c.724.49 1.426.72 2.132.72.547 0 .925-.113 1.166-.292.234-.181.337-.383.343-.738-.003-.19-.048-.288-.15-.389a1.5 1.5 0 0 0-.526-.315c-.24-.089-.59-.19-1.037-.3h-.002c-.61-.155-1.111-.31-1.51-.471a2.785 2.785 0 0 1-1.103-.809c-.332-.394-.486-.912-.484-1.496a2.565 2.565 0 0 1 .81-1.903c.46-.445 1.056-.72 1.746-.849v-.548a.888.888 0 0 1 .236-.627.84.84 0 0 1 .618-.25.841.841 0 0 1 .62.25.888.888 0 0 1 .234.627v.547c.329.056.65.136.956.264.4.168.758.397 1.072.681h.002l.008.006.008.008v.002c.218.176.36.453.353.736a.923.923 0 0 1-.19.573.713.713 0 0 1-.566.294c-.223-.005-.408-.093-.6-.214l-.01-.007-.011-.008a4.004 4.004 0 0 0-.905-.543c-.26-.105-.581-.165-.97-.165-.5 0-.855.115-1.105.31-.246.2-.352.413-.358.767.003.227.06.355.173.474.146.145.327.26.557.345h.002c.25.092.611.196 1.075.306h.004c.593.146 1.08.297 1.465.454zM85 39a1 1 0 0 1 0 2h-2v2a1 1 0 0 1-2 0v-2h-2a1 1 0 0 1 0-2h2v-2a1 1 0 0 1 2 0v2h2zM23 26a1 1 0 0 1 0 2h-2v2a1 1 0 0 1-2 0v-2h-2a1 1 0 0 1 0-2h2v-2a1 1 0 0 1 2 0v2h2z"/>
</svg>
