<svg xmlns="http://www.w3.org/2000/svg" width="96" height="96" viewBox="0 0 96 96">
    <path fill="#75AE50" fill-rule="evenodd" d="M48 0C21.49.001 0 21.49 0 48s21.49 47.999 48 48c20.902-.002 38.685-13.36 45.271-32.009a1 1 0 0 0-1.886-.666C85.072 81.194 68.031 94.002 48 94c-12.705-.001-24.199-5.147-32.527-13.474C7.147 72.199 2 60.705 2 48c0-12.705 5.147-24.199 13.473-32.526C23.801 7.147 35.294 2 48 2c12.705 0 24.199 5.147 32.526 13.474C88.853 23.801 93.999 35.295 94 48a1 1 0 1 0 2 0C95.999 21.49 74.51.001 48 0"/>
</svg>
